<svg width="84" height="81" viewBox="0 0 84 81" fill="none" xmlns="http://www.w3.org/2000/svg">
<circle cx="43.3477" cy="40.9302" r="31.5" fill="#4ADE80"/>
<circle cx="80.3477" cy="12.9302" r="3.5" fill="#4ADE80"/>
<circle cx="9.34766" cy="4.93018" r="4.5" fill="#4ADE80"/>
<circle cx="4.84766" cy="59.4302" r="2" fill="#4ADE80"/>
<circle cx="73.8477" cy="71.4302" r="1" fill="#4ADE80"/>
<path d="M43.0224 39.2071C42.9141 39.1962 42.7841 39.1962 42.6649 39.2071C40.0866 39.1204 38.0391 37.0079 38.0391 34.4079C38.0391 31.7537 40.1841 29.5979 42.8491 29.5979C45.5032 29.5979 47.6591 31.7537 47.6591 34.4079C47.6482 37.0079 45.6007 39.1204 43.0224 39.2071Z" stroke="#F9FAFB" stroke-width="1.5" stroke-linecap="round" stroke-linejoin="round"/>
<path d="M37.603 43.2025C34.9813 44.9575 34.9813 47.8175 37.603 49.5616C40.5821 51.555 45.468 51.555 48.4471 49.5616C51.0688 47.8066 51.0688 44.9466 48.4471 43.2025C45.4788 41.22 40.593 41.22 37.603 43.2025Z" stroke="#F9FAFB" stroke-width="1.5" stroke-linecap="round" stroke-linejoin="round"/>
<circle cx="47.8477" cy="2.43018" r="1" fill="#4ADE80"/>
<circle cx="28.3477" cy="78.9302" r="1.5" fill="#4ADE80"/>
<circle cx="55.3477" cy="76.9302" r="0.5" fill="#4ADE80"/>
<circle cx="76.8477" cy="49.4302" r="1" fill="#4ADE80"/>
<circle cx="1.34766" cy="33.9302" r="0.5" fill="#4ADE80"/>
</svg>
