<svg width="64" height="64" viewBox="0 0 64 64" fill="none" xmlns="http://www.w3.org/2000/svg">
<path d="M29 42H35C40 42 42 40 42 35V29C42 24 40 22 35 22H29C24 22 22 24 22 29V35C22 40 24 42 29 42Z" stroke="#F9FAFB" stroke-width="1.5" stroke-linecap="round" stroke-linejoin="round"/>
<path d="M35.5 38.5C36.6 38.5 37.5 37.6 37.5 36.5V27.5C37.5 26.4 36.6 25.5 35.5 25.5C34.4 25.5 33.5 26.4 33.5 27.5V36.5C33.5 37.6 34.39 38.5 35.5 38.5Z" stroke="#F9FAFB" stroke-width="1.5" stroke-linecap="round" stroke-linejoin="round"/>
<path d="M28.5 38.5C29.6 38.5 30.5 37.6 30.5 36.5V33C30.5 31.9 29.6 31 28.5 31C27.4 31 26.5 31.9 26.5 33V36.5C26.5 37.6 27.39 38.5 28.5 38.5Z" stroke="#F9FAFB" stroke-width="1.5" stroke-linecap="round" stroke-linejoin="round"/>
</svg>
