<svg width="64" height="64" viewBox="0 0 64 64" fill="none" xmlns="http://www.w3.org/2000/svg">
<rect width="64" height="64" rx="24" fill="#F9FAFB"/>
<path d="M29 42H35C40 42 42 40 42 35V29C42 24 40 22 35 22H29C24 22 22 24 22 29V35C22 40 24 42 29 42Z" fill="#1F1D2B" stroke="#1F1D2B" stroke-width="1.5" stroke-linecap="round" stroke-linejoin="round"/>
<path d="M35.5 38.5C36.6 38.5 37.5 37.6 37.5 36.5V27.5C37.5 26.4 36.6 25.5 35.5 25.5C34.4 25.5 33.5 26.4 33.5 27.5V36.5C33.5 37.6 34.39 38.5 35.5 38.5Z" stroke="#F9FAFB" stroke-width="1.5" stroke-linecap="round" stroke-linejoin="round"/>
<path d="M28.5 38.5C29.6 38.5 30.5 37.6 30.5 36.5V33C30.5 31.9 29.6 31 28.5 31C27.4 31 26.5 31.9 26.5 33V36.5C26.5 37.6 27.39 38.5 28.5 38.5Z" stroke="#F9FAFB" stroke-width="1.5" stroke-linecap="round" stroke-linejoin="round"/>
<path d="M20.932 62.136C21.1627 61.6747 21.278 61.444 21.4178 61.2494C21.8839 60.6008 22.5893 60.1648 23.3778 60.038C23.6144 60 23.8723 60 24.3881 60H39.6119C40.1277 60 40.3856 60 40.6222 60.038C41.4107 60.1648 42.1161 60.6008 42.5822 61.2494C42.722 61.444 42.8373 61.6747 43.068 62.136C43.2509 62.5018 43.3424 62.6848 43.3674 62.8301C43.4532 63.3279 43.1544 63.8115 42.6708 63.9574C42.5295 64 42.325 64 41.916 64H22.084C21.675 64 21.4705 64 21.3292 63.9574C20.8457 63.8115 20.5468 63.3279 20.6326 62.8301C20.6576 62.6848 20.7491 62.5018 20.932 62.136Z" fill="#1F1D2B"/>
</svg>
