<svg width="32" height="32" viewBox="0 0 32 32" fill="none" xmlns="http://www.w3.org/2000/svg">
<g clip-path="url(#clip0_341_21398)">
<path d="M11.5771 32.0007C6.8145 31.9732 2.875 22.2512 2.875 17.3C2.875 9.2123 8.94219 7.44167 11.2804 7.44167C12.3342 7.44167 13.4594 7.85548 14.4518 8.22167C15.1458 8.47711 15.8636 8.7408 16.2628 8.7408C16.5017 8.7408 17.0648 8.51648 17.5619 8.31967C18.6221 7.89761 19.9413 7.37305 21.4776 7.37305C21.4803 7.37305 21.484 7.37305 21.4867 7.37305C22.6338 7.37305 26.1119 7.6248 28.203 10.765L28.6928 11.5011L27.9879 12.033C26.9808 12.7929 25.1433 14.179 25.1433 16.9247C25.1433 20.1767 27.2243 21.4273 28.2241 22.0288C28.6654 22.2943 29.1222 22.568 29.1222 23.1668C29.1222 23.5577 26.0021 31.9522 21.4711 31.9522C20.3624 31.9522 19.5788 31.6189 18.8875 31.325C18.1881 31.0275 17.5847 30.7712 16.5877 30.7712C16.0823 30.7712 15.4433 31.0101 14.7667 31.2637C13.8421 31.6088 12.7956 32.0007 11.6082 32.0007H11.5771Z" fill="black"/>
<path d="M21.9571 0C22.0751 4.25475 19.0323 7.2065 15.993 7.02138C15.4922 3.62594 19.0319 0 21.9571 0Z" fill="black"/>
</g>
<defs>
<clipPath id="clip0_341_21398">
<rect width="32" height="32" fill="white"/>
</clipPath>
</defs>
</svg>
