<svg width="49" height="48" viewBox="0 0 49 48" fill="none" xmlns="http://www.w3.org/2000/svg">
<rect x="0.847656" width="48" height="48" rx="16" fill="#F3F4F6" fill-opacity="0.15"/>
<path d="M24.8477 18.4414V21.7714" stroke="#F9FAFB" stroke-width="1.5" stroke-miterlimit="10" stroke-linecap="round"/>
<path d="M24.8666 14C21.1866 14 18.2066 16.98 18.2066 20.66V22.76C18.2066 23.44 17.9266 24.46 17.5766 25.04L16.3066 27.16C15.5266 28.47 16.0666 29.93 17.5066 30.41C22.2866 32 27.4566 32 32.2366 30.41C33.5866 29.96 34.1666 28.38 33.4366 27.16L32.1666 25.04C31.8166 24.46 31.5366 23.43 31.5366 22.76V20.66C31.5266 17 28.5266 14 24.8666 14Z" stroke="#F9FAFB" stroke-width="1.5" stroke-miterlimit="10" stroke-linecap="round"/>
<path d="M28.1795 30.8203C28.1795 32.6503 26.6795 34.1503 24.8495 34.1503C23.9395 34.1503 23.0995 33.7703 22.4995 33.1703C21.8995 32.5703 21.5195 31.7303 21.5195 30.8203" stroke="#F9FAFB" stroke-width="1.5" stroke-miterlimit="10"/>
</svg>
