<svg width="49" height="49" viewBox="0 0 49 49" fill="none" xmlns="http://www.w3.org/2000/svg">
<rect x="0.847656" y="0.430176" width="48" height="48" rx="16" fill="#F3F4F6" fill-opacity="0.15"/>
<path d="M24.8477 18.8701V22.2001" stroke="currentColor" stroke-width="1.5" stroke-miterlimit="10" stroke-linecap="round"/>
<path d="M24.8666 14.4302C21.1866 14.4302 18.2066 17.4102 18.2066 21.0902V23.1902C18.2066 23.8702 17.9266 24.8902 17.5766 25.4702L16.3066 27.5902C15.5266 28.9002 16.0666 30.3602 17.5066 30.8402C22.2866 32.4302 27.4566 32.4302 32.2366 30.8402C33.5866 30.3902 34.1666 28.8102 33.4366 27.5902L32.1666 25.4702C31.8166 24.8902 31.5366 23.8602 31.5366 23.1902V21.0902C31.5266 17.4302 28.5266 14.4302 24.8666 14.4302Z" stroke="currentColor" stroke-width="1.5" stroke-miterlimit="10" stroke-linecap="round"/>
<path d="M28.1795 31.2502C28.1795 33.0802 26.6795 34.5802 24.8495 34.5802C23.9395 34.5802 23.0995 34.2002 22.4995 33.6002C21.8995 33.0002 21.5195 32.1602 21.5195 31.2502" stroke="currentColor" stroke-width="1.5" stroke-miterlimit="10"/>
</svg>
