<svg width="50" height="50" viewBox="0 0 50 50" fill="none" xmlns="http://www.w3.org/2000/svg">
<path d="M25 5.46875C14.2133 5.46875 5.46875 14.2133 5.46875 25H44.5312C44.5312 14.2133 35.7867 5.46875 25 5.46875Z" fill="#FF786E"/>
<path d="M25 44.5312C35.7867 44.5312 44.5312 35.7867 44.5312 25H5.46875C5.46875 35.7867 14.2133 44.5312 25 44.5312Z" fill="#BE5652"/>
<path d="M48.9097 9.07429C50.416 5.73132 50.6089 -0.309302 47.8894 2.12976C44.7324 3.96257 42.4269 2.46414 40.1761 6.11101C31.2167 1.32429 28.0222 12.8391 26.3238 13.4048C21.916 14.8719 24.8214 19.8516 23.905 20.8219L0.724549 45.6704C-1.52623 47.9579 1.97533 51.479 4.30424 49.3329L30.9449 26.2212C34.5917 27.0837 36.5878 26.3024 37.8261 23.9423C47.6355 22.629 41.6394 14.4555 46.491 12.9446C47.8816 12.6618 49.7394 11.111 48.9097 9.07429ZM31.7433 11.2516C32.6816 9.3821 34.9035 6.64929 39.1722 9.6532C39.7324 10.0477 39.548 10.9251 38.8761 11.0641L32.6144 12.3641C31.9706 12.4977 31.4495 11.8368 31.7433 11.2516ZM40.3355 16.9673C39.3417 18.8688 36.9613 21.6626 32.2136 18.8805C32.155 18.8462 32.0956 18.811 32.0363 18.7743C31.43 18.4063 31.5925 17.4813 32.2878 17.336L34.162 16.9423L39.4792 15.8259C40.1363 15.6884 40.6456 16.3735 40.3355 16.9673Z" fill="#644638"/>
<path d="M32.0356 18.771C31.4317 18.4014 31.5942 17.4827 32.2872 17.3366C34.3223 16.9092 37.6145 16.2178 39.4926 15.8256C40.1325 15.6921 40.6637 16.3577 40.3614 16.9342C39.7731 18.0577 38.8637 19.1342 37.7207 19.6639C35.8559 20.5272 33.859 19.8866 32.0356 18.771ZM32.6153 12.3647L38.877 11.0647C39.5489 10.9249 39.7332 10.0483 39.1731 9.65377C34.9051 6.65065 32.6832 9.38268 31.7442 11.2522C31.4504 11.8374 31.9715 12.4983 32.6153 12.3647Z" fill="#EFEAE0"/>
<path d="M49.3995 1.81486C48.8792 1.1008 47.8893 2.12892 47.8893 2.12892C44.7323 3.96173 42.4268 2.4633 40.176 6.11017C31.2167 1.32345 28.0221 12.8383 26.3237 13.4039C21.9159 14.8711 24.8213 19.8508 23.9049 20.8211L0.725249 45.6703C-0.156782 46.5664 -0.281001 48.0617 0.777593 49.1453L32.2151 18.8813C32.1565 18.8469 32.0971 18.8117 32.0377 18.775C31.4315 18.407 31.594 17.482 32.2893 17.3367L34.1635 16.943L49.3995 1.81486ZM31.744 11.2516C32.6823 9.38205 34.9042 6.64923 39.1729 9.65314C39.7331 10.0477 39.5487 10.925 38.8768 11.0641L32.6151 12.3641C31.9713 12.4977 31.4502 11.8367 31.744 11.2516Z" fill="#4B322A"/>
</svg>
