<svg width="51" height="51" viewBox="0 0 51 51" fill="none" xmlns="http://www.w3.org/2000/svg">
<path d="M25.0977 48.8677C38.0418 48.8677 48.5352 38.3744 48.5352 25.4302C48.5352 12.486 38.0418 1.99268 25.0977 1.99268C12.1535 1.99268 1.66016 12.486 1.66016 25.4302C1.66016 38.3744 12.1535 48.8677 25.0977 48.8677Z" fill="#515570"/>
<path d="M25.0977 48.8677C38.0418 48.8677 48.5352 38.3744 48.5352 25.4302C48.5352 12.486 38.0418 1.99268 25.0977 1.99268C12.1535 1.99268 1.66016 12.486 1.66016 25.4302C1.66016 38.3744 12.1535 48.8677 25.0977 48.8677Z" fill="#515570"/>
<path opacity="0.5" d="M25.0977 44.1802C35.453 44.1802 43.8477 35.7855 43.8477 25.4302C43.8477 15.0748 35.453 6.68018 25.0977 6.68018C14.7423 6.68018 6.34766 15.0748 6.34766 25.4302C6.34766 35.7855 14.7423 44.1802 25.0977 44.1802Z" fill="#393C54"/>
<path d="M35.7695 27.1333C37.4803 27.1333 38.8672 25.7464 38.8672 24.0356C38.8672 22.3249 37.4803 20.938 35.7695 20.938C34.0587 20.938 32.6719 22.3249 32.6719 24.0356C32.6719 25.7464 34.0587 27.1333 35.7695 27.1333Z" fill="#FBC0AA"/>
<path d="M25.0977 48.8677C30.8294 48.8747 36.3633 46.7724 40.6445 42.9614L39.7852 40.9146C39.1172 39.3521 37.3555 38.3208 35.375 38.3208H14.8203C12.8398 38.3208 11.0781 39.3599 10.4102 40.9146L9.55078 42.9614C13.8321 46.7724 19.3659 48.8747 25.0977 48.8677Z" fill="#F8DC25"/>
<path d="M25.0977 33.5356V38.9067" stroke="#FBC0AA" stroke-width="7.8125" stroke-linecap="round" stroke-linejoin="round"/>
<path d="M14.4258 27.1333C16.1366 27.1333 17.5234 25.7464 17.5234 24.0356C17.5234 22.3249 16.1366 20.938 14.4258 20.938C12.715 20.938 11.3281 22.3249 11.3281 24.0356C11.3281 25.7464 12.715 27.1333 14.4258 27.1333Z" fill="#FBC0AA"/>
<path d="M25.0977 37.2927C23.6448 37.2932 22.206 37.0074 20.8636 36.4517C19.5212 35.8959 18.3015 35.0811 17.2741 34.0537C16.2468 33.0264 15.432 31.8067 14.8762 30.4643C14.3204 29.1219 14.0346 27.6831 14.0352 26.2302V18.9568C14.0352 16.0228 15.2007 13.209 17.2753 11.1344C19.3499 9.0598 22.1637 7.89429 25.0977 7.89429C28.0316 7.89429 30.8454 9.0598 32.92 11.1344C34.9946 13.209 36.1602 16.0228 36.1602 18.9568V26.2302C36.1607 27.6831 35.8749 29.1219 35.3191 30.4643C34.7634 31.8067 33.9485 33.0264 32.9212 34.0537C31.8938 35.0811 30.6741 35.8959 29.3317 36.4517C27.9893 37.0074 26.5505 37.2932 25.0977 37.2927Z" fill="#FFD8C9"/>
<path d="M30.0469 24.7581C30.6941 24.7581 31.2188 24.2334 31.2188 23.5862C31.2188 22.939 30.6941 22.4143 30.0469 22.4143C29.3997 22.4143 28.875 22.939 28.875 23.5862C28.875 24.2334 29.3997 24.7581 30.0469 24.7581Z" fill="#393C54"/>
<path d="M12.5977 18.3989L13.7187 24.4341C13.7352 24.52 13.7799 24.5979 13.8458 24.6553C13.9117 24.7127 13.995 24.7464 14.0823 24.7509C14.1697 24.7554 14.256 24.7305 14.3274 24.6801C14.3989 24.6298 14.4514 24.5569 14.4766 24.4731C15.1406 22.2036 16.5039 18.3989 18.0664 18.3989C20.3125 18.3989 18.9219 15.2739 18.9219 15.2739L12.5977 18.3989Z" fill="#8F5653"/>
<path d="M37.5975 18.3989L36.4764 24.4341C36.46 24.52 36.4153 24.5979 36.3493 24.6553C36.2834 24.7127 36.2001 24.7464 36.1128 24.7509C36.0255 24.7554 35.9392 24.7305 35.8677 24.6801C35.7962 24.6298 35.7437 24.5569 35.7186 24.4731C35.0545 22.2036 33.6912 18.3989 32.1287 18.3989C29.8826 18.3989 31.2733 15.2739 31.2733 15.2739L37.5975 18.3989Z" fill="#8F5653"/>
<path d="M19.5 24.7581C20.1472 24.7581 20.6719 24.2334 20.6719 23.5862C20.6719 22.939 20.1472 22.4143 19.5 22.4143C18.8528 22.4143 18.3281 22.939 18.3281 23.5862C18.3281 24.2334 18.8528 24.7581 19.5 24.7581Z" fill="#393C54"/>
<path d="M12.9883 18.0083V17.4028C12.9883 14.1912 14.2641 11.1112 16.535 8.84021C18.806 6.56926 21.8861 5.29346 25.0977 5.29346C28.3093 5.29346 31.3893 6.56926 33.6603 8.84021C35.9312 11.1112 37.207 14.1912 37.207 17.4028V18.0083" fill="#F2BC0F"/>
<path opacity="0.4" d="M29.1562 21.1333L32.9102 21.0356" stroke="#515570" stroke-width="0.78125" stroke-linecap="round" stroke-linejoin="round"/>
<path opacity="0.4" d="M20.8008 21.1333L17.0469 21.0356" stroke="#515570" stroke-width="0.78125" stroke-linecap="round" stroke-linejoin="round"/>
<path opacity="0.4" d="M23.5352 34.0239H26.6602" stroke="#515570" stroke-width="0.78125" stroke-linecap="round" stroke-linejoin="round"/>
<path d="M15.332 46.7349C18.3961 48.1393 21.7271 48.8663 25.0977 48.8663C28.4683 48.8663 31.7992 48.1393 34.8633 46.7349V44.5708H15.332V46.7349Z" fill="#356CB6"/>
<path opacity="0.2" d="M22.168 15.6643H28.0273L30.6758 6.65645C28.9524 5.76205 27.0393 5.29517 25.0977 5.29517C23.156 5.29517 21.2429 5.76205 19.5195 6.65645L22.168 15.6643Z" fill="#393C54"/>
<path d="M25.0977 4.90286C24.0901 4.9032 23.0834 4.95927 22.082 5.07083C21.9811 5.07887 21.8864 5.1226 21.8148 5.19419C21.7432 5.26578 21.6994 5.36053 21.6914 5.46145L22.168 17.6177H28.0273L28.5156 5.45755C28.5076 5.35663 28.4638 5.26187 28.3923 5.19028C28.3207 5.1187 28.2259 5.07496 28.125 5.06692C27.1197 4.95624 26.109 4.90147 25.0977 4.90286Z" fill="#F2BC0F"/>
<path opacity="0.5" d="M15.332 46.7349C18.3961 48.1393 21.7271 48.8663 25.0977 48.8663C28.4683 48.8663 31.7992 48.1393 34.8633 46.7349V44.5708H15.332V46.7349Z" fill="#393C54"/>
<path d="M15.332 38.3208H18.457V44.9614C18.457 45.3758 18.2924 45.7733 17.9994 46.0663C17.7064 46.3593 17.3089 46.5239 16.8945 46.5239C16.4801 46.5239 16.0827 46.3593 15.7897 46.0663C15.4967 45.7733 15.332 45.3758 15.332 44.9614V38.3208Z" fill="#356CB6"/>
<path d="M31.7383 38.3208H34.8633V44.9614C34.8633 45.3758 34.6987 45.7733 34.4056 46.0663C34.1126 46.3593 33.7152 46.5239 33.3008 46.5239C32.8864 46.5239 32.489 46.3593 32.1959 46.0663C31.9029 45.7733 31.7383 45.3758 31.7383 44.9614V38.3208Z" fill="#356CB6"/>
<path d="M16.8945 45.7427C17.326 45.7427 17.6758 45.3929 17.6758 44.9614C17.6758 44.53 17.326 44.1802 16.8945 44.1802C16.4631 44.1802 16.1133 44.53 16.1133 44.9614C16.1133 45.3929 16.4631 45.7427 16.8945 45.7427Z" fill="#393C54"/>
<path d="M33.3008 45.7427C33.7323 45.7427 34.082 45.3929 34.082 44.9614C34.082 44.53 33.7323 44.1802 33.3008 44.1802C32.8693 44.1802 32.5195 44.53 32.5195 44.9614C32.5195 45.3929 32.8693 45.7427 33.3008 45.7427Z" fill="#393C54"/>
<path d="M24.7514 22.7862L22.9858 26.8331C22.9642 26.8908 22.9565 26.9527 22.9634 27.0139C22.9703 27.0751 22.9915 27.1338 23.0254 27.1853C23.0593 27.2367 23.1049 27.2794 23.1584 27.3098C23.212 27.3403 23.2719 27.3576 23.3335 27.3605H26.8491C26.9106 27.3576 26.9706 27.3403 27.0241 27.3098C27.0776 27.2794 27.1232 27.2367 27.1571 27.1853C27.191 27.1338 27.2123 27.0751 27.2192 27.0139C27.226 26.9527 27.2184 26.8908 27.1967 26.8331L25.4467 22.7862C25.414 22.7223 25.3642 22.6686 25.3028 22.6311C25.2415 22.5936 25.171 22.5737 25.0991 22.5737C25.0272 22.5737 24.9567 22.5936 24.8954 22.6311C24.834 22.6686 24.7842 22.7223 24.7514 22.7862Z" fill="#FBC0AA"/>
<path d="M27.2461 32.4614H22.9492C22.5866 32.4614 22.2389 32.3174 21.9825 32.061C21.7261 31.8046 21.582 31.4568 21.582 31.0942C21.582 30.7316 21.7261 30.3839 21.9825 30.1275C22.2389 29.8711 22.5866 29.7271 22.9492 29.7271H27.2461C27.6087 29.7271 27.9564 29.8711 28.2128 30.1275C28.4692 30.3839 28.6133 30.7316 28.6133 31.0942C28.6133 31.4568 28.4692 31.8046 28.2128 32.061C27.9564 32.3174 27.6087 32.4614 27.2461 32.4614Z" fill="#393C54"/>
<path d="M22.7539 29.7271H27.4414C27.4414 29.9343 27.3591 30.133 27.2126 30.2795C27.0661 30.426 26.8674 30.5083 26.6602 30.5083H23.5352C23.328 30.5083 23.1292 30.426 22.9827 30.2795C22.8362 30.133 22.7539 29.9343 22.7539 29.7271Z" fill="white"/>
<path d="M23.5352 32.4614H27.2461C27.6087 32.4614 27.9564 32.3174 28.2128 32.061C28.4692 31.8046 28.6133 31.4568 28.6133 31.0942C28.6174 31.0292 28.6174 30.964 28.6133 30.8989H25.8789C25.3776 30.8989 24.8876 31.0473 24.4705 31.3254C24.0534 31.6034 23.728 31.9987 23.5352 32.4614Z" fill="#F85565"/>
<path d="M29.6328 19.7466H20.1719C17.2525 19.7473 14.3796 19.0153 11.8164 17.6177H37.9883C35.4251 19.0153 32.5522 19.7473 29.6328 19.7466Z" fill="#F2BC0F"/>
<path d="M37.5977 16.4458H12.207C11.9913 16.4458 11.8164 16.6207 11.8164 16.8364V17.6177C11.8164 17.8334 11.9913 18.0083 12.207 18.0083H37.5977C37.8134 18.0083 37.9883 17.8334 37.9883 17.6177V16.8364C37.9883 16.6207 37.8134 16.4458 37.5977 16.4458Z" fill="#F8DC25"/>
<path d="M30.1758 29.7271C30.1758 29.209 29.97 28.7123 29.6037 28.346C29.2374 27.9797 28.7407 27.7739 28.2227 27.7739H21.9727C21.4547 27.7739 20.9579 27.9797 20.5916 28.346C20.2253 28.7123 20.0195 29.209 20.0195 29.7271H17.6758C17.6757 30.0974 17.7809 30.4602 17.9791 30.773C18.1773 31.0859 18.4604 31.3359 18.7954 31.494C19.1304 31.6521 19.5033 31.7116 19.8709 31.6657C20.2384 31.6199 20.5853 31.4704 20.8711 31.2349C21.9572 30.2916 23.3391 29.7581 24.7773 29.7271H25.4336C26.8718 29.7581 28.2538 30.2916 29.3398 31.2349C29.6259 31.4657 29.9713 31.6112 30.3363 31.6545C30.7013 31.6978 31.0712 31.6372 31.4033 31.4797C31.7354 31.3222 32.0164 31.0742 32.2138 30.7641C32.4113 30.4541 32.5173 30.0946 32.5195 29.7271H30.1758Z" fill="#8F5653"/>
</svg>
