<svg width="51" height="51" viewBox="0 0 51 51" fill="none" xmlns="http://www.w3.org/2000/svg">
<g clip-path="url(#clip0_1252_30457)">
<path d="M25.9453 50.3086C39.7524 50.3086 50.9453 39.1157 50.9453 25.3086C50.9453 11.5015 39.7524 0.308594 25.9453 0.308594C12.1382 0.308594 0.945312 11.5015 0.945312 25.3086C0.945312 39.1157 12.1382 50.3086 25.9453 50.3086Z" fill="#E6F3FF"/>
<path d="M35.4004 48.4573C44.5192 44.7286 50.9448 35.7701 50.9448 25.3094C50.9448 25.3018 50.9445 25.2942 50.9445 25.2866L48.2769 22.6189L46.707 25.3875L31.7139 10.3945L19.3208 18.1566L16.2229 19.8801L22.3579 26.0151L22.101 26.3193L18.8198 23.0382L16.2227 24.2646L20.351 28.393L20.0098 28.7972L23.4668 32.2542L22.2973 35.354L35.4004 48.4573Z" fill="#CFDBE6"/>
<path d="M28.3957 31.5139V28.7969H23.4957V31.5139C23.4957 31.7307 23.3199 31.9064 23.1031 31.9064H19.7266V41.2825H32.1651V31.9064H28.7886C28.5714 31.9064 28.3957 31.7307 28.3957 31.5139Z" fill="#FED8B2"/>
<path d="M32.1658 31.9064H28.7893C28.5725 31.9064 28.3967 31.7307 28.3967 31.5139V28.7969H25.8906V41.2825H32.166V31.9064H32.1658Z" fill="#EABE96"/>
<path d="M17.802 25.0609C18.8834 25.0609 19.7602 24.1842 19.7602 23.1027C19.7602 22.0212 18.8834 21.1445 17.802 21.1445C16.7205 21.1445 15.8438 22.0212 15.8438 23.1027C15.8438 24.1842 16.7205 25.0609 17.802 25.0609Z" fill="#FED8B2"/>
<path d="M33.673 25.0609C34.7545 25.0609 35.6312 24.1842 35.6312 23.1027C35.6312 22.0212 34.7545 21.1445 33.673 21.1445C32.5916 21.1445 31.7148 22.0212 31.7148 23.1027C31.7148 24.1842 32.5916 25.0609 33.673 25.0609Z" fill="#EABE96"/>
<path d="M25.9566 31.259H25.5154C21.4338 31.259 18.125 27.9502 18.125 23.8686V17.1209C18.125 13.0393 21.4338 9.73047 25.5154 9.73047H25.9566C30.0383 9.73047 33.3471 13.0393 33.3471 17.1209V23.8686C33.3471 27.9503 30.0383 31.259 25.9566 31.259Z" fill="#F4E3C3"/>
<path d="M25.9586 9.73047H25.8906V31.2589H25.9586C30.0402 31.2589 33.349 27.9501 33.349 23.8685V17.1208C33.349 13.0393 30.0402 9.73047 25.9586 9.73047Z" fill="#FED8B2"/>
<path d="M32.5476 12.2269C31.096 10.1594 28.6955 8.80664 25.9775 8.80664H25.8906V18.3728C26.9009 18.0448 27.8818 17.6537 28.8221 17.1837C29.9307 18.4569 31.2109 19.5937 32.6242 20.5158V23.1028H34.0014V18.8774V16.8303C34.0014 15.1171 33.4627 13.5304 32.5476 12.2269Z" fill="#57442F"/>
<path d="M25.4964 8.80664C21.0649 8.80664 17.4727 12.399 17.4727 16.8306V17.4511V23.1031H18.6506V19.7885C18.6504 19.7885 18.6501 19.7885 18.6499 19.7885C21.1337 19.5361 23.5883 19.1198 25.8888 18.3729V8.80664H25.4964Z" fill="#9A4F03"/>
<path d="M22.1479 22.9949C22.5682 22.9949 22.909 22.6542 22.909 22.2338C22.909 21.8134 22.5682 21.4727 22.1479 21.4727C21.7275 21.4727 21.3867 21.8134 21.3867 22.2338C21.3867 22.6542 21.7275 22.9949 22.1479 22.9949Z" fill="#59595B"/>
<path d="M29.3236 22.9949C29.744 22.9949 30.0848 22.6542 30.0848 22.2338C30.0848 21.8134 29.744 21.4727 29.3236 21.4727C28.9033 21.4727 28.5625 21.8134 28.5625 22.2338C28.5625 22.6542 28.9033 22.9949 29.3236 22.9949Z" fill="#272525"/>
<path d="M25.7367 28.4721C24.3653 28.4721 23.25 27.3565 23.25 25.9854C23.25 25.7528 23.4384 25.5645 23.6709 25.5645C23.9034 25.5645 24.0918 25.7528 24.0918 25.9854C24.0918 26.8924 24.8299 27.6303 25.7367 27.6303C26.6437 27.6303 27.3816 26.8922 27.3816 25.9854C27.3816 25.7528 27.57 25.5645 27.8025 25.5645C28.0351 25.5645 28.2234 25.7528 28.2234 25.9854C28.2236 27.3566 27.1081 28.4721 25.7367 28.4721Z" fill="#FD8469"/>
<path d="M25.7367 27.6303C24.8297 27.6303 24.0918 26.8922 24.0918 25.9854C24.0918 25.7528 23.9034 25.5645 23.6709 25.5645C23.4384 25.5645 23.25 25.7528 23.25 25.9854C23.25 27.3567 24.3655 28.4721 25.7367 28.4721C25.7883 28.4721 25.8388 28.4674 25.8895 28.4644V27.6226C25.8391 27.6272 25.7883 27.6303 25.7367 27.6303Z" fill="#FD8469"/>
<path d="M28.2247 25.9854C28.2247 25.7528 28.0363 25.5645 27.8038 25.5645C27.5713 25.5645 27.3829 25.7528 27.3829 25.9854C27.3829 26.8409 26.7262 27.5453 25.8906 27.6228V28.4646C27.1907 28.3848 28.2247 27.305 28.2247 25.9854Z" fill="#FC6F58"/>
<path d="M17.1914 16.9756V19.7533H25.8896V8.22266C21.0806 8.25313 17.1914 12.1596 17.1914 16.9756Z" fill="#F4A200"/>
<path d="M34.7009 16.9749C34.7009 12.14 30.7815 8.2207 25.9467 8.2207C25.9278 8.2207 25.9095 8.22207 25.8906 8.22207V19.7527H34.7009V16.9749Z" fill="#DD8D00"/>
<path d="M25.9457 8.2207C24.9743 8.2207 24.041 8.38135 23.168 8.67344V19.7527H28.7235V8.67334C27.8502 8.38125 26.9169 8.2207 25.9457 8.2207Z" fill="#CC8006"/>
<path d="M28.7244 8.67344C27.8514 8.38135 26.9181 8.2207 25.9467 8.2207C25.9278 8.2207 25.9093 8.22168 25.8906 8.22188V19.7526H28.7244V8.67344Z" fill="#AA6707"/>
<path d="M35.6671 16.8496H16.2227V19.8799H35.6671V16.8496Z" fill="#DD8D00"/>
<path d="M35.6684 16.8496H25.8906V19.8799H35.6684V16.8496Z" fill="#C67A00"/>
<path d="M32.4886 31.9062H29.8814C29.8814 34.1962 28.025 36.0523 25.7354 36.0523C23.4457 36.0523 21.5893 34.1959 21.5893 31.9062H18.9822C15.8423 31.9062 13.2969 34.4517 13.2969 37.5916V46.8763C17.007 49.0569 21.329 50.3088 25.9439 50.3088C30.3869 50.3088 34.5583 49.1483 38.1739 47.1162V37.5916C38.1739 34.4518 35.6284 31.9062 32.4886 31.9062Z" fill="#31BAFD"/>
<path d="M32.4912 31.9062H29.8841C29.8841 34.1449 28.1095 35.9681 25.8906 36.0485V50.3078C25.9093 50.3078 25.9278 50.3088 25.9467 50.3088C30.3896 50.3088 34.5608 49.1483 38.1767 47.1162V37.5916C38.1766 34.4518 35.6311 31.9062 32.4912 31.9062Z" fill="#2B9ED8"/>
<path d="M20.391 31.9063H18.9845C18.5116 31.9063 18.0524 31.9651 17.6133 32.0738V48.8834C20.2198 49.8055 23.024 50.3089 25.9466 50.3089C28.8693 50.3089 31.6731 49.8038 34.2799 48.8816V32.1951C33.7173 32.0088 33.1162 31.9062 32.4912 31.9062H31.5021V41.9756H20.391V31.9063Z" fill="#324A5E"/>
<path d="M32.4913 31.9062H31.5022V41.9755H25.8906V50.3081C25.9093 50.3081 25.9278 50.3088 25.9467 50.3088C28.8694 50.3088 31.6732 49.8037 34.28 48.8815V32.195C33.7174 32.0086 33.1165 31.9062 32.4913 31.9062Z" fill="#2B3B4E"/>
<path d="M42.6133 43.9404C43.6154 43.0435 44.5444 42.0667 45.391 41.0204V27.1602H42.6133V43.9404Z" fill="#B97850"/>
<path d="M45.3903 27.1602H44.0156V42.5811C44.4945 42.0801 44.954 41.5599 45.3903 41.0203V27.1602Z" fill="#935635"/>
<path d="M47.5647 28.2268H40.4375C39.7559 28.2268 39.2031 27.674 39.2031 26.9924V23.625C39.2031 22.9434 39.7559 22.3906 40.4375 22.3906H47.5647C48.2464 22.3906 48.7991 22.9434 48.7991 23.625V26.9924C48.7992 27.6743 48.2465 28.2268 47.5647 28.2268Z" fill="#804000"/>
<path d="M47.5651 22.3906H44.0156V28.2269H47.5651C48.2468 28.2269 48.7995 27.6741 48.7995 26.9925V23.6251C48.7996 22.9431 48.2469 22.3906 47.5651 22.3906Z" fill="#6D3501"/>
</g>
<defs>
<clipPath id="clip0_1252_30457">
<rect width="50" height="50" fill="white" transform="translate(0.945312 0.308594)"/>
</clipPath>
</defs>
</svg>
