<svg width="65" height="64" viewBox="0 0 65 64" fill="none" xmlns="http://www.w3.org/2000/svg">
<path d="M22.3594 22H24.0994C25.1794 22 26.0294 22.93 25.9394 24L25.1094 33.96C24.9694 35.59 26.2594 36.99 27.8994 36.99H38.5494C39.9894 36.99 41.2494 35.81 41.3594 34.38L41.8994 26.88C42.0194 25.22 40.7594 23.87 39.0894 23.87H26.1794" stroke="#F9FAFB" stroke-width="1.5" stroke-miterlimit="10" stroke-linecap="round" stroke-linejoin="round"/>
<path d="M36.6094 42C37.2997 42 37.8594 41.4404 37.8594 40.75C37.8594 40.0596 37.2997 39.5 36.6094 39.5C35.919 39.5 35.3594 40.0596 35.3594 40.75C35.3594 41.4404 35.919 42 36.6094 42Z" stroke="#F9FAFB" stroke-width="1.5" stroke-miterlimit="10" stroke-linecap="round" stroke-linejoin="round"/>
<path d="M28.6094 42C29.2997 42 29.8594 41.4404 29.8594 40.75C29.8594 40.0596 29.2997 39.5 28.6094 39.5C27.919 39.5 27.3594 40.0596 27.3594 40.75C27.3594 41.4404 27.919 42 28.6094 42Z" stroke="#F9FAFB" stroke-width="1.5" stroke-miterlimit="10" stroke-linecap="round" stroke-linejoin="round"/>
<path d="M29.3594 28H41.3594" stroke="#F9FAFB" stroke-width="1.5" stroke-miterlimit="10" stroke-linecap="round" stroke-linejoin="round"/>
<circle cx="42.3594" cy="19" r="8" fill="#ED4C4C"/>
<path d="M41.6364 22.626V15.982L41.9554 16.224L40.5254 17.082L40.2724 16.312L42.1754 15.19H42.5054V22.626H41.6364ZM40.5034 23V22.164H43.6604V23H40.5034Z" fill="#F9FAFB"/>
</svg>
