<svg width="51" height="51" viewBox="0 0 51 51" fill="none" xmlns="http://www.w3.org/2000/svg">
<path d="M34.1435 5.02148C33.7859 5.02148 33.4961 5.31136 33.4961 5.66892V7.82707H34.791V5.66892C34.791 5.31136 34.5012 5.02148 34.1435 5.02148Z" fill="#5CA8D3"/>
<path d="M17.7421 12.1445L13.4258 16.4608L17.7421 14.7343C19.1664 14.7343 20.3319 13.569 20.3319 12.1445H17.7421Z" fill="#FDA162"/>
<path d="M9.10938 12.1445H17.742C17.742 13.5689 16.5766 14.7343 15.1522 14.7343L13.4257 16.4608L11.6992 14.7343C10.2748 14.7343 9.10938 13.569 9.10938 12.1445Z" fill="#FDCE6E"/>
<path d="M17.7421 14.7363L13.4258 19.0526L17.7421 17.3261C19.1664 17.3261 20.3319 16.1608 20.3319 14.7363H17.7421Z" fill="#FDA162"/>
<path d="M9.10938 14.7363H17.742C17.742 16.1607 16.5766 17.3261 15.1522 17.3261L13.4257 19.0526L11.6992 17.3261C10.2748 17.3261 9.10938 16.1608 9.10938 14.7363Z" fill="#FDCE6E"/>
<path d="M17.7421 17.3242L13.4258 21.6405L17.7421 19.914C19.1664 19.914 20.3319 18.7486 20.3319 17.3242H17.7421Z" fill="#FDA162"/>
<path d="M9.10938 17.3242H17.742C17.742 18.7486 16.5766 19.914 15.1522 19.914L13.4257 21.6405L11.6992 19.914C10.2748 19.914 9.10938 18.7486 9.10938 17.3242Z" fill="#FDCE6E"/>
<path d="M17.7421 19.9141L13.4258 24.2304L17.7421 22.5039C19.1664 22.5039 20.3319 21.3385 20.3319 19.9141H17.7421Z" fill="#FDA162"/>
<path d="M9.10938 19.9141H17.742C17.742 21.3384 16.5766 22.5039 15.1522 22.5039L13.4257 24.2304L11.6992 22.5039C10.2748 22.5039 9.10938 21.3384 9.10938 19.9141Z" fill="#FDCE6E"/>
<path d="M34.1406 6.96484V16.4608L41.91 14.7343C41.91 10.4429 38.4319 6.96484 34.1406 6.96484Z" fill="#66C6FE"/>
<path d="M39.3239 14.7323L32.8495 16.4588L26.375 14.7323C26.375 10.441 29.8531 6.96289 34.1444 6.96289C37.0052 6.96297 39.3239 10.441 39.3239 14.7323Z" fill="#99D9FF"/>
<path d="M40.1872 14.7363H25.5117V17.3261H40.1872V14.7363Z" fill="#5CA8D3"/>
<path d="M42.7773 14.7363H40.1875V17.3261H42.7773V14.7363Z" fill="#5389A9"/>
<path d="M20.5515 20.5605H8.89743C8.5398 20.5605 8.25 20.2706 8.25 19.9131C8.25 19.5555 8.5398 19.2656 8.89743 19.2656H20.5515C20.9091 19.2656 21.1989 19.5555 21.1989 19.9131C21.1989 20.2706 20.9091 20.5605 20.5515 20.5605Z" fill="#FDFA7B"/>
<path d="M20.5515 17.9726H8.89743C8.5398 17.9726 8.25 17.6827 8.25 17.3252C8.25 16.9676 8.5398 16.6777 8.89743 16.6777H20.5515C20.9091 16.6777 21.1989 16.9676 21.1989 17.3252C21.1989 17.6827 20.9091 17.9726 20.5515 17.9726Z" fill="#FDFA7B"/>
<path d="M20.5515 15.3828H8.89743C8.5398 15.3828 8.25 15.0929 8.25 14.7353C8.25 14.3778 8.5398 14.0879 8.89743 14.0879H20.5515C20.9091 14.0879 21.1989 14.3778 21.1989 14.7353C21.1989 15.0929 20.9091 15.3828 20.5515 15.3828Z" fill="#FDFA7B"/>
<path d="M20.5515 12.7929H8.89743C8.5398 12.7929 8.25 12.503 8.25 12.1455C8.25 11.7879 8.5398 11.498 8.89743 11.498H20.5515C20.9091 11.498 21.1989 11.7879 21.1989 12.1455C21.1989 12.503 20.9091 12.7929 20.5515 12.7929Z" fill="#FDFA7B"/>
<path d="M26.1581 14.7363H24.8633V24.2322H26.1581V14.7363Z" fill="#5389A9"/>
<path d="M43.4238 14.7363H42.1289V24.2322H43.4238V14.7363Z" fill="#496A7E"/>
<path d="M41.4805 39.1934V44.9491C41.4805 45.3066 41.7703 45.5965 42.1279 45.5965C42.4855 45.5965 42.7753 45.3066 42.7753 44.9491V39.1934H41.4805Z" fill="#B1786B"/>
<path d="M9.10938 39.1934V44.9491C9.10938 45.3066 9.39917 45.5965 9.75681 45.5965C10.1144 45.5965 10.4042 45.3066 10.4042 44.9491V39.1934H9.10938Z" fill="#CB9385"/>
<path d="M25.9438 24.2285L7.16797 27.6816V30.2441L39.1083 36.53L42.1041 41.7681C42.7464 42.091 43.4919 42.3571 44.7195 42.3571V27.6815L25.9438 24.2285Z" fill="#FDA162"/>
<path d="M44.9465 22.5039V27.6834H42.3571L40.5273 25.3098L42.3571 22.5039H44.9465Z" fill="#99D9FF"/>
<path d="M42.3581 22.5039H6.94531V27.6835H42.3581V22.5039Z" fill="#CCECFF"/>
<path d="M42.105 30.2715H7.16797V42.3572C10.2974 42.3572 10.2974 40.6307 13.4268 40.6307C16.5563 40.6307 16.5562 42.3572 19.6857 42.3572C22.8151 42.3572 22.815 40.6307 25.9445 40.6307C29.074 40.6307 29.0739 42.3572 32.2033 42.3572C35.3326 42.3572 35.3326 40.6307 38.4619 40.6307C40.3635 40.6307 41.11 41.2681 42.1049 41.7683V30.2715H42.105Z" fill="#FDCE6E"/>
<path d="M40.1631 35.2382C40.5206 35.2382 40.8105 34.9484 40.8105 34.5908C40.8105 34.2332 40.5206 33.9434 40.1631 33.9434C39.8055 33.9434 39.5156 34.2332 39.5156 34.5908C39.5156 34.9484 39.8055 35.2382 40.1631 35.2382Z" fill="#FDA162"/>
<path d="M37.5732 37.8281C37.9308 37.8281 38.2206 37.5382 38.2206 37.1806C38.2206 36.8231 37.9308 36.5332 37.5732 36.5332C37.2156 36.5332 36.9258 36.8231 36.9258 37.1806C36.9258 37.5382 37.2156 37.8281 37.5732 37.8281Z" fill="#FDA162"/>
<path d="M43.6432 15.3808H24.6513C24.2937 15.3808 24.0039 15.0909 24.0039 14.7334C24.0039 14.3758 24.2937 14.0859 24.6513 14.0859H43.6432C44.0008 14.0859 44.2906 14.3758 44.2906 14.7334C44.2907 15.0909 44.0009 15.3808 43.6432 15.3808Z" fill="#5389A9"/>
</svg>
