<svg width="40" height="40" viewBox="0 0 40 40" fill="none" xmlns="http://www.w3.org/2000/svg">
<rect width="40" height="40" rx="20" fill="#FFF1EF"/>
<path fill-rule="evenodd" clip-rule="evenodd" d="M12.8555 20.011C12.8555 16.2482 15.8626 12.8574 20.0126 12.8574C24.0698 12.8574 27.1412 16.1838 27.1412 19.9895C27.1412 24.4033 23.5412 27.1431 19.9983 27.1431C18.8269 27.1431 17.5269 26.8284 16.484 26.2132C16.1198 25.9914 15.8126 25.8269 15.4198 25.9556L13.9769 26.3849C13.6126 26.4993 13.284 26.2132 13.3912 25.8269L13.8698 24.2245C13.9483 24.0027 13.934 23.7666 13.8198 23.5806C13.2055 22.4504 12.8555 21.2128 12.8555 20.011ZM19.0709 20.011C19.0709 20.5189 19.478 20.9267 19.9852 20.9338C20.4923 20.9338 20.8994 20.5189 20.8994 20.0182C20.8994 19.5102 20.4923 19.1025 19.9852 19.1025C19.4852 19.0953 19.0709 19.5102 19.0709 20.011ZM22.3633 20.0181C22.3633 20.5188 22.7704 20.9337 23.2776 20.9337C23.7847 20.9337 24.1919 20.5188 24.1919 20.0181C24.1919 19.5102 23.7847 19.1024 23.2776 19.1024C22.7704 19.1024 22.3633 19.5102 22.3633 20.0181ZM16.6911 20.9339C16.1911 20.9339 15.7768 20.5189 15.7768 20.0182C15.7768 19.5103 16.1839 19.1025 16.6911 19.1025C17.1982 19.1025 17.6054 19.5103 17.6054 20.0182C17.6054 20.5189 17.1982 20.9267 16.6911 20.9339Z" fill="#FE806F"/>
</svg>
