<svg width="51" height="51" viewBox="0 0 51 51" fill="none" xmlns="http://www.w3.org/2000/svg">
<g clip-path="url(#clip0_1252_31127)">
<path d="M25.4453 50.3086C39.2524 50.3086 50.4453 39.1157 50.4453 25.3086C50.4453 11.5015 39.2524 0.308594 25.4453 0.308594C11.6382 0.308594 0.445312 11.5015 0.445312 25.3086C0.445312 39.1157 11.6382 50.3086 25.4453 50.3086Z" fill="#FD8469"/>
<path d="M50.4463 25.3087C50.4463 24.6766 50.4224 24.0499 50.3763 23.4296L34.1362 7.18945L18.9755 22.8408L15.8711 24.4381L20.4674 29.0344L19.8281 29.1293L24.5332 33.8344L37.2 47.3771C45.0816 43.1706 50.4463 34.8668 50.4463 25.3087Z" fill="#FC6F58"/>
<path d="M27.8957 31.5139V28.7969H22.9957V31.5139C22.9957 31.7307 22.8199 31.9064 22.6031 31.9064H19.2266V41.2825H31.6651V31.9064H28.2886C28.0714 31.9064 27.8957 31.7307 27.8957 31.5139Z" fill="#FED8B2"/>
<path d="M32.1999 31.9052H28.2243V31.3262H22.6687V31.9052H18.6932C15.5532 31.9052 13.0078 34.4506 13.0078 37.5905V46.9984C16.6713 49.1037 20.9183 50.3077 25.4466 50.3077C29.9749 50.3077 34.222 49.1037 37.8853 46.9984V37.5905C37.8853 34.4507 35.3398 31.9052 32.1999 31.9052Z" fill="#E6F3FF"/>
<path d="M32.199 31.9052H28.2234V31.3262H25.2773V50.3048C25.3336 50.3051 25.3893 50.3076 25.4455 50.3076C29.9738 50.3076 34.2209 49.1036 37.8842 46.9983V37.5904C37.8844 34.4507 35.339 31.9052 32.199 31.9052Z" fill="#CFDBE6"/>
<path d="M24.4048 31.3263L17.477 34.1351C17.2572 34.2241 17.1133 34.4378 17.1133 34.675V48.8822C17.5019 49.0196 17.8946 49.1482 18.2917 49.2666V35.4898C18.2917 35.2528 18.4353 35.0396 18.6547 34.9501L27.5587 31.3262H24.4048V31.3263Z" fill="#B8C9D9"/>
<path d="M17.302 25.0609C18.3834 25.0609 19.2602 24.1842 19.2602 23.1027C19.2602 22.0212 18.3834 21.1445 17.302 21.1445C16.2205 21.1445 15.3438 22.0212 15.3438 23.1027C15.3438 24.1842 16.2205 25.0609 17.302 25.0609Z" fill="#FED8B2"/>
<path d="M33.173 25.0609C34.2545 25.0609 35.1312 24.1842 35.1312 23.1027C35.1312 22.0212 34.2545 21.1445 33.173 21.1445C32.0916 21.1445 31.2148 22.0212 31.2148 23.1027C31.2148 24.1842 32.0916 25.0609 33.173 25.0609Z" fill="#EABE96"/>
<path d="M25.4566 31.259H25.0154C20.9338 31.259 17.625 27.9502 17.625 23.8686V17.1209C17.625 13.0393 20.9338 9.73047 25.0154 9.73047H25.4566C29.5383 9.73047 32.8471 13.0393 32.8471 17.1209V23.8686C32.8471 27.9503 29.5383 31.259 25.4566 31.259Z" fill="#F4E3C3"/>
<path d="M25.4575 9.73047H25.2773V31.2589H25.4575C29.5392 31.2589 32.8479 27.9501 32.8479 23.8685V17.1208C32.8479 13.0393 29.5392 9.73047 25.4575 9.73047Z" fill="#FED8B2"/>
<path d="M16.9727 16.832V17.4525V23.1046H18.1506V19.7899C18.1503 19.7899 18.1501 19.7899 18.1499 19.7899C20.4329 19.5579 22.691 19.1869 24.8276 18.5487V8.8125C20.4743 8.90273 16.9727 12.4573 16.9727 16.832Z" fill="#FFD15D"/>
<path d="M32.0461 12.2269C30.5947 10.1594 28.194 8.80664 25.4761 8.80664H24.997C24.9404 8.80664 24.8845 8.80967 24.8281 8.81084V18.5471C26.037 18.1859 27.2076 17.7403 28.3207 17.1838C29.4293 18.4568 30.7096 19.5938 32.1229 20.5159V23.1029H33.5V18.8775V16.8304C33.4999 15.1171 32.9612 13.5304 32.0461 12.2269Z" fill="#F9B54C"/>
<path d="M21.6479 22.9949C22.0682 22.9949 22.409 22.6542 22.409 22.2338C22.409 21.8134 22.0682 21.4727 21.6479 21.4727C21.2275 21.4727 20.8867 21.8134 20.8867 22.2338C20.8867 22.6542 21.2275 22.9949 21.6479 22.9949Z" fill="#59595B"/>
<path d="M28.8236 22.9949C29.244 22.9949 29.5848 22.6542 29.5848 22.2338C29.5848 21.8134 29.244 21.4727 28.8236 21.4727C28.4033 21.4727 28.0625 21.8134 28.0625 22.2338C28.0625 22.6542 28.4033 22.9949 28.8236 22.9949Z" fill="#272525"/>
<path d="M25.2367 28.4721C23.8653 28.4721 22.75 27.3565 22.75 25.9854C22.75 25.7528 22.9384 25.5645 23.1709 25.5645C23.4034 25.5645 23.5918 25.7528 23.5918 25.9854C23.5918 26.8924 24.3299 27.6303 25.2367 27.6303C26.1437 27.6303 26.8816 26.8922 26.8816 25.9854C26.8816 25.7528 27.07 25.5645 27.3025 25.5645C27.5351 25.5645 27.7234 25.7528 27.7234 25.9854C27.7236 27.3566 26.6081 28.4721 25.2367 28.4721Z" fill="#FD8469"/>
<path d="M27.7237 25.9854C27.7237 25.7528 27.5354 25.5645 27.3028 25.5645C27.0703 25.5645 26.8819 25.7528 26.8819 25.9854C26.8819 26.8788 26.1656 27.6065 25.2773 27.6283V28.4701C26.63 28.4481 27.7237 27.3429 27.7237 25.9854Z" fill="#FC6F58"/>
<path d="M28.2235 31.2852H22.668V32.127H28.2235V31.2852Z" fill="#A82116"/>
<path d="M21.4592 33.0217C20.4602 34.0207 19.9976 35.3524 20.0698 36.6601C21.3775 36.7323 22.7092 36.2696 23.7082 35.2707C24.7072 34.2717 25.1698 32.9399 25.0976 31.6323C23.7898 31.5601 22.4582 32.0228 21.4592 33.0217Z" fill="#C1321F"/>
<path d="M29.4309 33.0236C30.4299 34.0227 30.8925 35.3544 30.8202 36.662C29.5125 36.7343 28.1809 36.2716 27.1818 35.2727C26.1828 34.2736 25.7202 32.9419 25.7925 31.6343C27.1003 31.562 28.4319 32.0247 29.4309 33.0236Z" fill="#A82116"/>
<path d="M25.4458 33.0537C26.0501 33.0537 26.54 32.5638 26.54 31.9595C26.54 31.3551 26.0501 30.8652 25.4458 30.8652C24.8415 30.8652 24.3516 31.3551 24.3516 31.9595C24.3516 32.5638 24.8415 33.0537 25.4458 33.0537Z" fill="#A82116"/>
<path d="M25.4457 30.8633C25.3883 30.8633 25.3324 30.869 25.2773 30.8776V33.0377C25.3324 33.0463 25.3883 33.0521 25.4457 33.0521C26.0501 33.0521 26.5399 32.5621 26.5399 31.9578C26.5399 31.3535 26.0499 30.8633 25.4457 30.8633Z" fill="#991A14"/>
<path d="M21.2771 40.5445C21.6956 40.5445 22.0348 40.2053 22.0348 39.7869C22.0348 39.3685 21.6956 39.0293 21.2771 39.0293C20.8587 39.0293 20.5195 39.3685 20.5195 39.7869C20.5195 40.2053 20.8587 40.5445 21.2771 40.5445Z" fill="#B8C9D9"/>
<path d="M30.242 40.5445C30.6604 40.5445 30.9996 40.2053 30.9996 39.7869C30.9996 39.3685 30.6604 39.0293 30.242 39.0293C29.8236 39.0293 29.4844 39.3685 29.4844 39.7869C29.4844 40.2053 29.8236 40.5445 30.242 40.5445Z" fill="#A7B8C6"/>
<path d="M21.2771 46.2691C21.6956 46.2691 22.0348 45.9299 22.0348 45.5115C22.0348 45.0931 21.6956 44.7539 21.2771 44.7539C20.8587 44.7539 20.5195 45.0931 20.5195 45.5115C20.5195 45.9299 20.8587 46.2691 21.2771 46.2691Z" fill="#B8C9D9"/>
<path d="M30.242 46.2691C30.6604 46.2691 30.9996 45.9299 30.9996 45.5115C30.9996 45.0931 30.6604 44.7539 30.242 44.7539C29.8236 44.7539 29.4844 45.0931 29.4844 45.5115C29.4844 45.9299 29.8236 46.2691 30.242 46.2691Z" fill="#A7B8C6"/>
<path d="M33.612 17.6914H16.9453V20.4691H33.612V17.6914Z" fill="#B8C9D9"/>
<path d="M33.6106 17.6914H25.2773V20.4691H33.6106V17.6914Z" fill="#A7B8C6"/>
<path d="M41.6991 39.9555H41.5207C41.0109 39.9555 40.5977 39.5422 40.5977 39.0324V32.8848H42.6224V39.0324C42.6224 39.5422 42.209 39.9555 41.6991 39.9555Z" fill="#935635"/>
<path d="M40.5977 19.7539C40.5977 19.7539 44.3098 21.1567 43.9386 33.6428H40.5977V19.7539Z" fill="#E6F3FF"/>
<path d="M40.5977 19.7539V21.0164C41.6351 22.6046 42.9002 26.102 42.676 33.6429H43.9386C44.3097 21.1567 40.5977 19.7539 40.5977 19.7539Z" fill="#CFDBE6"/>
<path d="M35.2504 10.3048C35.2504 7.59688 33.0551 5.40156 30.3472 5.40156C29.7767 5.40156 29.2295 5.5 28.7202 5.6792C27.7863 4.90156 26.5858 4.43359 25.2756 4.43359C23.9653 4.43359 22.7648 4.90156 21.831 5.6792C21.3217 5.5001 20.7744 5.40156 20.204 5.40156C17.4961 5.40156 15.3008 7.59688 15.3008 10.3048C15.3008 11.76 15.9353 13.0666 16.9422 13.9646V20.2585H33.6089V13.9646C34.6157 13.0666 35.2504 11.76 35.2504 10.3048Z" fill="#E6F3FF"/>
<path d="M30.3487 5.40156C29.7782 5.40156 29.2311 5.5 28.7218 5.6792C27.7879 4.90176 26.5874 4.43359 25.2773 4.43359V20.2585H33.6106V13.9646C34.6176 13.0666 35.2521 11.76 35.2521 10.3048C35.252 7.59688 33.0566 5.40156 30.3487 5.40156Z" fill="#CFDBE6"/>
<path d="M33.6081 17.6895H16.9414V20.4672H33.6081V17.6895Z" fill="#B8C9D9"/>
<path d="M33.6106 17.6895H25.2773V20.4672H33.6106V17.6895Z" fill="#A7B8C6"/>
</g>
<defs>
<clipPath id="clip0_1252_31127">
<rect width="50" height="50" fill="white" transform="translate(0.445312 0.308594)"/>
</clipPath>
</defs>
</svg>
