<svg width="51" height="51" viewBox="0 0 51 51" fill="none" xmlns="http://www.w3.org/2000/svg">
<g clip-path="url(#clip0_1252_32177)">
<path d="M25.0977 50.4302C38.9048 50.4302 50.0977 39.2373 50.0977 25.4302C50.0977 11.6231 38.9048 0.430176 25.0977 0.430176C11.2905 0.430176 0.0976562 11.6231 0.0976562 25.4302C0.0976562 39.2373 11.2905 50.4302 25.0977 50.4302Z" fill="#FD8469"/>
<path d="M50.0986 25.4303C50.0986 24.7981 50.0747 24.1715 50.0286 23.5512L33.7886 7.31104L18.6278 22.9624L15.5234 24.5597L20.1197 29.156L19.4805 29.2509L24.1855 33.956L36.8523 47.4987C44.734 43.2922 50.0986 34.9884 50.0986 25.4303Z" fill="#FC6F58"/>
<path d="M27.548 31.6352V28.9182H22.648V31.6352C22.648 31.852 22.4723 32.0278 22.2555 32.0278H18.8789V41.4039H31.3175V32.0278H27.9409C27.7237 32.0278 27.548 31.852 27.548 31.6352Z" fill="#FED8B2"/>
<path d="M31.8522 32.0277H27.8767V31.4487H22.3211V32.0277H18.3455C15.2056 32.0277 12.6602 34.5731 12.6602 37.7131V47.121C16.3236 49.2263 20.5706 50.4303 25.0989 50.4303C29.6272 50.4303 33.8743 49.2263 37.5376 47.121V37.7131C37.5376 34.5732 34.9922 32.0277 31.8522 32.0277Z" fill="#E6F3FF"/>
<path d="M31.8514 32.0277H27.8758V31.4487H24.9297V50.4273C24.9859 50.4276 25.0416 50.4302 25.0979 50.4302C29.6262 50.4302 33.8732 49.2262 37.5365 47.1209V37.713C37.5367 34.5732 34.9913 32.0277 31.8514 32.0277Z" fill="#CFDBE6"/>
<path d="M24.0571 31.4488L17.1294 34.2576C16.9096 34.3467 16.7656 34.5604 16.7656 34.7976V49.0048C17.1542 49.1422 17.547 49.2708 17.944 49.3892V35.6124C17.944 35.3754 18.0876 35.1621 18.307 35.0727L27.211 31.4487H24.0571V31.4488Z" fill="#B8C9D9"/>
<path d="M16.9543 25.183C18.0358 25.183 18.9125 24.3063 18.9125 23.2248C18.9125 22.1433 18.0358 21.2666 16.9543 21.2666C15.8728 21.2666 14.9961 22.1433 14.9961 23.2248C14.9961 24.3063 15.8728 25.183 16.9543 25.183Z" fill="#FED8B2"/>
<path d="M32.8254 25.183C33.9069 25.183 34.7836 24.3063 34.7836 23.2248C34.7836 22.1433 33.9069 21.2666 32.8254 21.2666C31.7439 21.2666 30.8672 22.1433 30.8672 23.2248C30.8672 24.3063 31.7439 25.183 32.8254 25.183Z" fill="#EABE96"/>
<path d="M25.109 31.3801H24.6678C20.5861 31.3801 17.2773 28.0713 17.2773 23.9896V17.242C17.2773 13.1604 20.5861 9.85156 24.6678 9.85156H25.109C29.1906 9.85156 32.4994 13.1604 32.4994 17.242V23.9896C32.4994 28.0714 29.1906 31.3801 25.109 31.3801Z" fill="#F4E3C3"/>
<path d="M25.1099 9.85156H24.9297V31.38H25.1099C29.1915 31.38 32.5003 28.0712 32.5003 23.9896V17.2419C32.5003 13.1604 29.1915 9.85156 25.1099 9.85156Z" fill="#FED8B2"/>
<path d="M16.625 16.9526V17.5731V23.2252H17.8029V19.9105C17.8026 19.9105 17.8024 19.9105 17.8022 19.9105C20.0853 19.6785 22.3434 19.3075 24.48 18.6693V8.93311C20.1267 9.02334 16.625 12.5779 16.625 16.9526Z" fill="#FFD15D"/>
<path d="M31.6984 12.3489C30.2471 10.2814 27.8464 8.92871 25.1284 8.92871H24.6493C24.5928 8.92871 24.5368 8.93174 24.4805 8.93291V18.6691C25.6894 18.308 26.86 17.8624 27.973 17.3059C29.0816 18.5789 30.3619 19.7158 31.7752 20.638V23.225H33.1523V18.9996V16.9524C33.1522 15.2392 32.6136 13.6524 31.6984 12.3489Z" fill="#F9B54C"/>
<path d="M21.3002 23.1172C21.7206 23.1172 22.0613 22.7765 22.0613 22.3561C22.0613 21.9357 21.7206 21.595 21.3002 21.595C20.8798 21.595 20.5391 21.9357 20.5391 22.3561C20.5391 22.7765 20.8798 23.1172 21.3002 23.1172Z" fill="#59595B"/>
<path d="M28.476 23.1172C28.8963 23.1172 29.2371 22.7765 29.2371 22.3561C29.2371 21.9357 28.8963 21.595 28.476 21.595C28.0556 21.595 27.7148 21.9357 27.7148 22.3561C27.7148 22.7765 28.0556 23.1172 28.476 23.1172Z" fill="#272525"/>
<path d="M24.8891 28.5932C23.5177 28.5932 22.4023 27.4776 22.4023 26.1064C22.4023 25.8739 22.5907 25.6855 22.8232 25.6855C23.0558 25.6855 23.2441 25.8739 23.2441 26.1064C23.2441 27.0135 23.9822 27.7514 24.8891 27.7514C25.796 27.7514 26.534 27.0133 26.534 26.1064C26.534 25.8739 26.7224 25.6855 26.9549 25.6855C27.1874 25.6855 27.3758 25.8739 27.3758 26.1064C27.376 27.4777 26.2604 28.5932 24.8891 28.5932Z" fill="#FD8469"/>
<path d="M27.3761 26.1067C27.3761 25.8742 27.1877 25.6858 26.9552 25.6858C26.7227 25.6858 26.5343 25.8742 26.5343 26.1067C26.5343 27.0001 25.818 27.7279 24.9297 27.7497V28.5915C26.2823 28.5695 27.3761 27.4642 27.3761 26.1067Z" fill="#FC6F58"/>
<path d="M27.8759 31.4067H22.3203V32.2485H27.8759V31.4067Z" fill="#A82116"/>
<path d="M21.1115 33.144C20.1125 34.143 19.6499 35.4748 19.7222 36.7824C21.0299 36.8546 22.3615 36.3919 23.3605 35.393C24.3596 34.394 24.8222 33.0623 24.7499 31.7546C23.4422 31.6824 22.1105 32.1451 21.1115 33.144Z" fill="#C1321F"/>
<path d="M29.0832 33.145C30.0822 34.144 30.5448 35.4757 30.4726 36.7833C29.1648 36.8556 27.8332 36.3929 26.8342 35.394C25.8352 34.395 25.3726 33.0632 25.4448 31.7556C26.7526 31.6833 28.0843 32.146 29.0832 33.145Z" fill="#A82116"/>
<path d="M25.0981 33.175C25.7025 33.175 26.1924 32.6851 26.1924 32.0808C26.1924 31.4765 25.7025 30.9866 25.0981 30.9866C24.4938 30.9866 24.0039 31.4765 24.0039 32.0808C24.0039 32.6851 24.4938 33.175 25.0981 33.175Z" fill="#A82116"/>
<path d="M25.098 30.9856C25.0406 30.9856 24.9848 30.9914 24.9297 31V33.16C24.9848 33.1686 25.0406 33.1744 25.098 33.1744C25.7024 33.1744 26.1923 32.6844 26.1923 32.0801C26.1923 31.4758 25.7022 30.9856 25.098 30.9856Z" fill="#991A14"/>
<path d="M20.9295 40.6659C21.3479 40.6659 21.6871 40.3267 21.6871 39.9083C21.6871 39.4898 21.3479 39.1506 20.9295 39.1506C20.5111 39.1506 20.1719 39.4898 20.1719 39.9083C20.1719 40.3267 20.5111 40.6659 20.9295 40.6659Z" fill="#B8C9D9"/>
<path d="M29.8943 40.6659C30.3128 40.6659 30.652 40.3267 30.652 39.9083C30.652 39.4898 30.3128 39.1506 29.8943 39.1506C29.4759 39.1506 29.1367 39.4898 29.1367 39.9083C29.1367 40.3267 29.4759 40.6659 29.8943 40.6659Z" fill="#A7B8C6"/>
<path d="M20.9295 46.39C21.3479 46.39 21.6871 46.0508 21.6871 45.6324C21.6871 45.214 21.3479 44.8748 20.9295 44.8748C20.5111 44.8748 20.1719 45.214 20.1719 45.6324C20.1719 46.0508 20.5111 46.39 20.9295 46.39Z" fill="#B8C9D9"/>
<path d="M29.8943 46.39C30.3128 46.39 30.652 46.0508 30.652 45.6324C30.652 45.214 30.3128 44.8748 29.8943 44.8748C29.4759 44.8748 29.1367 45.214 29.1367 45.6324C29.1367 46.0508 29.4759 46.39 29.8943 46.39Z" fill="#A7B8C6"/>
<path d="M33.2644 17.8123H16.5977V20.59H33.2644V17.8123Z" fill="#B8C9D9"/>
<path d="M33.263 17.8123H24.9297V20.59H33.263V17.8123Z" fill="#A7B8C6"/>
<path d="M41.3515 40.0766H41.173C40.6633 40.0766 40.25 39.6633 40.25 39.1535V33.0059H42.2747V39.1535C42.2747 39.6633 41.8613 40.0766 41.3515 40.0766Z" fill="#935635"/>
<path d="M40.25 19.8748C40.25 19.8748 43.9621 21.2776 43.5909 33.7636H40.25V19.8748Z" fill="#E6F3FF"/>
<path d="M40.25 19.8748V21.1373C41.2874 22.7254 42.5525 26.2228 42.3283 33.7637H43.5909C43.962 21.2776 40.25 19.8748 40.25 19.8748Z" fill="#CFDBE6"/>
<path d="M34.9027 10.4261C34.9027 7.71821 32.7074 5.5229 29.9995 5.5229C29.429 5.5229 28.8818 5.62134 28.3726 5.80054C27.4387 5.0229 26.2382 4.55493 24.9279 4.55493C23.6177 4.55493 22.4172 5.0229 21.4833 5.80054C20.974 5.62144 20.4268 5.5229 19.8563 5.5229C17.1484 5.5229 14.9531 7.71821 14.9531 10.4261C14.9531 11.8813 15.5876 13.1879 16.5945 14.0859V20.3798H33.2612V14.0859C34.2681 13.1879 34.9027 11.8813 34.9027 10.4261Z" fill="#E6F3FF"/>
<path d="M30.0011 5.5229C29.4306 5.5229 28.8834 5.62134 28.3741 5.80054C27.4402 5.0231 26.2397 4.55493 24.9297 4.55493V20.3798H33.263V14.0859C34.2699 13.1879 34.9044 11.8813 34.9044 10.4261C34.9043 7.71821 32.709 5.5229 30.0011 5.5229Z" fill="#CFDBE6"/>
<path d="M33.2604 17.8115H16.5938V20.5893H33.2604V17.8115Z" fill="#B8C9D9"/>
<path d="M33.263 17.8115H24.9297V20.5893H33.263V17.8115Z" fill="#A7B8C6"/>
</g>
<defs>
<clipPath id="clip0_1252_32177">
<rect width="50" height="50" fill="white" transform="translate(0.0976562 0.430176)"/>
</clipPath>
</defs>
</svg>
