<svg width="50" height="50" viewBox="0 0 50 50" fill="none" xmlns="http://www.w3.org/2000/svg">
<path d="M22.6523 20.9883C22.6523 20.9883 22.4453 20.3906 21.9961 20.1836C21.5508 19.9766 20.8047 19.9453 20.8047 19.9453L19.5547 34.7305L20.5703 42.0273C20.5703 42.0273 20.8672 42.8906 21.6445 42.9219C22.418 42.9531 28.8594 42.9219 29.4258 42.9219C29.9922 42.9219 30.1719 42.1758 30.1992 41.8477C30.2305 41.5195 30.2188 40.9687 30.2188 40.9687L32.9688 40.957C32.9688 40.957 33.1289 42.1289 32.8633 42.8672C32.6328 43.5078 32.4258 44.0195 32.4297 44.2383C32.4336 44.5508 32.8477 44.8633 33.3242 44.8359C33.8008 44.8047 34.5156 44.1797 34.9922 43.793C35.4688 43.4062 43.1094 43.4961 43.1094 43.4961C43.1094 43.4961 43.4766 44.1758 43.8867 44.5859C44.1328 44.832 44.5312 44.9531 44.8906 44.9531C45.25 44.9531 45.6953 44.4766 45.6055 44.1484C45.5156 43.8203 45.1094 43.0664 45.0391 42.332C45.0078 42 45.0469 41.0742 45.2109 40.9219C45.25 40.8867 45.8438 40.9062 46.3984 40.8477C47.3438 40.75 48.2891 39.5273 48.4062 38.5742C48.5273 37.6211 48.4375 34.6094 48.4375 34.6094L22.6523 20.9883Z" fill="#B3AFAF"/>
<path d="M20.3203 37.543H48.457C48.457 37.543 48.5234 38.332 48.3867 38.8398C48.3142 39.1094 48.1909 39.3626 48.0234 39.5859L20.4805 39.582L20.3203 37.543Z" fill="#9A9A9A"/>
<path d="M10.4492 36.2656L4.49219 38.1094L1.51562 37.082C1.51562 37.082 1.62109 31.4805 1.65625 30.9141C1.69141 30.3477 1.83203 29.8516 2.36719 29.4961C2.89844 29.1406 4.38672 28.2539 4.38672 28.2539C4.38672 28.2539 8.96094 20.9141 9.35156 20.3828C9.74219 19.8516 10.2227 19.2031 11.3594 19.0977C12.4961 18.9922 19.5117 19.0781 20.1484 19.1133C20.7852 19.1485 21.2617 19.4375 21.2617 20.8203C21.2617 22.2031 21.2266 32.7578 21.1914 33.2891C21.1562 33.8203 18.4961 35.7695 18.4961 35.7695L10.4492 36.2656Z" fill="#E0E0E0"/>
<path d="M19.1226 42.9805C19.1226 42.9805 19.6929 42.9961 20.0874 42.9414C20.4819 42.8867 21.0757 42.4922 21.103 41.5586C21.1187 41.0039 21.1929 33.2891 21.1929 33.2891L10.5679 33.3125L7.13037 37.0742L1.51709 37.082C1.51709 37.082 1.49365 39.2891 1.50928 39.8789C1.5249 40.4727 4.57959 41.7656 4.57959 41.7656L19.1226 42.9805Z" fill="#DC0D28"/>
<path d="M1.50708 39.8795H7.90551C7.90551 39.8795 9.27661 37.1451 13.218 37.192C19.0071 37.2623 19.1243 42.9772 19.1243 42.9772H4.04614C3.19848 42.9772 1.98754 42.6959 1.67895 41.6256C1.41723 40.7272 1.50708 39.8795 1.50708 39.8795Z" fill="#B10A1B"/>
<path d="M5.42811 29.7886C5.42811 29.7886 5.42811 29.1518 5.01014 29.1284C4.59217 29.105 4.13123 29.3667 3.71326 29.7222C3.27186 30.0972 3.05311 30.437 2.96717 30.7339C2.83436 31.1753 2.94373 31.5698 3.62733 31.5893C4.46326 31.6167 17.7367 31.5308 18.35 31.48C19.1195 31.4136 19.5805 31.0854 19.557 30.5112C19.5375 29.9604 19.139 29.7847 17.4906 29.7651C15.8422 29.7456 5.42811 29.7886 5.42811 29.7886Z" fill="white"/>
<path d="M1.64062 31.6506C1.64062 31.6506 5.62891 31.5256 5.71484 31.6232C5.83594 31.7678 5.85938 33.6506 5.81641 33.9357C5.77344 34.2209 5.39844 34.4201 4.9375 34.4396C4.47656 34.4592 1.57422 34.506 1.57422 34.506L1.64062 31.6506Z" fill="#FDEDC5"/>
<path d="M18.0636 29.1067C18.6808 29.1067 18.8995 28.4036 18.8995 27.9192V21.7903C18.8995 21.3059 18.5909 21.0442 17.6261 20.9973C16.6573 20.9544 12.2433 21.0052 11.7589 21.0208C11.0128 21.0442 10.505 21.3723 9.8253 22.3177C9.38389 22.9309 6.66123 27.4388 6.44248 27.8098C6.22373 28.1848 5.95811 29.1731 7.10264 29.1927C8.28623 29.2161 18.0636 29.1067 18.0636 29.1067Z" fill="#5F6369"/>
<path d="M7.66797 28.0725H17.5117C17.7109 28.0725 17.8867 27.8538 17.8867 27.5881C17.8867 27.3225 17.9023 23.1741 17.9102 22.928C17.9336 22.2483 17.4258 22.092 16.9883 22.1155C16.5469 22.1389 12.1016 22.1233 11.8398 22.135C11.3359 22.1585 10.8359 22.8342 10.3984 23.5022C9.87109 24.3108 7.66797 28.0725 7.66797 28.0725Z" fill="#AFE3FB"/>
<path d="M7.82085 28.8008C7.86382 29.7891 9.44585 30.6016 9.84429 30.625C10.2388 30.6484 10.481 29.8789 10.524 28.8437C10.5669 27.8086 10.1529 26.9531 9.82085 26.9531C9.49272 26.9531 7.78569 27.9648 7.82085 28.8008Z" fill="#5F6369"/>
<path d="M8.16474 43.6004C8.19599 45.5536 9.75068 48.3622 13.1335 48.3817C16.5163 48.4012 18.2741 45.8075 18.1647 43.1473C18.0554 40.4442 15.9577 38.534 12.9382 38.62C10.114 38.7059 8.12178 40.9012 8.16474 43.6004Z" fill="#4E433D"/>
<path d="M10.5823 43.4887C10.5979 44.516 11.4143 46.0004 13.1956 46.0121C14.9768 46.0238 15.8362 44.7348 15.7815 43.3324C15.7229 41.9066 14.5862 40.8441 13.094 40.8676C11.6096 40.8871 10.5628 42.0629 10.5823 43.4887Z" fill="#C8C8C8"/>
<path d="M33.946 43.6004C33.9772 45.5536 35.5319 48.3622 38.9147 48.3817C42.2976 48.4012 44.0554 45.8075 43.946 43.1473C43.8366 40.4442 41.739 38.534 38.7194 38.62C35.8952 38.7059 33.903 40.9012 33.946 43.6004Z" fill="#4E433D"/>
<path d="M36.3636 43.4887C36.3792 44.516 37.1956 46.0004 38.9768 46.0121C40.7542 46.0238 41.6175 44.7348 41.5628 43.3324C41.5042 41.9066 40.3675 40.8441 38.8753 40.8676C37.3909 40.8871 36.344 42.0629 36.3636 43.4887Z" fill="#C8C8C8"/>
<path d="M22.2148 11.1797C22.2148 10.1563 22.6641 9.74609 23.4844 9.78906C24.3047 9.82812 46.7852 9.70703 47.5195 9.70703C48.2539 9.70703 48.543 10.4844 48.543 10.9336C48.543 11.3828 48.4023 34.1719 48.4336 34.6133C48.4609 35.0547 48.3398 35.668 47.5625 35.75C46.7852 35.832 23.7305 35.7891 23.2383 35.75C22.7461 35.7109 22.1328 35.3008 22.1328 34.7266C22.1328 34.1484 22.2148 11.7109 22.2148 11.1797Z" fill="#D16E1D"/>
<path d="M24.2617 12.0781C24.2617 12.6094 24.0977 32.5117 24.0977 33.0039C24.0977 33.4961 24.3438 34.0703 25 34.0703C25.6563 34.0703 45.8008 34.1094 46.2109 34.0703C46.6211 34.0312 46.8672 33.7852 46.9063 33.1289C46.9453 32.4727 46.9453 12.4922 46.9453 11.8359C46.9453 11.1797 46.2891 11.1406 45.5938 11.1406C44.8984 11.1406 25.2031 11.1797 24.9141 11.2227C24.6289 11.2578 24.2617 11.5469 24.2617 12.0781Z" fill="#F5B03A"/>
<path d="M29.084 34.7656C29.0606 27.5586 29.0098 10.75 29.0918 10.293L29.67 10.3984L30.252 10.4687C30.1973 11.1133 30.2246 25.3477 30.2559 34.7617L29.084 34.7656Z" fill="#D16E1D"/>
<path d="M35.0586 10.3594H36.2305V34.8047H35.0586V10.3594Z" fill="#D16E1D"/>
<path d="M40.9727 10.3789H42.1445V34.7031H40.9727V10.3789Z" fill="#D16E1D"/>
</svg>
