<svg width="235" height="225" viewBox="0 0 235 225" fill="none" xmlns="http://www.w3.org/2000/svg">
<g filter="url(#filter0_d_171_2467)">
<circle cx="105.359" cy="116.683" r="90" fill="#F6F8FB"/>
</g>
<mask id="mask0_171_2467" style="mask-type:alpha" maskUnits="userSpaceOnUse" x="15" y="26" width="181" height="181">
<circle cx="105.359" cy="116.684" r="90" fill="#F6F8FB"/>
</mask>
<g mask="url(#mask0_171_2467)">
<mask id="mask1_171_2467" style="mask-type:alpha" maskUnits="userSpaceOnUse" x="15" y="26" width="181" height="181">
<circle cx="105.359" cy="116.684" r="90" fill="#F6F8FB"/>
</mask>
<g mask="url(#mask1_171_2467)">
<g filter="url(#filter1_d_171_2467)">
<rect x="41.6094" y="60.4336" width="127.5" height="146.25" rx="15" fill="white"/>
</g>
<rect x="50.6094" y="75.4336" width="109.5" height="26.25" rx="6" fill="#F4F6FA"/>
<circle cx="146.609" cy="88.9336" r="4.5" fill="#DFE2E8"/>
<circle cx="63.7344" cy="88.5586" r="8.625" fill="#FE725F"/>
<rect x="76.8594" y="82.9336" width="21" height="3.75" rx="1.875" fill="#E0E2E8"/>
<rect x="76.8594" y="89.6836" width="45" height="4.5" rx="2.25" fill="#E0E2E8"/>
<rect x="50.6094" y="157.184" width="109.5" height="26.25" rx="6" fill="#F4F6FA"/>
<circle cx="146.609" cy="170.684" r="4.5" fill="#DFE2E8"/>
<circle cx="63.7344" cy="170.309" r="8.625" fill="#FE725F"/>
<rect x="76.8594" y="164.684" width="21" height="3.75" rx="1.875" fill="#E0E2E8"/>
<rect x="76.8594" y="171.434" width="45" height="4.5" rx="2.25" fill="#E0E2E8"/>
<rect x="50.6094" y="192.434" width="109.5" height="26.25" rx="6" fill="#F4F6FA"/>
<circle cx="146.609" cy="205.934" r="4.5" fill="#DFE2E8"/>
<circle cx="63.7344" cy="205.559" r="8.625" fill="#FE725F"/>
<rect x="76.8594" y="199.934" width="21" height="3.75" rx="1.875" fill="#E0E2E8"/>
<g filter="url(#filter2_d_171_2467)">
<rect x="30.3594" y="110.684" width="150" height="37.5" rx="9" fill="#636B81"/>
</g>
<rect x="157.859" y="121.934" width="15" height="15" rx="6" fill="#FE725F"/>
<rect x="70.1094" y="131.684" width="15" height="9" rx="4.5" fill="#E0E2E8"/>
<rect x="86.6094" y="131.684" width="15" height="9" rx="4.5" fill="#E0E2E8"/>
<rect x="103.109" y="131.684" width="15" height="9" rx="4.5" fill="#E0E2E8"/>
<rect x="119.609" y="131.684" width="15" height="9" rx="4.5" fill="#E0E2E8"/>
<rect x="37.8594" y="131.684" width="27.75" height="9" rx="4.5" fill="#E0E2E8"/>
<rect x="37.8594" y="118.184" width="43.5" height="9" rx="4.5" fill="#E0E2E8"/>
</g>
</g>
<g filter="url(#filter3_d_171_2467)">
<mask id="path-27-outside-1_171_2467" maskUnits="userSpaceOnUse" x="133.609" y="143.434" width="11" height="13" fill="black">
<rect fill="white" x="133.609" y="143.434" width="11" height="13"/>
<path fill-rule="evenodd" clip-rule="evenodd" d="M136.978 150.61L136.431 149.773C136.057 149.202 135.26 148.994 134.651 149.307L134.793 149.234C134.642 149.312 134.569 149.505 134.632 149.666L135.39 151.628C135.51 151.938 135.817 152.378 136.071 152.599C136.071 152.599 137.596 153.861 137.596 154.334V154.934H140.067L140.684 153.698L141.302 154.934H141.92V154.334C141.92 153.861 142.851 152.371 142.851 152.371C143.023 152.081 143.166 151.571 143.166 151.232V148.74C143.155 148.188 142.686 147.741 142.107 147.741C141.818 147.741 141.583 147.964 141.583 148.24V148.44C141.583 147.888 141.114 147.441 140.535 147.441C140.246 147.441 140.011 147.665 140.011 147.941V148.14C140.011 147.589 139.542 147.141 138.964 147.141C138.674 147.141 138.44 147.365 138.44 147.641V147.841C138.44 147.752 138.43 147.681 138.412 147.626L138.252 145.052C138.23 144.704 137.937 144.434 137.596 144.434C137.253 144.434 136.978 144.71 136.978 145.051V147.522V150.61ZM141.313 149.992H141.931V152.463H141.313V149.992ZM140.078 149.992H140.696V152.463H140.078V149.992ZM138.843 149.992H139.46V152.463H138.843V149.992Z"/>
</mask>
<path fill-rule="evenodd" clip-rule="evenodd" d="M136.978 150.61L136.431 149.773C136.057 149.202 135.26 148.994 134.651 149.307L134.793 149.234C134.642 149.312 134.569 149.505 134.632 149.666L135.39 151.628C135.51 151.938 135.817 152.378 136.071 152.599C136.071 152.599 137.596 153.861 137.596 154.334V154.934H140.067L140.684 153.698L141.302 154.934H141.92V154.334C141.92 153.861 142.851 152.371 142.851 152.371C143.023 152.081 143.166 151.571 143.166 151.232V148.74C143.155 148.188 142.686 147.741 142.107 147.741C141.818 147.741 141.583 147.964 141.583 148.24V148.44C141.583 147.888 141.114 147.441 140.535 147.441C140.246 147.441 140.011 147.665 140.011 147.941V148.14C140.011 147.589 139.542 147.141 138.964 147.141C138.674 147.141 138.44 147.365 138.44 147.641V147.841C138.44 147.752 138.43 147.681 138.412 147.626L138.252 145.052C138.23 144.704 137.937 144.434 137.596 144.434C137.253 144.434 136.978 144.71 136.978 145.051V147.522V150.61ZM141.313 149.992H141.931V152.463H141.313V149.992ZM140.078 149.992H140.696V152.463H140.078V149.992ZM138.843 149.992H139.46V152.463H138.843V149.992Z" fill="white"/>
<path d="M136.978 150.61L136.351 151.021L137.728 153.126V150.61H136.978ZM136.431 149.773L137.058 149.363L136.431 149.773ZM134.632 149.666L133.932 149.937L134.632 149.666ZM135.39 151.628L136.089 151.357L135.39 151.628ZM136.071 152.599L135.579 153.165L135.586 153.171L135.593 153.177L136.071 152.599ZM137.596 154.934H136.846V155.684H137.596V154.934ZM140.067 154.934V155.684H140.53L140.737 155.269L140.067 154.934ZM140.684 153.698L141.355 153.363L140.684 152.021L140.013 153.363L140.684 153.698ZM141.302 154.934L140.631 155.269L140.838 155.684H141.302V154.934ZM141.92 154.934V155.684H142.67V154.934H141.92ZM142.851 152.371L143.487 152.768L143.492 152.761L143.497 152.753L142.851 152.371ZM143.166 148.74H143.916V148.732L143.916 148.725L143.166 148.74ZM138.412 147.626L137.663 147.672L137.669 147.768L137.699 147.859L138.412 147.626ZM138.252 145.052L137.504 145.098L138.252 145.052ZM136.978 145.051H136.228H136.978ZM141.931 149.992H142.681V149.242H141.931V149.992ZM141.931 152.463V153.213H142.681V152.463H141.931ZM141.313 152.463H140.563V153.213H141.313V152.463ZM140.696 149.992H141.446V149.242H140.696V149.992ZM140.696 152.463V153.213H141.446V152.463H140.696ZM140.078 152.463H139.328V153.213H140.078V152.463ZM139.46 149.992H140.21V149.242H139.46V149.992ZM139.46 152.463V153.213H140.21V152.463H139.46ZM138.843 152.463H138.093V153.213H138.843V152.463ZM137.606 150.199L137.058 149.363L135.803 150.184L136.351 151.021L137.606 150.199ZM137.058 149.363C136.473 148.468 135.257 148.152 134.308 148.64L134.994 149.974C135.264 149.835 135.641 149.936 135.803 150.184L137.058 149.363ZM134.994 149.974L135.136 149.901L134.45 148.567L134.308 148.64L134.994 149.974ZM134.45 148.567C133.951 148.824 133.735 149.426 133.932 149.937L135.331 149.396C135.372 149.502 135.364 149.603 135.335 149.681C135.306 149.759 135.244 149.846 135.136 149.901L134.45 148.567ZM133.932 149.937L134.69 151.898L136.089 151.357L135.331 149.396L133.932 149.937ZM134.69 151.898C134.854 152.322 135.232 152.863 135.579 153.165L136.563 152.033C136.402 151.893 136.166 151.555 136.089 151.357L134.69 151.898ZM136.071 152.599C135.593 153.177 135.593 153.177 135.593 153.177C135.593 153.177 135.593 153.177 135.593 153.177C135.593 153.177 135.593 153.177 135.593 153.177C135.593 153.177 135.593 153.177 135.593 153.177C135.594 153.177 135.594 153.178 135.596 153.179C135.598 153.181 135.602 153.184 135.606 153.188C135.616 153.197 135.631 153.209 135.651 153.226C135.69 153.259 135.746 153.307 135.814 153.367C135.951 153.487 136.13 153.65 136.308 153.824C136.489 154.002 136.652 154.177 136.764 154.322C136.821 154.396 136.852 154.445 136.866 154.471C136.887 154.512 136.846 154.455 136.846 154.334H138.346C138.346 154.095 138.257 153.895 138.195 153.777C138.126 153.643 138.037 153.516 137.951 153.405C137.778 153.181 137.56 152.951 137.359 152.754C137.156 152.554 136.954 152.372 136.805 152.24C136.73 152.174 136.667 152.121 136.622 152.083C136.6 152.064 136.582 152.049 136.57 152.039C136.564 152.033 136.559 152.029 136.555 152.026C136.554 152.025 136.552 152.024 136.551 152.023C136.551 152.023 136.55 152.022 136.55 152.022C136.55 152.022 136.55 152.022 136.55 152.022C136.55 152.022 136.549 152.021 136.549 152.021C136.549 152.021 136.549 152.021 136.071 152.599ZM136.846 154.334V154.934H138.346V154.334H136.846ZM137.596 155.684H140.067V154.184H137.596V155.684ZM140.737 155.269L141.355 154.034L140.013 153.363L139.396 154.598L140.737 155.269ZM140.013 154.034L140.631 155.269L141.973 154.598L141.355 153.363L140.013 154.034ZM141.302 155.684H141.92V154.184H141.302V155.684ZM142.67 154.934V154.334H141.17V154.934H142.67ZM142.67 154.334C142.67 154.387 142.665 154.334 142.756 154.121C142.83 153.945 142.934 153.738 143.046 153.531C143.156 153.327 143.267 153.135 143.351 152.994C143.393 152.924 143.427 152.866 143.451 152.827C143.463 152.807 143.473 152.792 143.479 152.782C143.482 152.777 143.484 152.774 143.486 152.771C143.486 152.77 143.487 152.769 143.487 152.769C143.487 152.769 143.487 152.768 143.487 152.768C143.487 152.768 143.488 152.768 143.487 152.768C143.487 152.768 143.487 152.768 143.487 152.768C143.487 152.768 143.487 152.768 142.851 152.371C142.216 151.973 142.216 151.973 142.216 151.973C142.215 151.973 142.215 151.973 142.215 151.973C142.215 151.974 142.215 151.974 142.215 151.974C142.215 151.974 142.215 151.974 142.214 151.975C142.214 151.976 142.213 151.977 142.212 151.979C142.21 151.982 142.207 151.987 142.203 151.993C142.196 152.005 142.185 152.022 142.172 152.045C142.145 152.089 142.107 152.151 142.061 152.228C141.97 152.381 141.848 152.591 141.725 152.819C141.604 153.044 141.475 153.298 141.375 153.536C141.29 153.734 141.17 154.046 141.17 154.334H142.67ZM143.497 152.753C143.627 152.533 143.727 152.267 143.796 152.02C143.864 151.774 143.916 151.491 143.916 151.232H142.416C142.416 151.311 142.397 151.453 142.35 151.619C142.304 151.785 142.248 151.918 142.206 151.989L143.497 152.753ZM143.916 151.232V148.74H142.416V151.232H143.916ZM143.916 148.725C143.896 147.74 143.07 146.991 142.107 146.991V148.491C142.302 148.491 142.414 148.635 142.416 148.755L143.916 148.725ZM142.107 146.991C141.438 146.991 140.833 147.517 140.833 148.24H142.333C142.333 148.412 142.198 148.491 142.107 148.491V146.991ZM140.833 148.24V148.44H142.333V148.24H140.833ZM142.333 148.44C142.333 147.441 141.494 146.691 140.535 146.691V148.191C140.734 148.191 140.833 148.336 140.833 148.44H142.333ZM140.535 146.691C139.866 146.691 139.261 147.217 139.261 147.941H140.761C140.761 148.112 140.626 148.191 140.535 148.191V146.691ZM139.261 147.941V148.14H140.761V147.941H139.261ZM140.761 148.14C140.761 147.141 139.923 146.391 138.964 146.391V147.891C139.162 147.891 139.261 148.036 139.261 148.14H140.761ZM138.964 146.391C138.294 146.391 137.69 146.917 137.69 147.641H139.19C139.19 147.813 139.054 147.891 138.964 147.891V146.391ZM137.69 147.641V147.841H139.19V147.641H137.69ZM139.19 147.841C139.19 147.704 139.176 147.548 139.125 147.392L137.699 147.859C137.691 147.835 137.689 147.82 137.689 147.818C137.689 147.816 137.69 147.822 137.69 147.841H139.19ZM139.16 147.579L139.001 145.006L137.504 145.098L137.663 147.672L139.16 147.579ZM139.001 145.006C138.954 144.259 138.331 143.684 137.596 143.684V145.184C137.566 145.184 137.544 145.172 137.531 145.16C137.518 145.147 137.505 145.126 137.504 145.098L139.001 145.006ZM137.596 143.684C136.837 143.684 136.228 144.298 136.228 145.051H137.728C137.728 145.123 137.669 145.184 137.596 145.184V143.684ZM136.228 145.051V147.522H137.728V145.051H136.228ZM136.228 147.522V150.61H137.728V147.522H136.228ZM141.313 150.742H141.931L141.931 149.242H141.313V150.742ZM141.181 149.992V152.463H142.681V149.992H141.181ZM141.931 151.713H141.313V153.213H141.931V151.713ZM142.063 152.463V149.992H140.563V152.463H142.063ZM140.078 150.742H140.696V149.242H140.078V150.742ZM139.946 149.992V152.463H141.446V149.992H139.946ZM140.696 151.713H140.078V153.213H140.696V151.713ZM140.828 152.463V149.992H139.328V152.463H140.828ZM138.843 150.742H139.46L139.46 149.242H138.843V150.742ZM138.71 149.992V152.463H140.21V149.992H138.71ZM139.46 151.713H138.843V153.213H139.46V151.713ZM139.593 152.463V149.992H138.093V152.463H139.593Z" fill="black" fill-opacity="0.8" mask="url(#path-27-outside-1_171_2467)"/>
</g>
<g filter="url(#filter4_d_171_2467)">
<circle cx="176.609" cy="55.1836" r="12.75" fill="white"/>
</g>
<path d="M177.671 58.1676C177.588 58.1676 177.505 58.137 177.439 58.0713C177.312 57.9445 177.312 57.7345 177.439 57.6076L179.863 55.1838L177.439 52.7601C177.312 52.6332 177.312 52.4232 177.439 52.2963C177.566 52.1695 177.776 52.1695 177.903 52.2963L180.558 54.952C180.685 55.0788 180.685 55.2888 180.558 55.4157L177.903 58.0713C177.837 58.137 177.754 58.1676 177.671 58.1676Z" fill="#636B81"/>
<path d="M180.254 55.5117H172.891C172.711 55.5117 172.562 55.363 172.562 55.1836C172.562 55.0042 172.711 54.8555 172.891 54.8555H180.254C180.433 54.8555 180.582 55.0042 180.582 55.1836C180.582 55.363 180.433 55.5117 180.254 55.5117Z" fill="#636B81"/>
<circle cx="19.4754" cy="197.302" r="1.86837" transform="rotate(180 19.4754 197.302)" fill="#F1F3F7"/>
<path d="M26.8077 186.941L25.4233 188.326L24.4223 187.325L25.8068 185.941L24.2421 184.376L25.2967 183.321L26.8614 184.886L28.2496 183.498L29.2505 184.499L27.8623 185.887L29.3618 187.386L28.3071 188.441L26.8077 186.941Z" fill="#FE725F"/>
<circle cx="1.86837" cy="1.86837" r="1.86837" transform="matrix(1 0 0 -1 48.7656 33.4199)" fill="#C1CBD4"/>
<circle cx="1.86837" cy="1.86837" r="1.86837" transform="matrix(1 0 0 -1 28.5156 37.1699)" fill="#F1F3F7"/>
<path d="M26.8017 57.1914L28.1861 58.5759L29.187 57.5749L27.8026 56.1905L29.3673 54.6259L28.3127 53.5713L26.748 55.1359L25.3598 53.7477L24.3588 54.7486L25.7471 56.1368L24.2476 57.6363L25.3022 58.6909L26.8017 57.1914Z" fill="#FE725F"/>
<circle cx="193.491" cy="204.814" r="1.86837" transform="rotate(180 193.491 204.814)" fill="#C1CBD4"/>
<circle cx="164.975" cy="201.052" r="1.86837" transform="rotate(180 164.975 201.052)" fill="#F1F3F7"/>
<defs>
<filter id="filter0_d_171_2467" x="0.359375" y="14.6826" width="210" height="210" filterUnits="userSpaceOnUse" color-interpolation-filters="sRGB">
<feFlood flood-opacity="0" result="BackgroundImageFix"/>
<feColorMatrix in="SourceAlpha" type="matrix" values="0 0 0 0 0 0 0 0 0 0 0 0 0 0 0 0 0 0 127 0" result="hardAlpha"/>
<feOffset dy="3"/>
<feGaussianBlur stdDeviation="7.5"/>
<feComposite in2="hardAlpha" operator="out"/>
<feColorMatrix type="matrix" values="0 0 0 0 0.905882 0 0 0 0 0.933333 0 0 0 0 0.984314 0 0 0 0.15 0"/>
<feBlend mode="normal" in2="BackgroundImageFix" result="effect1_dropShadow_171_2467"/>
<feBlend mode="normal" in="SourceGraphic" in2="effect1_dropShadow_171_2467" result="shape"/>
</filter>
<filter id="filter1_d_171_2467" x="-33.3906" y="-11.5664" width="277.5" height="296.25" filterUnits="userSpaceOnUse" color-interpolation-filters="sRGB">
<feFlood flood-opacity="0" result="BackgroundImageFix"/>
<feColorMatrix in="SourceAlpha" type="matrix" values="0 0 0 0 0 0 0 0 0 0 0 0 0 0 0 0 0 0 127 0" result="hardAlpha"/>
<feOffset dy="3"/>
<feGaussianBlur stdDeviation="37.5"/>
<feComposite in2="hardAlpha" operator="out"/>
<feColorMatrix type="matrix" values="0 0 0 0 0.388235 0 0 0 0 0.419608 0 0 0 0 0.505882 0 0 0 0.15 0"/>
<feBlend mode="normal" in2="BackgroundImageFix" result="effect1_dropShadow_171_2467"/>
<feBlend mode="normal" in="SourceGraphic" in2="effect1_dropShadow_171_2467" result="shape"/>
</filter>
<filter id="filter2_d_171_2467" x="-44.6406" y="38.6836" width="300" height="187.5" filterUnits="userSpaceOnUse" color-interpolation-filters="sRGB">
<feFlood flood-opacity="0" result="BackgroundImageFix"/>
<feColorMatrix in="SourceAlpha" type="matrix" values="0 0 0 0 0 0 0 0 0 0 0 0 0 0 0 0 0 0 127 0" result="hardAlpha"/>
<feOffset dy="3"/>
<feGaussianBlur stdDeviation="37.5"/>
<feComposite in2="hardAlpha" operator="out"/>
<feColorMatrix type="matrix" values="0 0 0 0 0.388235 0 0 0 0 0.419608 0 0 0 0 0.505882 0 0 0 0.15 0"/>
<feBlend mode="normal" in2="BackgroundImageFix" result="effect1_dropShadow_171_2467"/>
<feBlend mode="normal" in="SourceGraphic" in2="effect1_dropShadow_171_2467" result="shape"/>
</filter>
<filter id="filter3_d_171_2467" x="131.609" y="142.184" width="14.5586" height="16.5" filterUnits="userSpaceOnUse" color-interpolation-filters="sRGB">
<feFlood flood-opacity="0" result="BackgroundImageFix"/>
<feColorMatrix in="SourceAlpha" type="matrix" values="0 0 0 0 0 0 0 0 0 0 0 0 0 0 0 0 0 0 127 0" result="hardAlpha"/>
<feOffset dy="0.75"/>
<feGaussianBlur stdDeviation="1.125"/>
<feColorMatrix type="matrix" values="0 0 0 0 0 0 0 0 0 0 0 0 0 0 0 0 0 0 0.2 0"/>
<feBlend mode="normal" in2="BackgroundImageFix" result="effect1_dropShadow_171_2467"/>
<feBlend mode="normal" in="SourceGraphic" in2="effect1_dropShadow_171_2467" result="shape"/>
</filter>
<filter id="filter4_d_171_2467" x="118.859" y="0.433594" width="115.5" height="115.5" filterUnits="userSpaceOnUse" color-interpolation-filters="sRGB">
<feFlood flood-opacity="0" result="BackgroundImageFix"/>
<feColorMatrix in="SourceAlpha" type="matrix" values="0 0 0 0 0 0 0 0 0 0 0 0 0 0 0 0 0 0 127 0" result="hardAlpha"/>
<feOffset dy="3"/>
<feGaussianBlur stdDeviation="22.5"/>
<feComposite in2="hardAlpha" operator="out"/>
<feColorMatrix type="matrix" values="0 0 0 0 0.388235 0 0 0 0 0.419608 0 0 0 0 0.505882 0 0 0 0.25 0"/>
<feBlend mode="normal" in2="BackgroundImageFix" result="effect1_dropShadow_171_2467"/>
<feBlend mode="normal" in="SourceGraphic" in2="effect1_dropShadow_171_2467" result="shape"/>
</filter>
</defs>
</svg>
