<svg width="51" height="51" viewBox="0 0 51 51" fill="none" xmlns="http://www.w3.org/2000/svg">
<path d="M2.25781 25.3086C2.25781 28.3864 2.86404 31.4342 4.04189 34.2777C5.21973 37.1213 6.94612 39.705 9.1225 41.8814C11.2989 44.0578 13.8826 45.7842 16.7262 46.962C19.5697 48.1399 22.6175 48.7461 25.6953 48.7461C28.7732 48.7461 31.8209 48.1399 34.6645 46.962C37.508 45.7842 40.0918 44.0578 42.2681 41.8814C44.4445 39.705 46.1709 37.1213 47.3487 34.2777C48.5266 31.4342 49.1328 28.3864 49.1328 25.3086C49.1328 22.2307 48.5266 19.183 47.3487 16.3395C46.1709 13.4959 44.4445 10.9122 42.2681 8.73578C40.0918 6.55941 37.508 4.83301 34.6645 3.65517C31.8209 2.47732 28.7732 1.87109 25.6953 1.87109C22.6175 1.87109 19.5697 2.47732 16.7262 3.65517C13.8826 4.83301 11.2989 6.55941 9.1225 8.73578C6.94612 10.9122 5.21973 13.4959 4.04189 16.3395C2.86404 19.183 2.25781 22.2307 2.25781 25.3086Z" fill="#FEE8EB"/>
<path d="M30.0703 23.4336C27.2578 20.3086 27.2578 16.5586 27.2578 11.2461C18.5078 14.6836 20.6953 24.0586 20.3828 27.1836C18.1953 25.3086 17.5703 20.9336 17.5703 20.9336C15.0703 22.1836 13.8203 25.3086 13.8203 27.8086C13.8203 34.0586 19.1328 39.3711 25.6953 39.3711C32.2578 39.3711 37.5703 34.3711 37.5703 27.8086C37.5703 24.0586 34.7578 22.1836 34.7578 17.1836C30.6953 18.4336 30.0703 21.5586 30.0703 23.4336Z" fill="#FF6B6A"/>
<path d="M25.3828 26.5586C29.4453 28.1211 28.5078 32.4961 28.5078 33.7461C29.4453 32.8086 29.7578 30.9336 29.7578 30.9336C30.6953 31.5586 31.3203 32.8086 31.3203 34.0586C31.3203 36.8711 28.8203 39.3711 26.0078 39.3711C23.1953 39.3711 20.6953 36.8711 20.6953 34.0586C21.0078 31.2461 25.3828 29.0586 25.3828 26.5586Z" fill="#FFA9B1"/>
</svg>
