<svg width="362" height="677" viewBox="0 0 362 677" fill="none" xmlns="http://www.w3.org/2000/svg">
<g clip-path="url(#clip0_153_3615)">
<path fill-rule="evenodd" clip-rule="evenodd" d="M300.209 235.751L293.055 222.293C293.013 222.216 292.988 222.131 292.98 222.044C292.971 221.957 292.98 221.869 293.006 221.785C293.057 221.616 293.174 221.475 293.33 221.392C293.486 221.309 293.669 221.291 293.838 221.343C293.922 221.368 294 221.41 294.067 221.466C294.135 221.521 294.191 221.59 294.232 221.667L301.387 235.125L302.402 234.585C302.711 234.42 303.05 234.318 303.398 234.285C303.747 234.251 304.099 234.287 304.434 234.389C304.769 234.492 305.08 234.659 305.35 234.882C305.621 235.105 305.844 235.379 306.009 235.688L306.441 236.501L311.021 243.203L305.195 246.3L303.177 242.311L301.988 242.913L304.018 246.927L301.521 248.254L298.524 240.709L298.093 239.897C297.928 239.587 297.826 239.249 297.793 238.9C297.759 238.552 297.795 238.2 297.897 237.865C297.999 237.53 298.167 237.218 298.389 236.948C298.612 236.678 298.886 236.454 299.195 236.29L300.209 235.751ZM303.027 235.763L299.821 237.467C299.666 237.549 299.529 237.661 299.418 237.796C299.306 237.931 299.223 238.087 299.171 238.255C299.12 238.422 299.103 238.598 299.119 238.772C299.136 238.947 299.187 239.116 299.269 239.271L299.701 240.083L305.263 237.125L304.831 236.314C304.748 236.159 304.637 236.022 304.501 235.911C304.366 235.8 304.211 235.716 304.043 235.665C303.876 235.613 303.7 235.596 303.525 235.613C303.351 235.629 303.182 235.68 303.027 235.763Z" fill="#111827" fill-opacity="0.12"/>
<path d="M297.343 242.256C297.23 242.12 297.067 242.035 296.891 242.018C296.715 242.002 296.54 242.057 296.404 242.17H296.405L296.398 242.175L296.357 242.207C296.297 242.252 296.236 242.295 296.173 242.336C296.008 242.446 295.761 242.596 295.444 242.747C294.628 243.139 293.736 243.345 292.831 243.349C292.654 243.349 292.484 243.419 292.359 243.544C292.234 243.669 292.164 243.839 292.164 244.016C292.164 244.193 292.234 244.362 292.359 244.487C292.484 244.612 292.654 244.682 292.831 244.682C293.934 244.678 295.023 244.428 296.017 243.951C296.328 243.804 296.627 243.635 296.913 243.446C297.021 243.374 297.125 243.298 297.227 243.219L297.247 243.204L297.253 243.198L297.255 243.196H297.257L297.257 243.194C297.393 243.081 297.478 242.919 297.494 242.743C297.51 242.567 297.456 242.392 297.343 242.256ZM298.719 245.646C298.767 245.719 298.801 245.8 298.818 245.886C298.835 245.972 298.835 246.06 298.818 246.146C298.801 246.232 298.767 246.314 298.718 246.387C298.669 246.459 298.607 246.522 298.534 246.57L298.533 246.572L298.53 246.573L298.523 246.577L298.503 246.59L298.427 246.639C298.028 246.884 297.613 247.102 297.185 247.292C296.397 247.642 295.298 248.016 294.164 248.016C293.987 248.016 293.818 247.946 293.693 247.82C293.568 247.695 293.497 247.526 293.497 247.349C293.497 247.172 293.568 247.003 293.693 246.878C293.818 246.753 293.987 246.682 294.164 246.682C295.029 246.682 295.931 246.39 296.643 246.073C297.015 245.908 297.375 245.719 297.722 245.506C297.748 245.491 297.767 245.479 297.779 245.47L297.793 245.462L297.794 245.461C297.867 245.412 297.949 245.379 298.034 245.362C298.12 245.345 298.209 245.345 298.295 245.362C298.381 245.379 298.462 245.413 298.535 245.462C298.608 245.51 298.67 245.573 298.719 245.646Z" fill="#111827" fill-opacity="0.12"/>
</g>
<path d="M68.7959 604.59C66.0759 601.87 65.8359 596.896 65.8359 596.016H63.8359V598.683H58.5026V596.016H55.8359C55.8359 594.55 57.0359 593.35 58.5026 593.35H67.8359V594.683C67.8359 594.79 67.8893 600.856 70.2093 603.176L68.7959 604.59ZM69.1693 593.35V596.016H70.5026V593.35H69.1693ZM66.5026 606.683C63.8359 604.016 63.8359 600.016 63.8359 600.016H58.5026V602.683C58.5026 604.016 58.5026 604.016 57.1693 605.35C55.8359 606.683 55.8359 608.016 55.8359 608.016V617.35C55.8359 618.816 57.0359 620.016 58.5026 620.016H63.8359C65.3026 620.016 66.5026 618.816 66.5026 617.35V606.683Z" fill="#111827" fill-opacity="0.12"/>
<path d="M91.7959 147.59C89.0759 144.87 88.8359 139.896 88.8359 139.016H86.8359V141.683H81.5026V139.016H78.8359C78.8359 137.55 80.0359 136.35 81.5026 136.35H90.8359V137.683C90.8359 137.79 90.8893 143.856 93.2093 146.176L91.7959 147.59ZM92.1693 136.35V139.016H93.5026V136.35H92.1693ZM89.5026 149.683C86.8359 147.016 86.8359 143.016 86.8359 143.016H81.5026V145.683C81.5026 147.016 81.5026 147.016 80.1693 148.35C78.8359 149.683 78.8359 151.016 78.8359 151.016V160.35C78.8359 161.816 80.0359 163.016 81.5026 163.016H86.8359C88.3026 163.016 89.5026 161.816 89.5026 160.35V149.683Z" fill="#111827" fill-opacity="0.12"/>
<path d="M341.169 389.349C340.502 389.349 339.919 389.132 339.42 388.698C338.92 388.265 338.625 387.715 338.536 387.049L336.369 370.849C336.324 370.449 336.436 370.099 336.702 369.8C336.969 369.5 337.302 369.35 337.702 369.349H353.302C353.702 369.349 354.036 369.499 354.302 369.8C354.569 370.1 354.68 370.45 354.636 370.849L352.469 387.049C352.38 387.716 352.085 388.266 351.585 388.7C351.084 389.133 350.501 389.35 349.836 389.349H341.169ZM345.502 380.016C346.613 380.016 347.558 379.627 348.336 378.849C349.113 378.071 349.502 377.127 349.502 376.016V374.682C349.502 374.305 349.374 373.988 349.118 373.733C348.862 373.478 348.546 373.35 348.169 373.349C347.792 373.348 347.476 373.476 347.22 373.733C346.964 373.99 346.836 374.306 346.836 374.682V376.016C346.836 376.393 346.708 376.71 346.452 376.966C346.196 377.222 345.879 377.35 345.502 377.349C345.125 377.348 344.809 377.22 344.553 376.965C344.297 376.71 344.169 376.393 344.169 376.016V374.682C344.169 374.305 344.041 373.988 343.785 373.733C343.529 373.478 343.212 373.35 342.836 373.349C342.459 373.348 342.142 373.476 341.886 373.733C341.63 373.99 341.502 374.306 341.502 374.682V376.016C341.502 377.127 341.891 378.071 342.669 378.849C343.447 379.627 344.391 380.016 345.502 380.016ZM349.502 368.016C348.947 368.016 348.475 367.821 348.086 367.433C347.698 367.045 347.503 366.572 347.502 366.016C347.501 365.459 347.696 364.987 348.086 364.6C348.476 364.212 348.948 364.017 349.502 364.016C350.056 364.014 350.528 364.209 350.92 364.6C351.311 364.991 351.505 365.463 351.502 366.016C351.5 366.569 351.305 367.041 350.92 367.433C350.534 367.825 350.061 368.019 349.502 368.016ZM342.836 366.682C341.902 366.682 341.113 366.36 340.469 365.716C339.824 365.071 339.502 364.282 339.502 363.349C339.502 362.416 339.824 361.627 340.469 360.982C341.113 360.338 341.902 360.016 342.836 360.016C343.769 360.016 344.558 360.338 345.202 360.982C345.847 361.627 346.169 362.416 346.169 363.349C346.169 364.282 345.847 365.071 345.202 365.716C344.558 366.36 343.769 366.682 342.836 366.682Z" fill="#111827" fill-opacity="0.12"/>
<path d="M243.169 160.349C242.502 160.349 241.919 160.132 241.42 159.698C240.92 159.265 240.625 158.715 240.536 158.049L238.369 141.849C238.324 141.449 238.436 141.099 238.702 140.8C238.969 140.5 239.302 140.35 239.702 140.349H255.302C255.702 140.349 256.036 140.499 256.302 140.8C256.569 141.1 256.68 141.45 256.636 141.849L254.469 158.049C254.38 158.716 254.085 159.266 253.585 159.7C253.084 160.133 252.501 160.35 251.836 160.349H243.169ZM247.502 151.016C248.613 151.016 249.558 150.627 250.336 149.849C251.113 149.071 251.502 148.127 251.502 147.016V145.682C251.502 145.305 251.374 144.988 251.118 144.733C250.862 144.478 250.546 144.35 250.169 144.349C249.792 144.348 249.476 144.476 249.22 144.733C248.964 144.99 248.836 145.306 248.836 145.682V147.016C248.836 147.393 248.708 147.71 248.452 147.966C248.196 148.222 247.879 148.35 247.502 148.349C247.125 148.348 246.809 148.22 246.553 147.965C246.297 147.71 246.169 147.393 246.169 147.016V145.682C246.169 145.305 246.041 144.988 245.785 144.733C245.529 144.478 245.212 144.35 244.836 144.349C244.459 144.348 244.142 144.476 243.886 144.733C243.63 144.99 243.502 145.306 243.502 145.682V147.016C243.502 148.127 243.891 149.071 244.669 149.849C245.447 150.627 246.391 151.016 247.502 151.016ZM251.502 139.016C250.947 139.016 250.475 138.821 250.086 138.433C249.698 138.045 249.503 137.572 249.502 137.016C249.501 136.459 249.696 135.987 250.086 135.6C250.476 135.212 250.948 135.017 251.502 135.016C252.056 135.014 252.528 135.209 252.92 135.6C253.311 135.991 253.505 136.463 253.502 137.016C253.5 137.569 253.305 138.041 252.92 138.433C252.534 138.825 252.061 139.019 251.502 139.016ZM244.836 137.682C243.902 137.682 243.113 137.36 242.469 136.716C241.824 136.071 241.502 135.282 241.502 134.349C241.502 133.416 241.824 132.627 242.469 131.982C243.113 131.338 243.902 131.016 244.836 131.016C245.769 131.016 246.558 131.338 247.202 131.982C247.847 132.627 248.169 133.416 248.169 134.349C248.169 135.282 247.847 136.071 247.202 136.716C246.558 137.36 245.769 137.682 244.836 137.682Z" fill="#111827" fill-opacity="0.12"/>
<g clip-path="url(#clip1_153_3615)">
<path d="M313.744 653.642H310.544V646.55C310.544 645.872 309.971 645.322 309.264 645.322C308.557 645.322 307.984 645.872 307.984 646.55V653.642H297.744V646.55C297.744 645.872 297.171 645.322 296.463 645.322C295.756 645.322 295.184 645.872 295.184 646.55V653.642H291.984C291.63 653.642 291.344 654.198 291.344 654.538V657.61C291.344 661.296 297.744 665.576 297.744 671.496V673.482H300.304V676.042H305.424V673.482H307.984V671.496C307.984 665.576 314.384 661.295 314.384 657.61V654.538C314.384 654.198 314.098 653.642 313.744 653.642ZM302.164 664.131C302.206 663.996 302.121 663.882 301.975 663.882H299.488C299.341 663.882 299.3 663.799 299.393 663.691C299.393 663.691 304.516 657.189 304.616 657.064C304.692 656.945 304.775 656.986 304.749 657.123C304.709 657.297 303.615 661.733 303.615 661.733C303.562 661.863 303.639 661.962 303.784 661.962H306.272C306.418 661.962 306.465 662.061 306.375 662.172C306.375 662.172 301.245 668.829 301.152 668.941C301.06 669.052 300.974 669.018 301.021 668.829L302.164 664.131Z" fill="#111827" fill-opacity="0.12"/>
</g>
<path d="M29.9221 259.096C29.9221 257.82 27.5937 254.253 27.5937 254.253C27.5937 254.253 25.2302 257.82 25.2302 259.096C25.2302 260.37 26.2811 261.403 27.5765 261.403C28.8712 261.403 29.9221 260.37 29.9221 259.096ZM13.0869 239.112H8.39502V234.487H9.67438V231.963H1.14062V234.487H2.42062V241.636C2.42062 243.494 3.94895 245 5.83375 245H13.0869V246.262H15.6475V237.852H13.0869V239.112ZM30.5793 249.626V242.477C30.5793 240.62 29.0517 239.113 27.1688 239.113H19.9144V237.852H17.3537V246.264H19.9144V245.001H24.6069V249.626H23.3288V252.15H31.8606V249.626H30.5793Z" fill="#111827" fill-opacity="0.12"/>
<path d="M320.922 496.096C320.922 494.82 318.594 491.253 318.594 491.253C318.594 491.253 316.23 494.82 316.23 496.096C316.23 497.37 317.281 498.403 318.576 498.403C319.871 498.403 320.922 497.37 320.922 496.096ZM304.087 476.112H299.395V471.487H300.674V468.963H292.141V471.487H293.421V478.636C293.421 480.494 294.949 482 296.834 482H304.087V483.262H306.648V474.852H304.087V476.112ZM321.579 486.626V479.477C321.579 477.62 320.052 476.113 318.169 476.113H310.914V474.852H308.354V483.264H310.914V482.001H315.607V486.626H314.329V489.15H322.861V486.626H321.579Z" fill="#111827" fill-opacity="0.12"/>
<path d="M53.9221 29.0963C53.9221 27.8202 51.5937 24.2534 51.5937 24.2534C51.5937 24.2534 49.2302 27.8202 49.2302 29.0963C49.2302 30.3699 50.2811 31.4029 51.5765 31.4029C52.8712 31.4029 53.9221 30.3699 53.9221 29.0963ZM37.0869 9.11233H32.395V4.48705H33.6744V1.96289H25.1406V4.48705H26.4206V11.6359C26.4206 13.4944 27.9489 15.0003 29.8337 15.0003H37.0869V16.2624H39.6475V7.85153H37.0869V9.11233ZM54.5793 19.6263V12.4775C54.5793 10.6195 53.0517 9.11297 51.1688 9.11297H43.9144V7.85217H41.3537V16.2637H43.9144V15.001H48.6069V19.6263H47.3288V22.1504H55.8606V19.6263H54.5793Z" fill="#111827" fill-opacity="0.12"/>
<g clip-path="url(#clip2_153_3615)">
<path fill-rule="evenodd" clip-rule="evenodd" d="M151.209 500.751L144.055 487.293C144.013 487.216 143.988 487.131 143.98 487.044C143.971 486.957 143.98 486.869 144.006 486.785C144.057 486.616 144.174 486.475 144.33 486.392C144.486 486.309 144.669 486.291 144.838 486.343C144.922 486.368 145 486.41 145.067 486.466C145.135 486.521 145.191 486.59 145.232 486.667L152.387 500.125L153.402 499.585C153.711 499.42 154.05 499.318 154.398 499.285C154.747 499.251 155.099 499.287 155.434 499.389C155.769 499.492 156.08 499.659 156.35 499.882C156.621 500.105 156.844 500.379 157.009 500.688L157.441 501.501L162.021 508.203L156.195 511.3L154.177 507.311L152.988 507.913L155.018 511.927L152.521 513.254L149.524 505.709L149.093 504.897C148.928 504.587 148.826 504.249 148.793 503.9C148.759 503.552 148.795 503.2 148.897 502.865C148.999 502.53 149.167 502.218 149.389 501.948C149.612 501.678 149.886 501.454 150.195 501.29L151.209 500.751ZM154.027 500.763L150.821 502.467C150.666 502.549 150.529 502.661 150.418 502.796C150.306 502.931 150.223 503.087 150.171 503.255C150.12 503.422 150.103 503.598 150.119 503.772C150.136 503.947 150.187 504.116 150.269 504.271L150.701 505.083L156.263 502.125L155.831 501.314C155.748 501.159 155.637 501.022 155.501 500.911C155.366 500.8 155.211 500.716 155.043 500.665C154.876 500.613 154.7 500.596 154.525 500.613C154.351 500.629 154.182 500.68 154.027 500.763Z" fill="#111827" fill-opacity="0.12"/>
<path d="M148.343 507.256C148.23 507.12 148.067 507.035 147.891 507.018C147.715 507.002 147.54 507.057 147.404 507.17H147.405L147.398 507.175L147.357 507.207C147.297 507.252 147.236 507.295 147.173 507.336C147.008 507.446 146.761 507.596 146.444 507.747C145.628 508.139 144.736 508.345 143.831 508.349C143.654 508.349 143.484 508.419 143.359 508.544C143.234 508.669 143.164 508.839 143.164 509.016C143.164 509.193 143.234 509.362 143.359 509.487C143.484 509.612 143.654 509.682 143.831 509.682C144.934 509.678 146.023 509.428 147.017 508.951C147.328 508.804 147.627 508.635 147.913 508.446C148.021 508.374 148.125 508.298 148.227 508.219L148.247 508.204L148.253 508.198L148.255 508.196H148.257L148.257 508.194C148.393 508.081 148.478 507.919 148.494 507.743C148.51 507.567 148.456 507.392 148.343 507.256ZM149.719 510.646C149.767 510.719 149.801 510.8 149.818 510.886C149.835 510.972 149.835 511.06 149.818 511.146C149.801 511.232 149.767 511.314 149.718 511.387C149.669 511.459 149.607 511.522 149.534 511.57L149.533 511.572L149.53 511.573L149.523 511.577L149.503 511.59L149.427 511.639C149.028 511.884 148.613 512.102 148.185 512.292C147.397 512.642 146.298 513.016 145.164 513.016C144.987 513.016 144.818 512.946 144.693 512.82C144.568 512.695 144.497 512.526 144.497 512.349C144.497 512.172 144.568 512.003 144.693 511.878C144.818 511.753 144.987 511.682 145.164 511.682C146.029 511.682 146.931 511.39 147.643 511.073C148.015 510.908 148.375 510.719 148.722 510.506C148.748 510.491 148.767 510.479 148.779 510.47L148.793 510.462L148.794 510.461C148.867 510.412 148.949 510.379 149.034 510.362C149.12 510.345 149.209 510.345 149.295 510.362C149.381 510.379 149.462 510.413 149.535 510.462C149.608 510.51 149.67 510.573 149.719 510.646Z" fill="#111827" fill-opacity="0.12"/>
</g>
<g clip-path="url(#clip3_153_3615)">
<path fill-rule="evenodd" clip-rule="evenodd" d="M196.209 46.7505L189.055 33.2932C189.013 33.2159 188.988 33.1312 188.98 33.0441C188.971 32.9569 188.98 32.869 189.006 32.7853C189.057 32.6162 189.174 32.4745 189.33 32.3915C189.486 32.3085 189.669 32.2909 189.838 32.3426C189.922 32.3682 190 32.41 190.067 32.4657C190.135 32.5214 190.191 32.5899 190.232 32.6672L197.387 46.1245L198.402 45.5845C198.711 45.4201 199.05 45.3182 199.398 45.2847C199.747 45.2512 200.099 45.2866 200.434 45.3891C200.769 45.4916 201.08 45.659 201.35 45.8818C201.621 46.1047 201.844 46.3786 202.009 46.6878L202.441 47.5005L207.021 54.2032L201.195 57.2999L199.177 53.3112L197.988 53.9132L200.018 57.9265L197.521 59.2539L194.524 51.7085L194.093 50.8965C193.928 50.5873 193.826 50.2487 193.793 49.9001C193.759 49.5515 193.795 49.1997 193.897 48.8648C193.999 48.5299 194.167 48.2184 194.389 47.9482C194.612 47.678 194.886 47.4542 195.195 47.2899L196.209 46.7505ZM199.027 46.7625L195.821 48.4672C195.666 48.5494 195.529 48.6612 195.418 48.7964C195.306 48.9315 195.223 49.0872 195.171 49.2547C195.12 49.4221 195.103 49.598 195.119 49.7723C195.136 49.9466 195.187 50.1159 195.269 50.2705L195.701 51.0825L201.263 48.1252L200.831 47.3139C200.748 47.1592 200.637 47.0223 200.501 46.9109C200.366 46.7995 200.211 46.7159 200.043 46.6647C199.876 46.6135 199.7 46.5958 199.525 46.6126C199.351 46.6293 199.182 46.6803 199.027 46.7625Z" fill="#111827" fill-opacity="0.12"/>
<path d="M193.343 53.2558C193.23 53.1199 193.067 53.0345 192.891 53.0184C192.715 53.0023 192.54 53.0567 192.404 53.1697H192.405L192.398 53.1751L192.357 53.2071C192.297 53.2519 192.236 53.295 192.173 53.3364C192.008 53.4464 191.761 53.5964 191.444 53.7471C190.628 54.1391 189.736 54.3448 188.831 54.3491C188.654 54.3491 188.484 54.4193 188.359 54.5443C188.234 54.6694 188.164 54.8389 188.164 55.0157C188.164 55.1926 188.234 55.3621 188.359 55.4872C188.484 55.6122 188.654 55.6824 188.831 55.6824C189.934 55.6782 191.023 55.4283 192.017 54.9511C192.328 54.8038 192.627 54.635 192.913 54.4458C193.021 54.374 193.125 54.2984 193.227 54.2191L193.247 54.2038L193.253 54.1984L193.255 54.1958H193.257L193.257 54.1944C193.393 54.0812 193.478 53.9188 193.494 53.7427C193.51 53.5667 193.456 53.3916 193.343 53.2558ZM194.719 56.6457C194.767 56.7186 194.801 56.8003 194.818 56.8862C194.835 56.9721 194.835 57.0605 194.818 57.1463C194.801 57.2322 194.767 57.3138 194.718 57.3866C194.669 57.4594 194.607 57.5218 194.534 57.5704L194.533 57.5717L194.53 57.5731L194.523 57.5771L194.503 57.5904L194.427 57.6391C194.028 57.8836 193.613 58.1017 193.185 58.2918C192.397 58.6418 191.298 59.0157 190.164 59.0157C189.987 59.0157 189.818 58.9455 189.693 58.8205C189.568 58.6955 189.497 58.5259 189.497 58.3491C189.497 58.1723 189.568 58.0027 189.693 57.8777C189.818 57.7527 189.987 57.6824 190.164 57.6824C191.029 57.6824 191.931 57.3897 192.643 57.0731C193.015 56.9079 193.375 56.7186 193.722 56.5064C193.748 56.4909 193.767 56.4789 193.779 56.4704L193.793 56.4624L193.794 56.4611C193.867 56.4125 193.949 56.3787 194.034 56.3617C194.12 56.3447 194.209 56.3447 194.295 56.3619C194.381 56.379 194.462 56.4129 194.535 56.4616C194.608 56.5103 194.67 56.5729 194.719 56.6457Z" fill="#111827" fill-opacity="0.12"/>
</g>
<g clip-path="url(#clip4_153_3615)">
<path d="M33.7438 368.642H30.5438V361.55C30.5438 360.872 29.971 360.322 29.2638 360.322C28.5566 360.322 27.9838 360.872 27.9838 361.55V368.642H17.7438V361.55C17.7438 360.872 17.1709 360.322 16.4631 360.322C15.7559 360.322 15.1838 360.872 15.1838 361.55V368.642H11.9838C11.6298 368.642 11.3438 369.198 11.3438 369.538V372.61C11.3438 376.296 17.7438 380.576 17.7438 386.496V388.482H20.3038V391.042H25.4238V388.482H27.9838V386.496C27.9838 380.576 34.3838 376.295 34.3838 372.61V369.538C34.3838 369.198 34.0977 368.642 33.7438 368.642ZM22.1642 379.131C22.2058 378.996 22.1214 378.882 21.9748 378.882H19.4884C19.3412 378.882 19.2996 378.799 19.393 378.691C19.393 378.691 24.5162 372.189 24.6161 372.064C24.6916 371.945 24.7748 371.986 24.7486 372.123C24.7089 372.297 23.6151 376.733 23.6151 376.733C23.562 376.863 23.6388 376.962 23.7841 376.962H26.2718C26.4183 376.962 26.465 377.061 26.3754 377.172C26.3754 377.172 21.2446 383.829 21.1524 383.941C21.0596 384.052 20.9738 384.018 21.0206 383.829L22.1642 379.131Z" fill="#111827" fill-opacity="0.12"/>
</g>
<g clip-path="url(#clip5_153_3615)">
<path d="M331.744 16.6423H328.544V9.55043C328.544 8.87203 327.971 8.32227 327.264 8.32227C326.557 8.32227 325.984 8.87203 325.984 9.55043V16.6423H315.744V9.55043C315.744 8.87203 315.171 8.32227 314.463 8.32227C313.756 8.32227 313.184 8.87203 313.184 9.55043V16.6423H309.984C309.63 16.6423 309.344 17.1984 309.344 17.5376V20.6103C309.344 24.296 315.744 28.5757 315.744 34.4957V36.4823H318.304V39.0423H323.424V36.4823H325.984V34.4957C325.984 28.5757 332.384 24.2954 332.384 20.6103V17.5376C332.384 17.1984 332.098 16.6423 331.744 16.6423ZM320.164 27.1306C320.206 26.9962 320.121 26.8823 319.975 26.8823H317.488C317.341 26.8823 317.3 26.7991 317.393 26.6909C317.393 26.6909 322.516 20.1891 322.616 20.0637C322.692 19.9447 322.775 19.9863 322.749 20.1232C322.709 20.2967 321.615 24.7325 321.615 24.7325C321.562 24.8631 321.639 24.9623 321.784 24.9623H324.272C324.418 24.9623 324.465 25.0608 324.375 25.1722C324.375 25.1722 319.245 31.8295 319.152 31.9408C319.06 32.0522 318.974 32.0183 319.021 31.8288L320.164 27.1306Z" fill="#111827" fill-opacity="0.12"/>
</g>
<defs>
<clipPath id="clip0_153_3615">
<rect width="32" height="32" fill="white" transform="translate(285.5 218.683)"/>
</clipPath>
<clipPath id="clip1_153_3615">
<rect width="32" height="32" fill="white" transform="translate(287.5 644.683)"/>
</clipPath>
<clipPath id="clip2_153_3615">
<rect width="32" height="32" fill="white" transform="translate(136.5 483.683)"/>
</clipPath>
<clipPath id="clip3_153_3615">
<rect width="32" height="32" fill="white" transform="translate(181.5 29.6826)"/>
</clipPath>
<clipPath id="clip4_153_3615">
<rect width="32" height="32" fill="white" transform="translate(7.5 359.683)"/>
</clipPath>
<clipPath id="clip5_153_3615">
<rect width="32" height="32" fill="white" transform="translate(305.5 7.68262)"/>
</clipPath>
</defs>
</svg>
