<svg width="25" height="24" viewBox="0 0 25 24" fill="none" xmlns="http://www.w3.org/2000/svg">
<path d="M22.8477 17.002C22.8472 18.3696 22.3798 19.696 21.5227 20.7616C20.6656 21.8273 19.4703 22.5683 18.1347 22.862L17.4967 20.948C18.0809 20.8518 18.6365 20.6271 19.1235 20.2903C19.6104 19.9534 20.0166 19.5128 20.3127 19H17.8477C17.3172 19 16.8085 18.7893 16.4334 18.4142C16.0584 18.0391 15.8477 17.5304 15.8477 17V13C15.8477 12.4696 16.0584 11.9609 16.4334 11.5858C16.8085 11.2107 17.3172 11 17.8477 11H20.7857C20.5416 9.0669 19.6006 7.28927 18.1391 6.00068C16.6776 4.71208 14.7961 4.00108 12.8477 4.00108C10.8992 4.00108 9.01772 4.71208 7.55623 6.00068C6.09474 7.28927 5.15369 9.0669 4.90966 11H7.84766C8.37809 11 8.8868 11.2107 9.26187 11.5858C9.63694 11.9609 9.84766 12.4696 9.84766 13V17C9.84766 17.5304 9.63694 18.0391 9.26187 18.4142C8.8868 18.7893 8.37809 19 7.84766 19H4.84766C4.31722 19 3.80852 18.7893 3.43344 18.4142C3.05837 18.0391 2.84766 17.5304 2.84766 17V12C2.84766 6.477 7.32466 2 12.8477 2C18.3707 2 22.8477 6.477 22.8477 12V17.002Z" fill="#FE725F"/>
</svg>
