<svg width="65" height="64" viewBox="0 0 65 64" fill="none" xmlns="http://www.w3.org/2000/svg">
<rect x="0.359375" width="64" height="64" rx="24" fill="#F9FAFB"/>
<path d="M30.4326 22.8201L23.5026 28.3701C22.7226 28.9901 22.2226 30.3001 22.3926 31.2801L23.7226 39.2401C23.9626 40.6601 25.3226 41.8101 26.7626 41.8101H37.9626C39.3926 41.8101 40.7626 40.6501 41.0026 39.2401L42.3326 31.2801C42.4926 30.3001 41.9926 28.9901 41.2226 28.3701L34.2926 22.8301C33.2226 21.9701 31.4926 21.9701 30.4326 22.8201Z" fill="#1F1D2B" stroke="#1F1D2B" stroke-width="1.5" stroke-linecap="round" stroke-linejoin="round"/>
<path d="M32.3594 38V35" stroke="#F9FAFB" stroke-width="1.5" stroke-linecap="round" stroke-linejoin="round"/>
<path d="M21.2914 62.136C21.522 61.6747 21.6374 61.444 21.7772 61.2494C22.2433 60.6008 22.9487 60.1648 23.7372 60.038C23.9738 60 24.2317 60 24.7475 60H39.9713C40.487 60 40.7449 60 40.9816 60.038C41.7701 60.1648 42.4755 60.6008 42.9415 61.2494C43.0814 61.444 43.1967 61.6747 43.4274 62.136C43.6103 62.5018 43.7017 62.6848 43.7268 62.8301C43.8126 63.3279 43.5137 63.8115 43.0301 63.9574C42.8889 64 42.6844 64 42.2753 64H22.4434C22.0344 64 21.8299 64 21.6886 63.9574C21.205 63.8115 20.9061 63.3279 20.9919 62.8301C21.017 62.6848 21.1085 62.5018 21.2914 62.136Z" fill="#1F1D2B"/>
</svg>
