<svg width="25" height="24" viewBox="0 0 25 24" fill="none" xmlns="http://www.w3.org/2000/svg">
<path d="M21.7938 8.30447C21.7837 7.54709 21.6419 6.79724 21.3748 6.08847C21.1431 5.49062 20.7893 4.94767 20.3359 4.4943C19.8826 4.04093 19.3396 3.68712 18.7418 3.45547C18.0421 3.19283 17.3029 3.05081 16.5557 3.03547C15.5938 2.99247 15.2887 2.98047 12.8468 2.98047C10.4048 2.98047 10.0918 2.98047 9.13675 3.03547C8.38991 3.05092 7.6511 3.19294 6.95175 3.45547C6.35381 3.68696 5.81077 4.04071 5.35738 4.4941C4.90399 4.94749 4.55024 5.49053 4.31875 6.08847C4.05558 6.7876 3.91387 7.52658 3.89975 8.27347C3.85675 9.23647 3.84375 9.54147 3.84375 11.9835C3.84375 14.4255 3.84375 14.7375 3.89975 15.6935C3.91475 16.4415 4.05575 17.1795 4.31875 17.8805C4.55063 18.4782 4.90465 19.021 5.35819 19.4742C5.81173 19.9274 6.35481 20.281 6.95275 20.5125C7.65018 20.7857 8.38912 20.9378 9.13775 20.9625C10.1008 21.0055 10.4058 21.0185 12.8478 21.0185C15.2898 21.0185 15.6028 21.0185 16.5578 20.9625C17.3049 20.9478 18.0441 20.8061 18.7437 20.5435C19.3414 20.3116 19.8843 19.9576 20.3376 19.5043C20.7909 19.051 21.1448 18.5082 21.3768 17.9105C21.6398 17.2105 21.7808 16.4725 21.7957 15.7235C21.8387 14.7615 21.8517 14.4565 21.8517 12.0135C21.8497 9.57147 21.8498 9.26147 21.7938 8.30447ZM12.8408 16.6015C10.2868 16.6015 8.21775 14.5325 8.21775 11.9785C8.21775 9.42447 10.2868 7.35547 12.8408 7.35547C14.0668 7.35547 15.2427 7.84253 16.1097 8.70951C16.9767 9.5765 17.4638 10.7524 17.4638 11.9785C17.4638 13.2046 16.9767 14.3804 16.1097 15.2474C15.2427 16.1144 14.0668 16.6015 12.8408 16.6015ZM17.6478 8.26247C17.5061 8.2626 17.3659 8.23481 17.2351 8.18068C17.1042 8.12655 16.9853 8.04715 16.8852 7.94702C16.7851 7.8469 16.7057 7.72801 16.6515 7.59716C16.5974 7.46631 16.5696 7.32607 16.5697 7.18447C16.5697 7.04297 16.5976 6.90286 16.6518 6.77213C16.7059 6.6414 16.7853 6.52262 16.8853 6.42256C16.9854 6.32251 17.1042 6.24314 17.2349 6.18899C17.3656 6.13484 17.5058 6.10697 17.6473 6.10697C17.7888 6.10697 17.9289 6.13484 18.0596 6.18899C18.1903 6.24314 18.3091 6.32251 18.4092 6.42256C18.5092 6.52262 18.5886 6.6414 18.6427 6.77213C18.6969 6.90286 18.7248 7.04297 18.7248 7.18447C18.7248 7.78047 18.2428 8.26247 17.6478 8.26247Z" fill="#FE725F"/>
<path d="M12.8428 14.9826C14.5014 14.9826 15.8458 13.6381 15.8458 11.9796C15.8458 10.3211 14.5014 8.97656 12.8428 8.97656C11.1843 8.97656 9.83984 10.3211 9.83984 11.9796C9.83984 13.6381 11.1843 14.9826 12.8428 14.9826Z" fill="#FE725F"/>
</svg>
