<svg width="22" height="23" viewBox="0 0 22 23" fill="none" xmlns="http://www.w3.org/2000/svg">
<path d="M8.29177 20.6347H13.5608C17.9517 20.6347 19.7081 18.8326 19.7081 14.3272V8.92078C19.7081 4.41542 17.9517 2.61328 13.5608 2.61328H8.29177C3.90088 2.61328 2.14453 4.41542 2.14453 8.92078V14.3272C2.14453 18.8326 3.90088 20.6347 8.29177 20.6347Z" stroke="currentColor" stroke-width="1.5" stroke-linecap="round" stroke-linejoin="round"/>
<path d="M14.6838 13.0767C13.6915 14.0949 12.2688 14.4103 11.013 14.0048L8.73857 16.3296C8.5805 16.5008 8.25557 16.6089 8.01846 16.5728L6.96465 16.4287C6.61338 16.3836 6.29724 16.0412 6.24455 15.6898L6.10404 14.6085C6.06891 14.3742 6.18307 14.0408 6.34115 13.8696L8.60684 11.5449C8.22044 10.2563 8.51902 8.79661 9.51136 7.7784C10.934 6.31866 13.2524 6.31866 14.6838 7.7784C16.1065 9.22912 16.1065 11.6079 14.6838 13.0767Z" stroke="currentColor" stroke-width="1.5" stroke-miterlimit="10" stroke-linecap="round" stroke-linejoin="round"/>
<path d="M9.56286 15.482L8.81641 14.707" stroke="currentColor" stroke-width="1.5" stroke-miterlimit="10" stroke-linecap="round" stroke-linejoin="round"/>
<path d="M12.1491 10.4544H12.157" stroke="currentColor" stroke-width="2" stroke-linecap="round" stroke-linejoin="round"/>
</svg>
