<svg width="332" height="332" viewBox="0 0 332 332" fill="none" xmlns="http://www.w3.org/2000/svg">
<g filter="url(#filter0_d_96_78)">
<g clip-path="url(#clip0_96_78)">
<path d="M313.4 278.676C313.4 296.418 298.7 310.8 280.574 310.8H46.826C28.7 310.8 14 296.418 14 278.676V43.524C14 25.782 28.7 11.4 46.826 11.4H280.568C298.7 11.4 313.4 25.782 313.4 43.524V278.676Z" fill="url(#paint0_linear_96_78)"/>
<path fill-rule="evenodd" clip-rule="evenodd" d="M146.528 93.702C157.376 83.076 168.212 72.444 179.072 61.824C179.996 60.924 181.022 60.12 181.994 59.274C185.504 58.806 189.158 58.146 192.056 60.78C193.634 62.208 194.636 64.272 195.902 66.048L195.944 66.132C195.734 67.932 195.53 69.738 195.32 71.538C192.518 76.074 188.276 79.236 184.568 82.914C183.038 84.432 181.634 86.082 180.17 87.678C179.978 87.852 179.792 88.026 179.6 88.2C179.378 88.428 179.162 88.65 178.94 88.878C177.662 89.976 176.312 91.002 175.112 92.178C166.49 100.614 157.886 109.062 149.312 117.546C143.222 123.576 137.192 129.666 131.132 135.726C130.736 136.008 130.286 136.236 129.944 136.578C124.388 142.128 118.946 147.792 113.276 153.216C109.118 157.194 104.666 160.866 100.346 164.67C98.51 164.886 96.59 165.558 94.85 165.24C88.622 164.094 86 158.796 88.01 152.004C89.732 149.964 91.31 147.78 93.2 145.914C100.13 139.05 107.174 132.306 114.152 125.484C115.412 124.254 116.498 122.844 117.746 121.602C119.138 120.222 120.626 118.944 122.072 117.624C122.444 117.258 122.81 116.892 123.182 116.526L123.26 116.454C123.932 115.746 124.604 115.038 125.282 114.33L125.192 114.138L125.264 114.336C125.672 113.934 126.08 113.532 126.488 113.13L126.416 113.124C126.632 112.902 126.848 112.686 127.064 112.464L127.016 112.53C127.232 112.314 127.454 112.092 127.67 111.876L127.622 111.93C127.832 111.702 128.048 111.48 128.258 111.252L128.264 111.336C128.744 110.988 129.272 110.688 129.692 110.28C135.302 104.766 140.912 99.234 146.528 93.702Z" fill="#1B1464"/>
<path fill-rule="evenodd" clip-rule="evenodd" d="M272.012 259.344C271.616 261.582 271.574 263.964 270.758 266.034C268.91 270.738 264.95 273.288 260.162 273.54C255.206 273.804 251.192 271.398 248.876 266.742C246.926 262.818 247.814 256.452 250.838 253.284C251.858 252.216 253.1 251.37 254.246 250.422C261.38 247.776 268.856 249.444 272.012 259.344Z" fill="#252E82"/>
<path fill-rule="evenodd" clip-rule="evenodd" d="M90.23 330.006C93.89 333.732 100.172 333.492 104.264 329.472L243.506 192.684C247.598 188.664 247.952 182.382 244.292 178.662C240.632 174.936 234.35 175.176 230.252 179.196L91.016 315.984C86.924 320.004 86.57 326.286 90.23 330.006Z" fill="url(#paint1_linear_96_78)"/>
<path fill-rule="evenodd" clip-rule="evenodd" d="M294.242 210.156C292.808 214.77 286.28 215.394 283.322 213.132C280.94 211.308 280.874 209.01 281.18 206.484C281.276 205.71 281.54 204.954 281.732 204.192C283.646 202.134 285.896 200.832 288.818 201.162C291.968 201.516 294.206 204 294.254 207.162C294.272 208.158 294.248 209.16 294.242 210.156Z" fill="#1C2A56"/>
<path fill-rule="evenodd" clip-rule="evenodd" d="M103.43 341.406C107.09 345.132 113.372 344.892 117.464 340.872L256.706 204.084C260.798 200.064 261.152 193.782 257.492 190.062C253.832 186.336 247.55 186.576 243.452 190.596L104.216 327.384C100.124 331.404 99.77 337.686 103.43 341.406Z" fill="url(#paint2_linear_96_78)"/>
<path fill-rule="evenodd" clip-rule="evenodd" d="M193.016 253.278C196.676 257.004 202.832 256.884 206.774 253.014L340.76 121.392C344.696 117.522 344.924 111.366 341.264 107.64C337.604 103.914 331.442 104.034 327.506 107.904L193.52 239.532C189.584 243.396 189.356 249.552 193.016 253.278Z" fill="url(#paint3_linear_96_78)"/>
<path fill-rule="evenodd" clip-rule="evenodd" d="M49.724 241.872C55.928 248.19 65.222 249.114 70.49 243.942L249.56 68.028C254.822 62.856 254.06 53.544 247.856 47.232C241.652 40.914 232.352 39.99 227.09 45.156L48.02 221.076C42.758 226.242 43.52 235.56 49.724 241.872Z" fill="url(#paint4_linear_96_78)"/>
<path fill-rule="evenodd" clip-rule="evenodd" d="M2.162 136.908C5.822 140.634 9.812 142.644 11.072 141.408L54.002 99.234C55.262 97.992 53.324 93.972 49.664 90.246C46.004 86.52 42.014 84.504 40.754 85.746L-2.176 127.92C-3.442 129.156 -1.498 133.182 2.162 136.908Z" fill="#662D91"/>
<path fill-rule="evenodd" clip-rule="evenodd" d="M3.16401 156.816C6.82401 160.542 10.916 162.45 12.314 161.076L59.762 114.462C61.154 113.094 59.324 108.96 55.664 105.24C52.004 101.514 47.906 99.606 46.514 100.974L-0.93399 147.588C-2.33199 148.962 -0.49599 153.096 3.16401 156.816Z" fill="#1B1464"/>
<path fill-rule="evenodd" clip-rule="evenodd" d="M4.03999 179.238C7.69999 182.964 11.918 184.752 13.466 183.228L66.086 131.538C67.634 130.02 65.924 125.766 62.264 122.046C58.604 118.32 54.386 116.532 52.838 118.05L0.217993 169.74C-1.33001 171.264 0.379992 175.512 4.03999 179.238Z" fill="url(#paint5_linear_96_78)"/>
<path d="M91.1 79.2C99.5499 79.2 106.4 72.35 106.4 63.9C106.4 55.45 99.5499 48.6 91.1 48.6C82.65 48.6 75.8 55.45 75.8 63.9C75.8 72.35 82.65 79.2 91.1 79.2Z" fill="#FD9664"/>
<path d="M46.1 51C52.2304 51 57.2 46.0303 57.2 39.9C57.2 33.7696 52.2304 28.8 46.1 28.8C39.9696 28.8 35 33.7696 35 39.9C35 46.0303 39.9696 51 46.1 51Z" fill="#F87963"/>
<path fill-rule="evenodd" clip-rule="evenodd" d="M83.528 116.844C87.272 120.654 91.982 122.1 94.046 120.066L164.354 51C166.418 48.972 165.062 44.238 161.318 40.428C157.574 36.618 152.864 35.172 150.8 37.206L80.492 106.266C78.428 108.3 79.79 113.034 83.528 116.844Z" fill="#1B1464"/>
<path fill-rule="evenodd" clip-rule="evenodd" d="M86.48 127.308C89.966 130.812 95.33 131.124 98.456 128.004L172.88 53.856C176.006 50.742 175.712 45.378 172.226 41.874C168.74 38.37 163.376 38.058 160.25 41.178L85.826 115.332C82.7 118.446 82.988 123.81 86.48 127.308Z" fill="white"/>
<path fill-rule="evenodd" clip-rule="evenodd" d="M95.252 171.486C99.278 175.53 105.644 175.716 109.466 171.9L200.492 81.21C204.32 77.4 204.152 71.034 200.126 66.996C196.1 62.952 189.734 62.766 185.912 66.582L94.886 157.272C91.064 161.082 91.226 167.448 95.252 171.486Z" fill="white"/>
<path fill-rule="evenodd" clip-rule="evenodd" d="M123.452 197.886C127.478 201.93 133.844 202.116 137.666 198.3L228.692 107.61C232.52 103.8 232.352 97.434 228.326 93.396C224.3 89.352 217.934 89.166 214.112 92.982L123.086 183.672C119.264 187.482 119.426 193.848 123.452 197.886Z" fill="white"/>
<path fill-rule="evenodd" clip-rule="evenodd" d="M246.686 147.384L246.542 147.528L246.602 147.72C246.254 148.404 245.912 149.094 245.57 149.778C245.39 149.85 245.324 149.982 245.378 150.174C244.496 151.278 243.608 152.382 242.726 153.486L242.72 153.468C242.264 153.852 241.778 154.212 241.352 154.632C224.984 170.628 208.61 186.612 192.266 202.632C187.7 207.102 183.224 211.668 178.712 216.186C177.32 217.638 175.928 219.084 174.536 220.536C174.176 220.686 173.726 220.752 173.468 221.004C168.818 225.612 164.192 230.244 159.566 234.87C157.754 236.55 155.9 238.188 154.142 239.922C146.552 247.392 138.992 254.892 131.426 262.38C130.28 263.31 129.044 264.15 128 265.182C121.496 271.608 115.052 278.094 108.548 284.526C102.188 290.826 95.786 297.084 89.402 303.36C88.256 303.588 87.116 304.002 85.97 304.008C74.078 304.086 62.18 303.93 50.294 304.176C39.74 304.398 29.624 302.652 19.934 298.536C14.996 296.436 9.96198 294.366 5.87598 290.796C1.60398 287.064 -2.37402 282.996 -6.48402 279.078C-7.78002 277.218 -9.13002 275.394 -10.348 273.486C-10.786 272.802 -10.918 271.92 -11.188 271.128C-10.492 270.42 -9.80802 269.694 -9.09402 269.004C-1.19802 261.378 6.76398 253.818 14.588 246.114C20.51 240.282 25.73 233.94 29.102 226.164C33.536 215.928 33.464 205.2 33.206 194.406C33.236 190.392 33.272 186.378 33.302 182.358C33.368 179.286 33.5 176.208 33.494 173.136C33.464 163.302 33.38 153.468 33.32 143.64C33.32 140.544 33.314 137.442 33.314 134.346C33.308 124.632 33.302 114.918 33.296 105.204C33.38 99.03 33.512 92.856 33.524 86.688C33.536 82.236 35.18 78.438 37.676 74.844C44.66 64.776 63.236 65.448 68.408 80.226C69.404 83.076 69.71 86.196 70.094 89.22C70.37 91.38 70.256 93.594 70.316 95.784C70.31 115.398 70.304 135.006 70.292 154.62C70.274 160.788 70.304 166.956 70.232 173.124C70.118 183.084 73.454 191.826 79.388 199.692C82.91 205.158 87.488 209.526 93.02 212.91C98.78 217.092 105.314 219.33 112.25 220.542C119.222 222.108 126.188 221.976 132.944 219.708C144.158 215.934 152.618 208.278 160.286 199.614C160.898 199.008 161.504 198.408 162.116 197.802C162.782 197.22 163.484 196.674 164.102 196.044C167.978 192.078 171.8 188.058 175.712 184.122C179.762 180.048 183.89 176.058 187.982 172.032C189.902 170.196 191.882 168.414 193.736 166.512C197.414 162.744 201.026 158.916 204.668 155.112C208.442 151.188 212.21 147.27 215.984 143.346C218.936 140.274 221.696 136.986 224.876 134.166C230.816 128.91 238.556 129.516 243.92 135.33C244.178 135.612 244.58 135.762 244.916 135.978C245.768 138.138 246.626 140.298 247.478 142.452C247.202 144.09 246.944 145.74 246.686 147.384Z" fill="#1B1464"/>
<path fill-rule="evenodd" clip-rule="evenodd" d="M253.286 155.184L253.142 155.328L253.202 155.52C252.854 156.204 252.512 156.894 252.17 157.578C251.99 157.65 251.924 157.782 251.978 157.974C251.096 159.078 250.208 160.182 249.326 161.286L249.32 161.268C248.864 161.652 248.378 162.012 247.952 162.432C231.584 178.428 215.21 194.412 198.866 210.432C194.3 214.902 189.824 219.468 185.312 223.986C183.92 225.438 182.528 226.884 181.136 228.336C180.776 228.486 180.326 228.552 180.068 228.804C175.418 233.412 170.792 238.044 166.166 242.67C164.354 244.35 162.5 245.988 160.742 247.722C153.152 255.192 145.592 262.692 138.026 270.18C136.88 271.11 135.644 271.95 134.6 272.982C128.096 279.408 121.652 285.894 115.148 292.326C108.788 298.626 102.386 304.884 96.002 311.16C94.856 311.388 93.716 311.802 92.57 311.808C80.678 311.886 68.78 311.73 56.894 311.976C46.34 312.198 36.224 310.452 26.534 306.336C21.596 304.236 16.562 302.166 12.476 298.596C8.20399 294.864 4.22599 290.796 0.115988 286.878C-1.18001 285.018 -2.53001 283.194 -3.74801 281.286C-4.18601 280.602 -4.31801 279.72 -4.58801 278.928C-3.89201 278.22 -3.20801 277.494 -2.49401 276.804C5.40199 269.178 13.364 261.618 21.188 253.914C27.11 248.082 32.33 241.74 35.702 233.964C40.136 223.728 40.064 213 39.806 202.206C39.836 198.192 39.872 194.178 39.902 190.158C39.968 187.086 40.1 184.008 40.094 180.936C40.064 171.102 39.98 161.268 39.92 151.44C39.92 148.344 39.914 145.242 39.914 142.146C39.908 132.432 39.902 122.718 39.896 113.004C39.98 106.83 40.112 100.656 40.124 94.488C40.136 90.036 41.78 86.238 44.276 82.644C51.26 72.576 69.836 73.248 75.008 88.026C76.004 90.876 76.31 93.996 76.694 97.02C76.97 99.18 76.856 101.394 76.916 103.584C76.91 123.198 76.904 142.806 76.892 162.42C76.874 168.588 76.904 174.756 76.832 180.924C76.718 190.884 80.054 199.626 85.988 207.492C89.51 212.958 94.088 217.326 99.62 220.71C105.38 224.892 111.914 227.13 118.85 228.342C125.822 229.908 132.788 229.776 139.544 227.508C150.758 223.734 159.218 216.078 166.886 207.414C167.498 206.808 168.104 206.208 168.716 205.602C169.382 205.02 170.084 204.474 170.702 203.844C174.578 199.878 178.4 195.858 182.312 191.922C186.362 187.848 190.49 183.858 194.582 179.832C196.502 177.996 198.482 176.214 200.336 174.312C204.014 170.544 207.626 166.716 211.268 162.912C215.042 158.988 218.81 155.07 222.584 151.146C225.536 148.074 228.296 144.786 231.476 141.966C237.416 136.71 245.156 137.316 250.52 143.13C250.778 143.412 251.18 143.562 251.516 143.778C252.368 145.938 253.226 148.098 254.078 150.252C253.802 151.89 253.544 153.54 253.286 155.184Z" fill="#FDFDFD"/>
<path fill-rule="evenodd" clip-rule="evenodd" d="M167.648 253.83C171.308 257.556 177.728 257.178 181.988 252.996L326.966 110.568C331.226 106.38 331.718 99.966 328.058 96.246C324.398 92.52 317.978 92.898 313.712 97.08L168.74 239.502C164.48 243.69 163.994 250.104 167.648 253.83Z" fill="url(#paint6_linear_96_78)"/>
</g>
</g>
<defs>
<filter id="filter0_d_96_78" x="0" y="0" width="332" height="332" filterUnits="userSpaceOnUse" color-interpolation-filters="sRGB">
<feFlood flood-opacity="0" result="BackgroundImageFix"/>
<feColorMatrix in="SourceAlpha" type="matrix" values="0 0 0 0 0 0 0 0 0 0 0 0 0 0 0 0 0 0 127 0" result="hardAlpha"/>
<feOffset dx="2" dy="4"/>
<feGaussianBlur stdDeviation="8"/>
<feComposite in2="hardAlpha" operator="out"/>
<feColorMatrix type="matrix" values="0 0 0 0 0.121569 0 0 0 0 0.113725 0 0 0 0 0.168627 0 0 0 0.1 0"/>
<feBlend mode="normal" in2="BackgroundImageFix" result="effect1_dropShadow_96_78"/>
<feBlend mode="normal" in="SourceGraphic" in2="effect1_dropShadow_96_78" result="shape"/>
</filter>
<linearGradient id="paint0_linear_96_78" x1="233.433" y1="223.94" x2="48.1365" y2="56.9605" gradientUnits="userSpaceOnUse">
<stop offset="0.00458194" stop-color="#FE725F"/>
<stop offset="1" stop-color="#781BE4"/>
</linearGradient>
<linearGradient id="paint1_linear_96_78" x1="90.9399" y1="258.129" x2="242.812" y2="265.683" gradientUnits="userSpaceOnUse">
<stop offset="0.00458194" stop-color="#FE725F"/>
<stop offset="1" stop-color="#781BE4"/>
</linearGradient>
<linearGradient id="paint2_linear_96_78" x1="104.139" y1="269.529" x2="256.012" y2="277.083" gradientUnits="userSpaceOnUse">
<stop offset="0.00458194" stop-color="#FE525F"/>
<stop offset="1" stop-color="#781BE4"/>
</linearGradient>
<linearGradient id="paint3_linear_96_78" x1="229.994" y1="218.804" x2="336.76" y2="108.586" gradientUnits="userSpaceOnUse">
<stop offset="0.2366" stop-color="#2E0094"/>
<stop offset="1" stop-color="#FF853F"/>
</linearGradient>
<linearGradient id="paint4_linear_96_78" x1="99.4782" y1="196.135" x2="242.957" y2="49.5656" gradientUnits="userSpaceOnUse">
<stop stop-color="#2E0094"/>
<stop offset="0.5591" stop-color="#F88142"/>
<stop offset="1" stop-color="#FFB03F"/>
</linearGradient>
<linearGradient id="paint5_linear_96_78" x1="-0.353987" y1="150.64" x2="66.6541" y2="150.64" gradientUnits="userSpaceOnUse">
<stop offset="0.00458194" stop-color="#FE725F"/>
<stop offset="1" stop-color="#781BE4"/>
</linearGradient>
<linearGradient id="paint6_linear_96_78" x1="207.602" y1="216.453" x2="322.877" y2="96.9594" gradientUnits="userSpaceOnUse">
<stop offset="0.3871" stop-color="#490094"/>
<stop offset="1" stop-color="#FF853F"/>
</linearGradient>
<clipPath id="clip0_96_78">
<rect x="14" y="12" width="300" height="300" rx="50" fill="white"/>
</clipPath>
</defs>
</svg>
