<svg width="51" height="51" viewBox="0 0 51 51" fill="none" xmlns="http://www.w3.org/2000/svg">
<g clip-path="url(#clip0_1252_30560)">
<path d="M25.4452 50.3084C39.2523 50.3084 50.4451 39.1156 50.4451 25.3085C50.4451 11.5014 39.2523 0.308594 25.4452 0.308594C11.6381 0.308594 0.445312 11.5014 0.445312 25.3085C0.445312 39.1156 11.6381 50.3084 25.4452 50.3084Z" fill="#FD8469"/>
<path d="M37.7732 47.0604C45.34 42.7628 50.4449 34.632 50.4449 25.3081C50.4449 23.5468 50.2617 21.8284 49.9153 20.17L47.2463 17.501L42.9819 22.9965L31.2959 11.3105L23.6002 18.8831L15.6719 24.1915L20.071 28.5906L19.5085 28.7959L37.7732 47.0604Z" fill="#FC6F58"/>
<path d="M27.8957 31.5139V28.7969H22.9957V31.5139C22.9957 31.7307 22.8199 31.9064 22.6031 31.9064H19.2266V41.2825H31.6651V31.9064H28.2885C28.0715 31.9064 27.8957 31.7307 27.8957 31.5139Z" fill="#FED8B2"/>
<path d="M31.665 31.9064H28.2885C28.0717 31.9064 27.8959 31.7307 27.8959 31.5139V28.7969H25.2773V41.2825H31.6648V31.9064H31.665Z" fill="#EABE96"/>
<path d="M17.298 25.0609C18.3795 25.0609 19.2562 24.1842 19.2562 23.1027C19.2562 22.0212 18.3795 21.1445 17.298 21.1445C16.2166 21.1445 15.3398 22.0212 15.3398 23.1027C15.3398 24.1842 16.2166 25.0609 17.298 25.0609Z" fill="#FED8B2"/>
<path d="M33.173 25.0609C34.2545 25.0609 35.1312 24.1842 35.1312 23.1027C35.1312 22.0212 34.2545 21.1445 33.173 21.1445C32.0916 21.1445 31.2148 22.0212 31.2148 23.1027C31.2148 24.1842 32.0916 25.0609 33.173 25.0609Z" fill="#EABE96"/>
<path d="M25.4566 31.2569H25.0154C20.9338 31.2569 17.625 27.9482 17.625 23.8665V17.1189C17.625 13.0373 20.9338 9.72852 25.0154 9.72852H25.4566C29.5382 9.72852 32.847 13.0373 32.847 17.1189V23.8665C32.847 27.9483 29.5381 31.2569 25.4566 31.2569Z" fill="#F4E3C3"/>
<path d="M25.4575 9.72852H25.2773V31.2568H25.4575C29.5391 31.2568 32.8479 27.9481 32.8479 23.8665V17.1188C32.8477 13.0373 29.539 9.72852 25.4575 9.72852Z" fill="#FED8B2"/>
<path d="M32.0456 12.2288C30.5943 10.1613 28.1936 8.80859 25.4757 8.80859H24.9966C20.5651 8.80859 16.9727 12.401 16.9727 16.8325V17.453V23.105H18.1506V19.7904C18.1504 19.7904 18.1501 19.7904 18.1499 19.7904C21.7246 19.4273 25.2394 18.726 28.3203 17.1858C29.4289 18.4588 30.7091 19.5958 32.1224 20.5179V23.1049H33.4995V18.8796V16.8324C33.4995 15.1188 32.9607 13.5321 32.0456 12.2288Z" fill="#324A5E"/>
<path d="M32.0465 12.2288C30.595 10.1613 28.1944 8.80859 25.4765 8.80859H25.2773V18.4113C26.3273 18.0761 27.346 17.6731 28.3209 17.1857C29.4295 18.4589 30.7097 19.5957 32.123 20.5178V23.1048H33.5002V18.8795V16.8323C33.5004 15.119 32.9615 13.5323 32.0465 12.2288Z" fill="#2B3B4E"/>
<path d="M21.6478 22.9969C22.0682 22.9969 22.409 22.6561 22.409 22.2357C22.409 21.8154 22.0682 21.4746 21.6478 21.4746C21.2275 21.4746 20.8867 21.8154 20.8867 22.2357C20.8867 22.6561 21.2275 22.9969 21.6478 22.9969Z" fill="#59595B"/>
<path d="M28.8236 22.9969C29.244 22.9969 29.5848 22.6561 29.5848 22.2357C29.5848 21.8154 29.244 21.4746 28.8236 21.4746C28.4033 21.4746 28.0625 21.8154 28.0625 22.2357C28.0625 22.6561 28.4033 22.9969 28.8236 22.9969Z" fill="#272525"/>
<path d="M32.1994 31.9062H29.5924C29.5924 34.1962 27.7362 34.7364 25.4463 34.7364C23.1565 34.7364 21.3003 34.1962 21.3003 31.9062H18.6931C15.5532 31.9062 13.0078 34.4516 13.0078 37.5916V46.9995C16.6708 49.1047 20.9178 50.3087 25.4461 50.3087C29.9744 50.3087 34.2215 49.1047 37.8848 46.9995V37.5916C37.8847 34.4517 35.3394 31.9062 32.1994 31.9062Z" fill="#324A5E"/>
<path d="M32.1988 31.9062H29.5918C29.5918 34.1962 27.7355 34.7364 25.4457 34.7364C25.3893 34.7364 25.3332 34.7357 25.2773 34.735V50.3059C25.3336 50.3062 25.3893 50.3087 25.4455 50.3087C29.9738 50.3087 34.2209 49.1047 37.8841 46.9995V37.5916C37.884 34.4517 35.3387 31.9062 32.1988 31.9062Z" fill="#2B3B4E"/>
<path d="M25.2367 28.4721C23.8653 28.4721 22.75 27.3565 22.75 25.9853C22.75 25.7528 22.9384 25.5645 23.1709 25.5645C23.4034 25.5645 23.5918 25.7528 23.5918 25.9853C23.5918 26.8924 24.3299 27.6303 25.2367 27.6303C26.1436 27.6303 26.8816 26.8922 26.8816 25.9853C26.8816 25.7528 27.07 25.5645 27.3025 25.5645C27.535 25.5645 27.7234 25.7528 27.7234 25.9853C27.7234 27.3566 26.6079 28.4721 25.2367 28.4721Z" fill="#FD8469"/>
<path d="M27.7237 25.9853C27.7237 25.7528 27.5353 25.5645 27.3028 25.5645C27.0703 25.5645 26.8819 25.7528 26.8819 25.9853C26.8819 26.8788 26.1656 27.6065 25.2773 27.6283V28.4701C26.63 28.4479 27.7237 27.3429 27.7237 25.9853Z" fill="#FC6F58"/>
<path d="M40.7227 45.0963C41.7097 44.3332 42.6387 43.4985 43.5004 42.5989V28.0859H40.7227V45.0963Z" fill="#935635"/>
<path d="M42.168 28.0859V43.8902C42.6279 43.4762 43.0727 43.0455 43.5006 42.5988V28.0859H42.168Z" fill="#804000"/>
<path d="M42.1112 30.3367C39.2754 30.3367 36.9766 28.0378 36.9766 25.202V17.5H47.2459V25.202C47.2459 28.0378 44.947 30.3367 42.1112 30.3367Z" fill="#FFD15D"/>
<path d="M42.168 17.5V30.3353C44.9777 30.305 47.2464 28.019 47.2464 25.202V17.5H42.168Z" fill="#F9B54C"/>
<path d="M25.4466 41.9754C22.3785 41.9754 19.8911 39.4881 19.8911 36.4199V31.9062H18.6933C18.1448 31.9062 17.6149 31.9855 17.1133 32.1305V48.8831C19.72 49.8047 22.5241 50.3087 25.4466 50.3087C28.369 50.3087 31.1732 49.8047 33.7799 48.8831V32.1305C33.2781 31.9855 32.7485 31.9062 32.1999 31.9062H31.0022V36.4199C31.0022 39.4881 28.5148 41.9754 25.4466 41.9754Z" fill="#E6F3FF"/>
<path d="M32.199 31.9062H31.0012V36.4199C31.0012 39.4881 28.5139 41.9754 25.4457 41.9754C25.3893 41.9754 25.3334 41.9729 25.2773 41.9712V50.3071C25.3334 50.3073 25.3893 50.3089 25.4455 50.3089C28.3679 50.3089 31.172 49.8049 33.7788 48.8833V32.1307C33.2771 31.9855 32.7475 31.9062 32.199 31.9062Z" fill="#CFDBE6"/>
<path d="M36.9766 24.3828V25.2035C36.9766 25.4978 37.0026 25.7856 37.0501 26.0663H47.1721C47.2196 25.7856 47.2457 25.4978 47.2457 25.2035V24.3828H36.9766Z" fill="#F9B54C"/>
<path d="M42.1836 24.3828V26.0663H47.1745C47.222 25.7856 47.248 25.4978 47.248 25.2035V24.3828H42.1836Z" fill="#F4A200"/>
</g>
<defs>
<clipPath id="clip0_1252_30560">
<rect width="50" height="50" fill="white" transform="translate(0.445312 0.308594)"/>
</clipPath>
</defs>
</svg>
