<svg width="51" height="51" viewBox="0 0 51 51" fill="none" xmlns="http://www.w3.org/2000/svg">
<g clip-path="url(#clip0_1252_30489)">
<path d="M25.4453 50.3086C39.2524 50.3086 50.4453 39.1157 50.4453 25.3086C50.4453 11.5015 39.2524 0.308594 25.4453 0.308594C11.6382 0.308594 0.445312 11.5015 0.445312 25.3086C0.445312 39.1157 11.6382 50.3086 25.4453 50.3086Z" fill="#FD8469"/>
<path d="M8.60908 41.3297L14.6267 47.3474L17.1598 34.4832L11.7519 32.8418L7.92188 35.0389L8.55322 40.3755L8.60908 41.3297Z" fill="#FC6F58"/>
<path d="M50.2254 28.6223L32.4118 10.8086L20.3535 21.6201L15.7656 24.3185L20.1326 28.6854L19.7427 29.0449L37.7639 47.0659C44.4232 43.2869 49.1768 36.5397 50.2254 28.6223Z" fill="#FC6F58"/>
<path d="M16.176 37.8077H17.1108V35.03H16.176C16.0818 34.7167 15.9574 34.4165 15.805 34.1335L16.4659 33.4726L14.5018 31.5084L13.8408 32.1693C13.5578 32.0168 13.2576 31.8922 12.9443 31.7983V30.8633H10.1665V31.7981C9.85322 31.8923 9.55303 32.0167 9.27002 32.1691L8.60908 31.5082L6.64492 33.4724L7.30586 34.1333C7.15332 34.4163 7.02891 34.7165 6.93486 35.0298H6V37.8075H6.93486C7.029 38.1208 7.15342 38.421 7.30586 38.704L6.64492 39.3649L8.60908 41.3293L9.27002 40.6684C9.55303 40.8209 9.85322 40.9453 10.1665 41.0394V41.9742H12.9442V41.0394C13.2575 40.9452 13.5577 40.8208 13.8407 40.6684L14.5017 41.3293L16.4658 39.3651L15.8049 38.7042C15.9574 38.4212 16.082 38.121 16.176 37.8077ZM11.5554 38.8312C10.223 38.8312 9.14307 37.7512 9.14307 36.4188C9.14307 35.0865 10.223 34.0065 11.5554 34.0065C12.8877 34.0065 13.9677 35.0865 13.9677 36.4188C13.9676 37.7512 12.8876 38.8312 11.5554 38.8312Z" fill="#E6F3FF"/>
<path d="M16.1797 37.8077H17.1146V35.03H16.1797C16.0855 34.7167 15.9611 34.4165 15.8087 34.1335L16.4696 33.4726L14.5055 31.5084L13.8445 32.1693C13.5615 32.0168 13.2613 31.8924 12.948 31.7983V30.8633H11.5312V34.0079C11.5407 34.0077 11.5498 34.0065 11.5592 34.0065C12.8915 34.0065 13.9715 35.0865 13.9715 36.4188C13.9715 37.7512 12.8915 38.8312 11.5592 38.8312C11.5497 38.8312 11.5406 38.8298 11.5312 38.8298V41.9744H12.948V41.0395C13.2613 40.9454 13.5615 40.821 13.8445 40.6686L14.5055 41.3295L16.4696 39.3653L15.8087 38.7044C15.9611 38.4212 16.0857 38.121 16.1797 37.8077Z" fill="#CFDBE6"/>
<path d="M27.8957 31.5139V28.7969H22.9957V31.5139C22.9957 31.7307 22.8199 31.9064 22.6031 31.9064H19.2266V41.2825H31.6651V31.9064H28.2886C28.0714 31.9064 27.8957 31.7307 27.8957 31.5139Z" fill="#FED8B2"/>
<path d="M31.6672 31.9064H28.2906C28.0738 31.9064 27.898 31.7307 27.898 31.5139V28.7969H25.3359V41.2825H31.6674V31.9064H31.6672Z" fill="#EABE96"/>
<path d="M17.298 25.0609C18.3795 25.0609 19.2563 24.1842 19.2563 23.1027C19.2563 22.0212 18.3795 21.1445 17.298 21.1445C16.2166 21.1445 15.3398 22.0212 15.3398 23.1027C15.3398 24.1842 16.2166 25.0609 17.298 25.0609Z" fill="#FED8B2"/>
<path d="M33.173 25.0609C34.2545 25.0609 35.1312 24.1842 35.1312 23.1027C35.1312 22.0212 34.2545 21.1445 33.173 21.1445C32.0916 21.1445 31.2148 22.0212 31.2148 23.1027C31.2148 24.1842 32.0916 25.0609 33.173 25.0609Z" fill="#EABE96"/>
<path d="M25.4566 31.257H25.0154C20.9338 31.257 17.625 27.9482 17.625 23.8666V17.1189C17.625 13.0373 20.9338 9.72852 25.0154 9.72852H25.4566C29.5383 9.72852 32.8471 13.0373 32.8471 17.1189V23.8666C32.8471 27.9483 29.5383 31.257 25.4566 31.257Z" fill="#F4E3C3"/>
<path d="M25.4601 9.73047H25.3359V31.2589H25.4601C29.5417 31.2589 32.8505 27.9501 32.8505 23.8685V17.1208C32.8505 13.0393 29.5417 9.73047 25.4601 9.73047Z" fill="#FED8B2"/>
<path d="M24.9966 8.80859C20.5651 8.80859 16.9727 12.401 16.9727 16.8325V17.453V23.1051H18.1506V19.7904C18.1503 19.7904 18.1501 19.7904 18.1499 19.7904C20.6032 19.5413 23.0285 19.1325 25.3046 18.4029V8.80859H24.9966Z" fill="#FFD15D"/>
<path d="M32.0457 12.2288C30.5943 10.1613 28.1937 8.80859 25.4757 8.80859H25.3047V18.4027C26.3449 18.0692 27.354 17.6689 28.3203 17.1857C29.4289 18.4588 30.7092 19.5957 32.1225 20.5179V23.1049H33.4996V18.8795V16.8323C33.4995 15.119 32.9608 13.5323 32.0457 12.2288Z" fill="#F9B54C"/>
<path d="M21.6479 22.9969C22.0682 22.9969 22.409 22.6561 22.409 22.2357C22.409 21.8154 22.0682 21.4746 21.6479 21.4746C21.2275 21.4746 20.8867 21.8154 20.8867 22.2357C20.8867 22.6561 21.2275 22.9969 21.6479 22.9969Z" fill="#59595B"/>
<path d="M28.8236 22.9969C29.244 22.9969 29.5848 22.6561 29.5848 22.2357C29.5848 21.8154 29.244 21.4746 28.8236 21.4746C28.4033 21.4746 28.0625 21.8154 28.0625 22.2357C28.0625 22.6561 28.4033 22.9969 28.8236 22.9969Z" fill="#272525"/>
<path d="M25.2367 28.4721C23.8653 28.4721 22.75 27.3565 22.75 25.9854C22.75 25.7528 22.9384 25.5645 23.1709 25.5645C23.4034 25.5645 23.5918 25.7528 23.5918 25.9854C23.5918 26.8924 24.3299 27.6303 25.2367 27.6303C26.1437 27.6303 26.8816 26.8922 26.8816 25.9854C26.8816 25.7528 27.07 25.5645 27.3025 25.5645C27.5351 25.5645 27.7234 25.7528 27.7234 25.9854C27.7236 27.3566 26.6081 28.4721 25.2367 28.4721Z" fill="#FD8469"/>
<path d="M27.7262 25.9854C27.7262 25.7528 27.5378 25.5645 27.3053 25.5645C27.0728 25.5645 26.8844 25.7528 26.8844 25.9854C26.8844 26.8598 26.198 27.5751 25.3359 27.6254V28.4672C26.6624 28.4158 27.7262 27.3238 27.7262 25.9854Z" fill="#FC6F58"/>
<path d="M33.608 19.6689H16.9414V13.5117C16.9414 11.9838 17.9131 10.625 19.3591 10.1311L24.2646 8.45547C25.0277 8.19482 25.8567 8.1999 26.6165 8.47031L31.2328 10.1122C32.6569 10.6185 33.6081 11.9664 33.6081 13.4778L33.608 19.6689Z" fill="#324A5E"/>
<path d="M33.6092 13.477C33.6092 11.9656 32.658 10.6175 31.2339 10.1112L26.6176 8.4693C26.2024 8.32164 25.7666 8.25601 25.332 8.26676V19.6681H33.6092V13.477Z" fill="#2B3B4E"/>
<path d="M16.6055 20.4033C16.6055 18.7298 20.5625 17.373 25.4438 17.373C30.3252 17.373 34.2822 18.7298 34.2822 20.4033H16.6055Z" fill="#2B3B4E"/>
<path d="M25.448 17.375C25.4105 17.375 25.3734 17.3759 25.3359 17.376V20.4053H34.2864C34.2864 18.7317 30.3294 17.375 25.448 17.375Z" fill="#20303F"/>
<path d="M31.9886 31.9062H29.3814C29.3814 34.1962 27.525 36.0523 25.2354 36.0523C22.9457 36.0523 21.0893 34.1959 21.0893 31.9062H18.4822C15.3423 31.9062 12.7969 34.4517 12.7969 37.5916V46.8763C16.507 49.0569 20.829 50.3088 25.4439 50.3088C29.8869 50.3088 34.0583 49.1483 37.6739 47.1162V37.5916C37.6739 34.4518 35.1284 31.9062 31.9886 31.9062Z" fill="#31BAFD"/>
<path d="M31.9928 31.9062H29.3856C29.3856 34.1637 27.5811 35.9985 25.3359 36.05V50.3069C25.3734 50.3071 25.4105 50.3088 25.448 50.3088C29.891 50.3088 34.0624 49.1483 37.678 47.1162V37.5916C37.6781 34.4518 35.1326 31.9062 31.9928 31.9062Z" fill="#2B9ED8"/>
<path d="M19.891 31.9063H18.4845C18.0116 31.9063 17.5524 31.9651 17.1133 32.0738V48.8834C19.7198 49.8055 22.524 50.3089 25.4466 50.3089C28.3693 50.3089 31.1731 49.8038 33.7799 48.8816V32.1951C33.2173 32.0088 32.6162 31.9062 31.9912 31.9062H31.0021V41.9756H19.891V31.9063Z" fill="#324A5E"/>
<path d="M31.9927 31.9062H31.0036V41.9755H25.3359V50.3076C25.3733 50.3078 25.4105 50.3088 25.448 50.3088C28.3708 50.3088 31.1746 49.8037 33.7813 48.8815V32.195C33.2188 32.0086 32.6179 31.9062 31.9927 31.9062Z" fill="#2B3B4E"/>
<path d="M46.7309 29.4757H47.6657V26.6979H46.7309C46.6367 26.3847 46.5123 26.0845 46.3599 25.8015L47.0208 25.1405L45.0566 23.1764L44.3957 23.8373C44.1127 23.6848 43.8125 23.5602 43.4992 23.4663V22.5312H40.7215V23.4661C40.4082 23.5603 40.108 23.6847 39.825 23.8371L39.1641 23.1764L37.1999 25.1405L37.8608 25.8015C37.7083 26.0845 37.5839 26.3847 37.4898 26.6979H36.5547V29.4757H37.4896C37.5837 29.789 37.7081 30.0892 37.8605 30.3722L37.1996 31.0331L39.1641 32.9973L39.825 32.3363C40.108 32.4889 40.4082 32.6133 40.7215 32.7073V33.6424H43.4992V32.7075C43.8125 32.6134 44.1127 32.489 44.3957 32.3365L45.0566 32.9975L47.0208 31.0333L46.3599 30.3724C46.5123 30.0892 46.6367 29.789 46.7309 29.4757ZM42.1102 30.499C40.7778 30.499 39.6979 29.419 39.6979 28.0867C39.6979 26.7544 40.7778 25.6744 42.1102 25.6744C43.4425 25.6744 44.5225 26.7544 44.5225 28.0867C44.5225 29.419 43.4425 30.499 42.1102 30.499Z" fill="white"/>
<path d="M46.7312 29.4757H47.6661V26.6979H46.7312C46.6371 26.3847 46.5127 26.0845 46.3603 25.8015L47.0212 25.1405L45.057 23.1764L44.3961 23.8373C44.1131 23.6848 43.8129 23.5604 43.4996 23.4663V22.5312H42.0547V25.6773C42.0735 25.6769 42.0919 25.6745 42.1107 25.6745C43.4431 25.6745 44.523 26.7545 44.523 28.0868C44.523 29.4191 43.4431 30.4991 42.1107 30.4991C42.0919 30.4991 42.0735 30.4968 42.0547 30.4963V33.6424H43.4996V32.7075C43.8129 32.6134 44.1131 32.489 44.3961 32.3365L45.057 32.9975L47.0212 31.0333L46.3603 30.3724C46.5127 30.0892 46.6373 29.789 46.7312 29.4757Z" fill="#E6F3FF"/>
</g>
<defs>
<clipPath id="clip0_1252_30489">
<rect width="50" height="50" fill="white" transform="translate(0.445312 0.308594)"/>
</clipPath>
</defs>
</svg>
