<svg width="49" height="49" viewBox="0 0 49 49" fill="none" xmlns="http://www.w3.org/2000/svg">
<rect x="0.847656" y="0.430176" width="48" height="48" rx="16" fill="#F3F4F6" fill-opacity="0.15"/>
<path d="M14.8477 17.9271C14.8477 17.3771 15.2937 16.9321 15.8427 16.9321H23.8527C24.1165 16.9321 24.3696 17.037 24.5562 17.2236C24.7428 17.4102 24.8477 17.6632 24.8477 17.9271C24.8477 18.191 24.7428 18.4441 24.5562 18.6307C24.3696 18.8173 24.1165 18.9221 23.8527 18.9221H15.8427C15.5788 18.9221 15.3257 18.8173 15.1391 18.6307C14.9525 18.4441 14.8477 18.191 14.8477 17.9271ZM14.8477 23.9321C14.8477 23.3821 15.2937 22.9371 15.8427 22.9371H33.8527C34.1165 22.9371 34.3696 23.042 34.5562 23.2286C34.7428 23.4152 34.8477 23.6682 34.8477 23.9321C34.8477 24.196 34.7428 24.4491 34.5562 24.6357C34.3696 24.8223 34.1165 24.9271 33.8527 24.9271H15.8427C15.5788 24.9271 15.3257 24.8223 15.1391 24.6357C14.9525 24.4491 14.8477 24.196 14.8477 23.9321ZM15.8427 28.9421C15.5788 28.9421 15.3257 29.047 15.1391 29.2336C14.9525 29.4202 14.8477 29.6732 14.8477 29.9371C14.8477 30.201 14.9525 30.4541 15.1391 30.6407C15.3257 30.8273 15.5788 30.9321 15.8427 30.9321H27.8527C28.1165 30.9321 28.3696 30.8273 28.5562 30.6407C28.7428 30.4541 28.8477 30.201 28.8477 29.9371C28.8477 29.6732 28.7428 29.4202 28.5562 29.2336C28.3696 29.047 28.1165 28.9421 27.8527 28.9421H15.8427Z" fill="#F9FAFB"/>
</svg>
