<svg width="49" height="49" viewBox="0 0 49 49" fill="none" xmlns="http://www.w3.org/2000/svg">
<rect x="0.847656" y="0.430176" width="48" height="48" rx="16" fill="#F3F4F6" fill-opacity="0.15"/>
<path d="M21.3477 31.4302H20.8477C16.8477 31.4302 14.8477 30.4302 14.8477 25.4302V20.4302C14.8477 16.4302 16.8477 14.4302 20.8477 14.4302H28.8477C32.8477 14.4302 34.8477 16.4302 34.8477 20.4302V25.4302C34.8477 29.4302 32.8477 31.4302 28.8477 31.4302H28.3477C28.0377 31.4302 27.7377 31.5802 27.5477 31.8302L26.0477 33.8302C25.3877 34.7102 24.3077 34.7102 23.6477 33.8302L22.1477 31.8302C21.9877 31.6102 21.6177 31.4302 21.3477 31.4302Z" stroke="#F9FAFB" stroke-width="1.5" stroke-miterlimit="10" stroke-linecap="round" stroke-linejoin="round"/>
<path d="M19.8477 20.4302H29.8477" stroke="#F9FAFB" stroke-width="1.5" stroke-linecap="round" stroke-linejoin="round"/>
<path d="M19.8477 25.4302H25.8477" stroke="#F9FAFB" stroke-width="1.5" stroke-linecap="round" stroke-linejoin="round"/>
</svg>
