<svg width="25" height="25" viewBox="0 0 25 25" fill="none" xmlns="http://www.w3.org/2000/svg">
<path d="M9.21484 19.3086H8.71484C4.71484 19.3086 2.71484 18.3086 2.71484 13.3086V8.30859C2.71484 4.30859 4.71484 2.30859 8.71484 2.30859H16.7148C20.7148 2.30859 22.7148 4.30859 22.7148 8.30859V13.3086C22.7148 17.3086 20.7148 19.3086 16.7148 19.3086H16.2148C15.9048 19.3086 15.6048 19.4586 15.4148 19.7086L13.9148 21.7086C13.2548 22.5886 12.1748 22.5886 11.5148 21.7086L10.0148 19.7086C9.85484 19.4886 9.48484 19.3086 9.21484 19.3086Z" stroke="#4B5563" stroke-width="1.5" stroke-miterlimit="10" stroke-linecap="round" stroke-linejoin="round"/>
<path d="M7.71484 8.30859H17.7148" stroke="#4B5563" stroke-width="1.5" stroke-linecap="round" stroke-linejoin="round"/>
<path d="M7.71484 13.3086H13.7148" stroke="#4B5563" stroke-width="1.5" stroke-linecap="round" stroke-linejoin="round"/>
</svg>
