<svg width="50" height="50" viewBox="0 0 50 50" fill="none" xmlns="http://www.w3.org/2000/svg">
<path d="M30.619 18.2536C30.2679 17.674 29.9156 16.857 29.5952 15.9082H20.3998C20.0611 16.9116 19.6861 17.7786 19.3157 18.3604C17.418 21.34 17.043 22.8593 17.043 28.4082V34.5445L30.619 18.2536Z" fill="#72C6EF"/>
<path d="M17.043 39.8699V48.8631H32.9521V28.4086C32.9521 25.0677 32.8134 23.1893 32.2907 21.5723L17.043 39.8699Z" fill="#72C6EF"/>
<path d="M17.1289 39.7726H32.9562V30.6816H24.7051L17.1289 39.7726Z" fill="white"/>
<path d="M28.408 1.13672H21.5898V4.5458H28.408V1.13672Z" fill="#FAA85F"/>
<path d="M28.4087 15.9089H21.6133C22.261 13.8861 22.7383 11.3748 22.7383 9.09072V5.68164H27.2837V9.09072C27.2837 11.3748 27.7609 13.8861 28.4087 15.9089Z" fill="white"/>
<path d="M31.4119 22.6284C31.7176 23.9522 31.8153 25.6397 31.8153 28.4091V29.5454H25.6472L23.7528 31.8182H31.8153V38.6363H18.179V38.5067L15.9062 41.234V48.8635C15.9062 49.4919 16.4142 49.9998 17.0426 49.9998H32.9517C33.5801 49.9998 34.088 49.4919 34.088 48.8635V28.4091C34.088 24.5557 33.8959 22.4943 33.1323 20.5625L31.4119 22.6284ZM31.8153 47.7272H18.179V40.9091H31.8153V47.7272Z" fill="#00384E"/>
<path d="M18.1789 33.1818V31.8182H19.3152L21.2096 29.5454H18.1789V28.4091C18.1789 22.8262 18.5767 21.6363 20.2732 18.9716C21.4528 17.1228 22.7244 12.8193 22.7244 9.09092V5.68184H27.2698V9.09092C27.2698 12.8193 28.5414 17.1228 29.7198 18.9716C29.7652 19.042 29.8062 19.1091 29.8494 19.1772L31.4006 17.3159C30.479 15.5557 29.5427 12.008 29.5427 9.09092V1.13633C29.5425 0.509082 29.0346 0 28.4062 0H21.588C20.9596 0 20.4517 0.509082 20.4517 1.13633V9.09092C20.4517 12.258 19.3471 16.1955 18.3562 17.7512C16.3199 20.95 15.9062 22.7433 15.9062 28.4091V35.9091L18.1789 33.1818ZM22.7243 2.27275H27.2697V3.40908H22.7243V2.27275Z" fill="#00384E"/>
<path d="M7.95216 46.5919C7.69533 46.5919 7.43849 46.5056 7.22492 46.3282C6.74308 45.926 6.67834 45.2101 7.07951 44.7282L41.1703 3.81915C41.5726 3.33732 42.2874 3.2714 42.7715 3.67374C43.2533 4.07599 43.3181 4.79191 42.9169 5.27374L8.82599 46.1828C8.60216 46.4522 8.27824 46.5919 7.95216 46.5919Z" fill="#00384E"/>
</svg>
