<svg width="51" height="51" viewBox="0 0 51 51" fill="none" xmlns="http://www.w3.org/2000/svg">
<g clip-path="url(#clip0_1252_32250)">
<path d="M30.7714 18.3754C30.4202 17.7958 30.068 16.9789 29.7476 16.03H20.5521C20.2135 17.0334 19.8385 17.9004 19.4681 18.4823C17.5703 21.4619 17.1953 22.9811 17.1953 28.53V34.6664L30.7714 18.3754Z" fill="#72C6EF"/>
<path d="M17.1953 39.991V48.9842H33.1044V28.5297C33.1044 25.1888 32.9657 23.3104 32.4431 21.6934L17.1953 39.991Z" fill="#72C6EF"/>
<path d="M17.2812 39.8944H33.1085V30.8035H24.8574L17.2812 39.8944Z" fill="white"/>
<path d="M28.5604 1.25806H21.7422V4.66714H28.5604V1.25806Z" fill="#FAA85F"/>
<path d="M28.561 16.0307H21.7656C22.4134 14.008 22.8906 11.4966 22.8906 9.21255V5.80347H27.436V9.21255C27.436 11.4966 27.9133 14.008 28.561 16.0307Z" fill="white"/>
<path d="M31.5643 22.75C31.8699 24.0738 31.9677 25.7613 31.9677 28.5307V29.667H25.7995L23.9052 31.9397H31.9677V38.7579H18.3313V38.6283L16.0586 41.3556V48.9851C16.0586 49.6135 16.5665 50.1214 17.1949 50.1214H33.104C33.7324 50.1214 34.2403 49.6135 34.2403 48.9851V28.5307C34.2403 24.6772 34.0482 22.6159 33.2847 20.6841L31.5643 22.75ZM31.9677 47.8488H18.3313V41.0307H31.9677V47.8488Z" fill="#00384E"/>
<path d="M18.3313 33.3034V31.9397H19.4676L21.3619 29.667H18.3313V28.5307C18.3313 22.9478 18.729 21.7579 20.4256 19.0932C21.6052 17.2443 22.8768 12.9409 22.8768 9.2125V5.80342H27.4222V9.2125C27.4222 12.9409 28.6938 17.2443 29.8722 19.0932C29.9176 19.1636 29.9585 19.2307 30.0018 19.2988L31.5529 17.4375C30.6313 15.6772 29.695 12.1296 29.695 9.2125V1.25791C29.6948 0.630664 29.1869 0.121582 28.5585 0.121582H21.7403C21.1119 0.121582 20.604 0.630664 20.604 1.25791V9.2125C20.604 12.3796 19.4994 16.3171 18.5086 17.8728C16.4723 21.0716 16.0586 22.8648 16.0586 28.5307V36.0307L18.3313 33.3034ZM22.8767 2.39434H27.4221V3.53066H22.8767V2.39434Z" fill="#00384E"/>
<path d="M8.10451 46.7125C7.84767 46.7125 7.59084 46.6262 7.37726 46.4488C6.89543 46.0466 6.83068 45.3307 7.23185 44.8488L41.3227 3.93976C41.7249 3.45792 42.4398 3.392 42.9238 3.79435C43.4057 4.19659 43.4704 4.91251 43.0693 5.39435L8.97834 46.3034C8.75451 46.5728 8.43058 46.7125 8.10451 46.7125Z" fill="#00384E"/>
</g>
<defs>
<clipPath id="clip0_1252_32250">
<rect width="50" height="50" fill="white" transform="translate(0.152344 0.121582)"/>
</clipPath>
</defs>
</svg>
