<svg width="25" height="25" viewBox="0 0 25 25" fill="none" xmlns="http://www.w3.org/2000/svg">
<path d="M12.7148 6.74805V10.078" stroke="#4B5563" stroke-width="1.5" stroke-miterlimit="10" stroke-linecap="round"/>
<path d="M12.7338 2.30859C9.05377 2.30859 6.07377 5.28859 6.07377 8.96859V11.0686C6.07377 11.7486 5.79376 12.7686 5.44376 13.3486L4.17376 15.4686C3.39376 16.7786 3.93376 18.2386 5.37376 18.7186C10.1538 20.3086 15.3238 20.3086 20.1038 18.7186C21.4538 18.2686 22.0338 16.6886 21.3038 15.4686L20.0338 13.3486C19.6838 12.7686 19.4038 11.7386 19.4038 11.0686V8.96859C19.3938 5.30859 16.3938 2.30859 12.7338 2.30859Z" stroke="#4B5563" stroke-width="1.5" stroke-miterlimit="10" stroke-linecap="round"/>
<path d="M16.0467 19.1289C16.0467 20.9589 14.5467 22.4589 12.7167 22.4589C11.8067 22.4589 10.9667 22.0789 10.3667 21.4789C9.76672 20.8789 9.38672 20.0389 9.38672 19.1289" stroke="#4B5563" stroke-width="1.5" stroke-miterlimit="10"/>
</svg>
