<svg width="84" height="81" viewBox="0 0 84 81" fill="none" xmlns="http://www.w3.org/2000/svg">
<circle cx="43.3477" cy="40.9302" r="31.5" fill="url(#paint0_linear_216_2865)"/>
<circle cx="80.3477" cy="12.9302" r="3.5" fill="url(#paint1_linear_216_2865)"/>
<circle cx="9.34766" cy="4.93018" r="4.5" fill="url(#paint2_linear_216_2865)"/>
<circle cx="4.84766" cy="59.4302" r="2" fill="url(#paint3_linear_216_2865)"/>
<circle cx="73.8477" cy="71.4302" r="1" fill="url(#paint4_linear_216_2865)"/>
<path d="M34.3656 44.0055L39.2731 48.913C41.2881 50.928 44.5597 50.928 46.5856 48.913L51.3414 44.1572C53.3564 42.1422 53.3564 38.8705 51.3414 36.8447L46.4231 31.948C45.3939 30.9189 43.9747 30.3664 42.5231 30.4422L37.1064 30.7022C34.9397 30.7997 33.2172 32.5222 33.1089 34.678L32.8489 40.0947C32.7839 41.5572 33.3364 42.9764 34.3656 44.0055Z" stroke="#F9FAFB" stroke-width="1.5" stroke-linecap="round" stroke-linejoin="round"/>
<path d="M40.138 40.4294C41.6338 40.4294 42.8464 39.2168 42.8464 37.721C42.8464 36.2253 41.6338 35.0127 40.138 35.0127C38.6422 35.0127 37.4297 36.2253 37.4297 37.721C37.4297 39.2168 38.6422 40.4294 40.138 40.4294Z" stroke="#F9FAFB" stroke-width="1.5" stroke-linecap="round"/>
<circle cx="47.8477" cy="2.43018" r="1" fill="url(#paint5_linear_216_2865)"/>
<circle cx="28.3477" cy="78.9302" r="1.5" fill="url(#paint6_linear_216_2865)"/>
<circle cx="55.3477" cy="76.9302" r="0.5" fill="url(#paint7_linear_216_2865)"/>
<circle cx="76.8477" cy="49.4302" r="1" fill="url(#paint8_linear_216_2865)"/>
<circle cx="1.34766" cy="33.9302" r="0.5" fill="url(#paint9_linear_216_2865)"/>
<defs>
<linearGradient id="paint0_linear_216_2865" x1="74.8477" y1="72.4302" x2="-0.116687" y2="50.695" gradientUnits="userSpaceOnUse">
<stop stop-color="#C7A311"/>
<stop offset="1" stop-color="#F3D14A"/>
</linearGradient>
<linearGradient id="paint1_linear_216_2865" x1="83.8477" y1="16.4302" x2="75.5183" y2="14.0152" gradientUnits="userSpaceOnUse">
<stop stop-color="#C7A311"/>
<stop offset="1" stop-color="#F3D14A"/>
</linearGradient>
<linearGradient id="paint2_linear_216_2865" x1="13.8477" y1="9.43018" x2="3.13846" y2="6.32514" gradientUnits="userSpaceOnUse">
<stop stop-color="#C7A311"/>
<stop offset="1" stop-color="#F3D14A"/>
</linearGradient>
<linearGradient id="paint3_linear_216_2865" x1="6.84766" y1="61.4302" x2="2.08802" y2="60.0502" gradientUnits="userSpaceOnUse">
<stop stop-color="#C7A311"/>
<stop offset="1" stop-color="#F3D14A"/>
</linearGradient>
<linearGradient id="paint4_linear_216_2865" x1="74.8477" y1="72.4302" x2="72.4678" y2="71.7402" gradientUnits="userSpaceOnUse">
<stop stop-color="#C7A311"/>
<stop offset="1" stop-color="#F3D14A"/>
</linearGradient>
<linearGradient id="paint5_linear_216_2865" x1="48.8477" y1="3.43018" x2="46.4678" y2="2.74017" gradientUnits="userSpaceOnUse">
<stop stop-color="#C7A311"/>
<stop offset="1" stop-color="#F3D14A"/>
</linearGradient>
<linearGradient id="paint6_linear_216_2865" x1="29.8477" y1="80.4302" x2="26.2779" y2="79.3952" gradientUnits="userSpaceOnUse">
<stop stop-color="#C7A311"/>
<stop offset="1" stop-color="#F3D14A"/>
</linearGradient>
<linearGradient id="paint7_linear_216_2865" x1="55.8477" y1="77.4302" x2="54.6577" y2="77.0852" gradientUnits="userSpaceOnUse">
<stop stop-color="#C7A311"/>
<stop offset="1" stop-color="#F3D14A"/>
</linearGradient>
<linearGradient id="paint8_linear_216_2865" x1="77.8477" y1="50.4302" x2="75.4678" y2="49.7402" gradientUnits="userSpaceOnUse">
<stop stop-color="#C7A311"/>
<stop offset="1" stop-color="#F3D14A"/>
</linearGradient>
<linearGradient id="paint9_linear_216_2865" x1="1.84766" y1="34.4302" x2="0.657746" y2="34.0852" gradientUnits="userSpaceOnUse">
<stop stop-color="#C7A311"/>
<stop offset="1" stop-color="#F3D14A"/>
</linearGradient>
</defs>
</svg>
