<svg width="51" height="51" viewBox="0 0 51 51" fill="none" xmlns="http://www.w3.org/2000/svg">
<g clip-path="url(#clip0_1252_32153)">
<path d="M25.5951 46.7639C37.3772 46.7639 46.9285 37.2127 46.9285 25.4305C46.9285 13.6484 37.3772 4.09717 25.5951 4.09717C13.813 4.09717 4.26172 13.6484 4.26172 25.4305C4.26172 37.2127 13.813 46.7639 25.5951 46.7639Z" fill="#324A5E"/>
<path d="M28.8635 8.32933C28.8302 8.39598 28.7969 8.42931 28.7635 8.49596C27.2969 10.8293 23.8635 10.8293 22.3969 8.49596C22.3635 8.42931 22.3302 8.39598 22.2969 8.32933C22.2969 8.32933 23.6302 7.96265 24.2635 7.19604C24.6635 7.56273 25.0969 7.76269 25.5635 7.76269C26.0302 7.76269 26.4969 7.52931 26.8635 7.19604C27.5302 7.96265 28.8635 8.32933 28.8635 8.32933Z" fill="#F9B54C"/>
<path d="M28.8307 4.83016C28.6307 5.2635 28.264 5.53021 27.964 5.49679C27.464 6.73015 26.5973 7.73013 25.5974 7.73013C24.5974 7.73013 23.6974 6.73015 23.2307 5.49679C22.9307 5.53011 22.5641 5.26341 22.364 4.83016C22.1307 4.33017 22.1641 3.79686 22.464 3.66345C22.5307 3.63013 22.5973 3.63013 22.6974 3.63013C22.6974 3.69678 22.6974 3.73011 22.6974 3.76343C22.9308 4.29675 24.1307 4.69676 25.5974 4.69676C27.064 4.69676 28.264 4.29675 28.4973 3.76343C28.4973 3.73011 28.4973 3.69678 28.4973 3.63013C28.564 3.63013 28.664 3.63013 28.7307 3.66345C29.0306 3.79676 29.064 4.33017 28.8307 4.83016Z" fill="#FFD05B"/>
<path d="M28.4952 3.7302C28.262 4.26352 27.0619 4.66353 25.5953 4.66353C24.1286 4.66353 22.9286 4.26352 22.6953 3.7302C23.2286 3.19688 24.562 2.99683 25.5953 2.99683C26.6286 2.99692 28.0619 3.16356 28.4952 3.7302Z" fill="#324A5E"/>
<path d="M28.5307 2.79683C28.5307 2.96346 28.5307 3.59685 28.4973 3.73016C27.6306 3.5302 26.6307 3.3968 25.5974 3.3968C24.564 3.3968 23.5641 3.5301 22.6974 3.73016C22.6641 3.56353 22.6641 2.93013 22.6641 2.79683C22.664 1.2302 23.9973 0.430176 25.5974 0.430176C27.2306 0.430176 28.5307 1.2302 28.5307 2.79683Z" fill="#54C0EB"/>
<path d="M27.9957 2.79683C27.9957 2.93013 27.9957 3.3968 27.9624 3.63018C27.3291 3.49687 26.629 3.43022 25.8957 3.43022C25.7957 3.43022 25.6957 3.43022 25.5623 3.43022C25.4623 3.43022 25.3624 3.43022 25.2289 3.43022C24.4956 3.43022 23.7956 3.5302 23.1622 3.63018C23.1622 3.3968 23.1289 2.93013 23.1289 2.79683C23.1289 1.26353 24.1289 0.463502 25.3956 0.430176C25.4289 0.430176 25.4622 0.430176 25.5289 0.430176C25.5622 0.430176 25.5955 0.430176 25.6622 0.430176C26.9957 0.496828 27.9957 1.26353 27.9957 2.79683Z" fill="#84DBFF"/>
<path d="M29.4302 48.731H26.2969V50.031C26.2969 50.2644 26.4635 50.431 26.6969 50.431H30.8969V50.231C30.9302 49.3976 30.2636 48.731 29.4302 48.731Z" fill="#324A5E"/>
<path d="M20.3993 26.6638C20.3326 28.3972 20.366 30.5304 20.6993 33.0638C21.6327 40.3638 21.866 47.6305 21.8326 48.6971H24.866C24.8993 47.2638 25.0994 34.9638 25.5994 31.6305C26.0994 34.9638 26.2994 47.2972 26.3327 48.6971H29.3661C29.3328 47.6305 29.5661 40.3305 30.4995 33.0638C30.8329 30.4971 30.8662 28.3638 30.7995 26.6638H20.3993Z" fill="#E6E9EE"/>
<path d="M21.7323 48.731H24.8656V50.031C24.8656 50.2644 24.699 50.431 24.4656 50.431H20.2656V50.231C20.2656 49.3976 20.9322 48.731 21.7323 48.731Z" fill="#324A5E"/>
<path d="M31.1309 26.9638H20.0643C20.3643 25.9972 20.3976 20.3306 20.3976 16.9971C20.3976 15.5638 20.3976 14.5638 20.3976 14.5638C20.2976 11.9638 19.1976 9.83054 19.1976 9.83054C19.0976 8.86388 22.3309 8.33057 22.3309 8.33057C22.3643 8.39722 22.3976 8.43054 22.4309 8.4972C23.8976 10.8305 27.3309 10.8305 28.7976 8.4972C28.8309 8.43054 28.8642 8.39722 28.8976 8.33057C28.8976 8.33057 32.0976 8.86388 32.0309 9.83054C32.0309 9.83054 30.9643 11.9639 30.8309 14.5638C30.8309 14.5638 30.8309 15.5638 30.8309 16.9971C30.7976 20.3305 30.8309 25.9972 31.1309 26.9638Z" fill="white"/>
<path d="M29.9651 25.6637L29.6984 25.9304L27.5652 23.7971C27.2984 23.5304 27.1985 23.1305 27.2984 22.7638L28.1984 19.6971C28.2651 19.4637 28.1984 19.1971 28.0318 19.0304L27.7651 18.7637C27.4984 18.497 27.0651 18.497 26.7985 18.7637L26.6651 18.9304L26.3984 18.6637L26.5651 18.497C26.9651 18.097 27.6317 18.097 28.0317 18.497L28.2984 18.7637C28.5651 19.0304 28.6651 19.4304 28.5651 19.797L27.6651 22.8637C27.5985 23.0971 27.6651 23.3637 27.8318 23.5304L29.9651 25.6637Z" fill="#2B3B4E"/>
<path d="M26.7631 19.5631L23.6297 22.6964C23.363 22.9631 22.8963 22.9631 22.6297 22.6964C22.363 22.4297 22.363 21.963 22.6297 21.6964L25.7631 18.5631C26.0298 18.2964 26.4964 18.2964 26.7631 18.5631C27.0298 18.863 27.0298 19.2963 26.7631 19.5631Z" fill="#FF7058"/>
<path d="M28.3979 24.1966L28.2312 24.3632C28.1313 24.4632 28.1313 24.6299 28.2312 24.7299L32.3646 28.8632C32.4645 28.9632 32.6313 28.9632 32.7313 28.8632L32.8979 28.6966C32.9979 28.5966 32.9979 28.4299 32.8979 28.3299L28.7646 24.1966C28.6645 24.0966 28.4978 24.0966 28.3979 24.1966Z" fill="#324A5E"/>
<path d="M32.7646 24.031H31.5313C31.498 24.3644 31.3313 24.6976 31.1646 24.9977C31.098 24.9977 31.0646 25.031 31.0313 25.0976C30.4647 25.6976 30.498 26.9976 30.498 27.0976C30.4647 27.1976 30.4313 27.2976 30.398 27.3976C30.3647 27.4976 30.398 27.5976 30.4647 27.6643C30.5313 27.731 30.6313 27.731 30.7314 27.731C30.7647 27.731 30.798 27.731 30.8313 27.6977C30.8647 27.6977 30.8647 27.6643 30.898 27.631C31.1314 27.331 31.1314 26.931 31.198 26.5644V26.5311C31.198 26.4977 31.2314 26.4977 31.2647 26.4977C31.3647 26.4977 31.398 26.631 31.398 26.6977C31.398 27.9644 30.6646 27.8311 30.4313 27.8311C30.398 27.8311 30.2314 27.9977 30.798 28.1644C30.8647 28.1978 31.0647 28.0645 31.0981 28.0645C31.2647 28.0311 31.4314 28.1644 31.598 28.1311C31.7647 28.0978 32.7648 27.4978 32.7648 26.1645C32.7648 26.0312 32.7314 25.9311 32.7314 25.7978C32.6981 25.5311 32.5981 25.2645 32.6648 25.0311C32.6981 24.9311 32.7314 24.8645 32.7648 24.7644C32.7981 24.7311 32.7981 24.6644 32.7981 24.6311C32.8314 24.5311 32.7981 24.4644 32.7981 24.3644C32.7979 24.2643 32.7646 24.131 32.7646 24.031Z" fill="#FFD05B"/>
<path d="M18.2982 24.031H19.5316C19.5649 24.3644 19.7316 24.6976 19.8983 24.9977C19.9649 24.9977 19.9983 25.031 20.0316 25.0976C20.5982 25.6976 20.5649 26.9976 20.5649 27.0976C20.5982 27.1976 20.6316 27.2976 20.6649 27.3976C20.6982 27.4976 20.6649 27.5976 20.5982 27.6643C20.5316 27.731 20.4316 27.731 20.3315 27.731C20.2982 27.731 20.2649 27.731 20.2315 27.6977C20.1982 27.6977 20.1982 27.6643 20.1649 27.631C19.9315 27.331 19.9315 26.931 19.8649 26.5644V26.5311C19.8649 26.4977 19.8315 26.4977 19.7982 26.4977C19.6982 26.4977 19.6649 26.631 19.6649 26.6977C19.6649 27.9644 20.3983 27.8311 20.6316 27.8311C20.6649 27.8311 20.8315 27.9977 20.2649 28.1644C20.1982 28.1978 19.9982 28.0645 19.9648 28.0645C19.7982 28.0311 19.6315 28.1644 19.4648 28.1311C19.2982 28.0978 18.2981 27.4978 18.2981 26.1645C18.2981 26.0312 18.3315 25.9311 18.3315 25.7978C18.3648 25.5311 18.4648 25.2645 18.3981 25.0311C18.3648 24.9311 18.3315 24.8645 18.2981 24.7644C18.2648 24.7311 18.2648 24.6644 18.2648 24.6311C18.2315 24.5311 18.2648 24.4644 18.2648 24.3644C18.2982 24.2643 18.2982 24.131 18.2982 24.031Z" fill="#FFD05B"/>
<path d="M32.7303 12.3963C32.4303 10.7629 31.9969 9.82959 31.9969 9.82959C31.9969 9.82959 30.9303 11.963 30.7969 14.5629C30.7969 14.5629 30.7969 15.5629 30.7969 16.9962L31.1302 24.2296L33.3636 24.9296C33.8303 19.1297 33.2636 14.8964 32.7303 12.3963Z" fill="#E6E9EE"/>
<path d="M31.3313 26.7633L28.7646 24.1966C28.6646 24.0966 28.4978 24.0966 28.3979 24.1966L28.2312 24.3632C28.1313 24.4632 28.1313 24.6299 28.2312 24.7299L31.0979 27.5965C31.1646 27.2966 31.2313 27.0299 31.3313 26.7633Z" fill="#324A5E"/>
<path d="M18.4652 12.3963C18.7653 10.7629 19.1986 9.82959 19.1986 9.82959C19.1986 9.82959 20.2652 11.963 20.3986 14.5629C20.3986 14.5629 20.3986 15.5629 20.3986 16.9962L20.0653 24.2296L17.8653 24.9296C17.3653 19.1297 17.9319 14.8964 18.4652 12.3963Z" fill="#E6E9EE"/>
</g>
<defs>
<clipPath id="clip0_1252_32153">
<rect width="50" height="50" fill="white" transform="translate(0.597656 0.430176)"/>
</clipPath>
</defs>
</svg>
