<svg width="51" height="51" viewBox="0 0 51 51" fill="none" xmlns="http://www.w3.org/2000/svg">
<path d="M2.50781 47.9648L9.22656 45.6211L4.14844 43.2773L2.50781 47.9648Z" fill="#F7B600"/>
<path d="M21.9609 28.7461L12.5078 19.2148L10.9453 23.5898L21.9609 28.7461Z" fill="#FFDD7D"/>
<path d="M10.9453 23.5898L9.22656 28.5117L30.1641 38.2773L31.1797 37.9648L21.9609 28.7461L10.9453 23.5898Z" fill="#F7B600"/>
<path d="M7.58594 33.4336L23.2109 40.6992L30.1641 38.2773L9.22656 28.5117L7.58594 33.4336Z" fill="#FFDD7D"/>
<path d="M5.86719 38.3555L16.1797 43.1992L23.2109 40.6992L7.58594 33.4336L5.86719 38.3555Z" fill="#F7B600"/>
<path d="M5.86719 38.3555L4.14844 43.2773L9.22656 45.6211L16.1797 43.1992L5.86719 38.3555Z" fill="#FFDD7D"/>
<path d="M25.8646 24.6837C31.099 29.84 33.8333 35.6212 31.9583 37.4962C30.0052 39.3712 24.224 36.715 18.9115 31.4806C13.6771 26.3243 10.9427 20.5431 12.8177 18.6681C14.7708 16.7931 20.5521 19.5275 25.8646 24.6837Z" fill="#493816"/>
<path d="M19.3017 11.6366C18.0517 9.83973 19.3798 9.05848 21.0986 9.37098C19.458 7.41786 20.4736 6.01161 23.0517 6.55848C23.833 6.71473 22.7392 8.04286 22.0361 8.04286C24.1455 9.60536 22.9736 11.3241 20.708 10.9335C22.7392 13.6679 19.3017 12.9647 17.7392 13.121C17.3486 15.1522 19.6923 17.496 18.9111 17.496C17.1923 17.496 14.3798 11.0116 19.3017 11.6366Z" fill="#42ADE2"/>
<path d="M35.7116 15.3876C34.5397 15.9345 31.2585 10.7782 35.321 10.7001C32.9772 8.59074 33.2897 7.57511 36.4147 7.49699C32.821 3.90324 38.5241 2.65324 39.071 4.52824C39.2272 5.07511 37.3522 4.05949 36.7272 5.07511C36.0241 6.24699 41.1022 9.29386 35.8678 9.05949C37.821 11.0126 37.8991 11.9501 34.8522 12.2626C35.2428 12.8876 36.4928 15.0751 35.7116 15.3876Z" fill="#FF8736"/>
<path d="M37.0391 27.5742L38.2109 26.5586C38.2109 26.5586 39.3047 28.1992 40.0859 28.8242C40.7109 26.0117 40.5547 24.3711 43.7578 26.2461C41.9609 21.4023 44.9297 23.1992 47.8203 24.5273C47.6641 23.2773 47.8203 23.4336 49.0703 23.043C50.1641 27.1836 47.1953 25.9336 44.8516 24.6055C46.2578 28.3555 44.7734 28.1211 41.8047 26.8711C41.7266 28.4336 41.2578 30.2305 40.3203 30.3867C39.2266 30.6992 37.0391 27.5742 37.0391 27.5742Z" fill="#ED4C5C"/>
<path d="M28.2891 16.0117C26.8828 17.8867 24.6172 18.9023 22.9766 20.543C21.2578 22.2617 20.2422 26.9492 20.2422 26.9492C20.2422 26.9492 20.8672 22.0273 22.5078 20.1523C23.9922 18.4336 26.1797 17.1836 27.3516 15.2305C29.3828 11.6367 27.5078 6.94922 24.8516 4.21484C25.3984 3.74609 26.1797 3.12109 26.5703 2.65234C29.1484 5.85547 31.3359 12.0273 28.2891 16.0117Z" fill="#C28FEF"/>
<path d="M30.7109 19.9967C28.6797 21.481 27.1953 23.6685 25.7891 25.6998C24.5391 27.4967 20.5547 29.7623 20.5547 29.7623C20.5547 29.7623 24.3047 27.1842 25.4766 25.3092C26.8828 22.9654 28.2891 20.5435 30.4766 18.8248C34.8516 15.4654 41.1797 15.7779 46.1016 17.5748C45.7891 18.2779 45.2422 19.7623 45.2422 19.7623C45.2422 19.7623 34.8516 16.9498 30.7109 19.9967Z" fill="#FF8736"/>
<path d="M39.3789 19.6074C38.0508 21.3262 37.4258 23.4355 36.4102 25.3887C35.4727 27.1855 34.2227 28.9043 32.4258 29.8418C30.3945 30.8574 25.9414 30.5449 25.9414 30.5449C25.9414 30.5449 30.3945 30.4668 32.2695 29.2168C34.1445 27.9668 35.1602 25.7793 35.8633 23.748C37.2695 19.8418 38.9883 15.623 43.0508 13.9043C43.2852 14.6074 43.832 16.0918 43.832 16.0918C43.832 16.0918 41.5664 16.7168 39.3789 19.6074Z" fill="#42ADE2"/>
<path d="M3.44922 11.5012L5.65859 9.29102L7.86875 11.5004L5.65937 13.7113L3.44922 11.5012Z" fill="#42ADE2"/>
<path d="M6.55078 18.432L8.75938 16.2227L10.9688 18.432L8.75938 20.6414L6.55078 18.432Z" fill="#FF8736"/>
<path d="M12.1641 7.98281L14.3734 5.77344L16.5828 7.98281L14.3734 10.1922L12.1641 7.98281Z" fill="#ED4C5C"/>
<path d="M36.2617 34.4465L38.4711 32.2363L40.6805 34.4465L38.4711 36.6559L36.2617 34.4465Z" fill="#C28FEF"/>
<path d="M31.3398 42.0199L33.5492 39.8105L35.7594 42.0207L33.5492 44.2301L31.3398 42.0199Z" fill="#ED4C5C"/>
<path d="M41.0078 43.7512L43.2172 41.541L45.4266 43.7512L43.2172 45.9605L41.0078 43.7512Z" fill="#FF8736"/>
<path d="M43.1914 33.6898L45.4008 31.4805L47.6102 33.6898L45.4008 35.9L43.1914 33.6898Z" fill="#42ADE2"/>
<path d="M39.5039 10.3254L41.7133 8.11523L43.9234 10.3254L41.7141 12.5348L39.5039 10.3254Z" fill="#42ADE2"/>
<path d="M15.8242 23.5844L18.0344 21.375L20.2437 23.5844L18.0344 25.7945L15.8242 23.5844Z" fill="#ED4C5C"/>
</svg>
