<svg width="49" height="48" viewBox="0 0 49 48" fill="none" xmlns="http://www.w3.org/2000/svg">
<rect x="0.152344" width="48" height="48" rx="16" fill="#F3F4F6" fill-opacity="0.15"/>
<path d="M34.1223 30.33C34.1223 30.69 34.0423 31.06 33.8723 31.42C33.7023 31.78 33.4823 32.12 33.1923 32.44C32.7023 32.98 32.1623 33.37 31.5523 33.62C30.9523 33.87 30.3023 34 29.6023 34C28.5823 34 27.4923 33.76 26.3423 33.27C25.1923 32.78 24.0423 32.12 22.9023 31.29C21.7523 30.45 20.6623 29.52 19.6223 28.49C18.5923 27.45 17.6623 26.36 16.8323 25.22C16.0123 24.08 15.3523 22.94 14.8723 21.81C14.3923 20.67 14.1523 19.58 14.1523 18.54C14.1523 17.86 14.2723 17.21 14.5123 16.61C14.7523 16 15.1323 15.44 15.6623 14.94C16.3023 14.31 17.0023 14 17.7423 14C18.0223 14 18.3023 14.06 18.5523 14.18C18.8123 14.3 19.0423 14.48 19.2223 14.74L21.5423 18.01C21.7223 18.26 21.8523 18.49 21.9423 18.71C22.0323 18.92 22.0823 19.13 22.0823 19.32C22.0823 19.56 22.0123 19.8 21.8723 20.03C21.7423 20.26 21.5523 20.5 21.3123 20.74L20.5523 21.53C20.4423 21.64 20.3923 21.77 20.3923 21.93C20.3923 22.01 20.4023 22.08 20.4223 22.16C20.4523 22.24 20.4823 22.3 20.5023 22.36C20.6823 22.69 20.9923 23.12 21.4323 23.64C21.8823 24.16 22.3623 24.69 22.8823 25.22C23.4223 25.75 23.9423 26.24 24.4723 26.69C24.9923 27.13 25.4223 27.43 25.7623 27.61C25.8123 27.63 25.8723 27.66 25.9423 27.69C26.0223 27.72 26.1023 27.73 26.1923 27.73C26.3623 27.73 26.4923 27.67 26.6023 27.56L27.3623 26.81C27.6123 26.56 27.8523 26.37 28.0823 26.25C28.3123 26.11 28.5423 26.04 28.7923 26.04C28.9823 26.04 29.1823 26.08 29.4023 26.17C29.6223 26.26 29.8523 26.39 30.1023 26.56L33.4123 28.91C33.6723 29.09 33.8523 29.3 33.9623 29.55C34.0623 29.8 34.1223 30.05 34.1223 30.33Z" stroke="white" stroke-width="1.5" stroke-miterlimit="10"/>
</svg>
