<svg width="51" height="51" viewBox="0 0 51 51" fill="none" xmlns="http://www.w3.org/2000/svg">
<g clip-path="url(#clip0_1252_32085)">
<path d="M25.5976 50.43C39.4046 50.43 50.5975 39.2371 50.5975 25.4301C50.5975 11.623 39.4046 0.430176 25.5976 0.430176C11.7905 0.430176 0.597656 11.623 0.597656 25.4301C0.597656 39.2371 11.7905 50.43 25.5976 50.43Z" fill="#E6F3FF"/>
<path d="M50.5977 25.4301C50.5977 25.4068 50.5968 25.3838 50.5968 25.3605L47.1006 21.8643L45.0689 23.4304L32.7957 11.157L19.5785 23.058L15.8516 24.3511L20.5059 29.0054L19.7581 29.0216L23.9096 33.1731C23.9096 33.1731 31.6666 42.6788 36.1837 48.0826C44.6986 44.0967 50.5977 35.4531 50.5977 25.4301Z" fill="#CFDBE6"/>
<path d="M41.9262 40.0401C41.4297 40.0401 41.0273 39.6378 41.0273 39.1413V26.1085C41.0273 25.6121 41.4297 25.2097 41.9262 25.2097C42.4227 25.2097 42.825 25.6121 42.825 26.1085V39.1413C42.8249 39.6378 42.4226 40.0401 41.9262 40.0401Z" fill="#FFD15D"/>
<path d="M41.9844 25.2153V40.0345C42.4541 40.005 42.827 39.6185 42.827 39.1414V26.1086C42.827 25.6313 42.454 25.245 41.9844 25.2153Z" fill="#F9B54C"/>
<path d="M28.048 31.6349V28.918H23.148V31.6349C23.148 31.8517 22.9723 32.0275 22.7555 32.0275H19.3789V41.4036H31.8174V32.0275H28.4409C28.2237 32.0275 28.048 31.8517 28.048 31.6349Z" fill="#FED8B2"/>
<path d="M31.8181 32.0275H28.4416C28.2248 32.0275 28.049 31.8517 28.049 31.6349V28.918H25.543V41.4036H31.8183V32.0275H31.8181Z" fill="#EABE96"/>
<path d="M17.4543 25.183C18.5358 25.183 19.4125 24.3063 19.4125 23.2248C19.4125 22.1433 18.5358 21.2666 17.4543 21.2666C16.3728 21.2666 15.4961 22.1433 15.4961 23.2248C15.4961 24.3063 16.3728 25.183 17.4543 25.183Z" fill="#FED8B2"/>
<path d="M33.3254 25.183C34.4069 25.183 35.2836 24.3063 35.2836 23.2248C35.2836 22.1433 34.4069 21.2666 33.3254 21.2666C32.2439 21.2666 31.3672 22.1433 31.3672 23.2248C31.3672 24.3063 32.2439 25.183 33.3254 25.183Z" fill="#EABE96"/>
<path d="M25.609 31.38H25.1677C21.0861 31.38 17.7773 28.0712 17.7773 23.9896V17.242C17.7773 13.1603 21.0861 9.85156 25.1677 9.85156H25.609C29.6906 9.85156 32.9994 13.1603 32.9994 17.242V23.9896C32.9994 28.0713 29.6906 31.38 25.609 31.38Z" fill="#F4E3C3"/>
<path d="M25.6109 9.85156H25.543V31.3799H25.6109C29.6926 31.3799 33.0013 28.0711 33.0013 23.9895V17.2419C33.0013 13.1603 29.6926 9.85156 25.6109 9.85156Z" fill="#FED8B2"/>
<path d="M25.1487 8.92896C20.7173 8.92896 17.125 12.5213 17.125 16.9528V17.5734V23.2254H18.3029V19.9107C18.3027 19.9107 18.3024 19.9107 18.3022 19.9107C20.7861 19.6584 23.2406 19.2421 25.5411 18.4952V8.92896H25.1487Z" fill="#FD8469"/>
<path d="M32.1999 12.3489C30.7484 10.2814 28.3478 8.92871 25.6299 8.92871H25.543V18.4948C26.5532 18.1669 27.5342 17.7757 28.4744 17.3057C29.583 18.5788 30.8633 19.7157 32.2765 20.6378V23.2248H33.6537V18.9995V16.9523C33.6538 15.2391 33.1151 13.6524 32.1999 12.3489Z" fill="#FC6F58"/>
<path d="M21.8002 23.117C22.2206 23.117 22.5613 22.7762 22.5613 22.3559C22.5613 21.9355 22.2206 21.5947 21.8002 21.5947C21.3798 21.5947 21.0391 21.9355 21.0391 22.3559C21.0391 22.7762 21.3798 23.117 21.8002 23.117Z" fill="#59595B"/>
<path d="M28.976 23.117C29.3963 23.117 29.7371 22.7762 29.7371 22.3559C29.7371 21.9355 29.3963 21.5947 28.976 21.5947C28.5556 21.5947 28.2148 21.9355 28.2148 22.3559C28.2148 22.7762 28.5556 23.117 28.976 23.117Z" fill="#272525"/>
<path d="M27.455 25.6855C27.2224 25.6855 27.0341 25.8739 27.0341 26.1064C27.0341 26.9618 26.3773 27.6664 25.5418 27.7438C25.4915 27.7485 25.4406 27.7516 25.3891 27.7516C24.482 27.7516 23.7441 27.0135 23.7441 26.1066C23.7441 25.8741 23.5558 25.6857 23.3232 25.6857C23.0907 25.6857 22.9023 25.8741 22.9023 26.1066C22.9023 27.478 24.0179 28.5933 25.3891 28.5933C25.4406 28.5933 25.4911 28.5887 25.5418 28.5856C26.8418 28.506 27.8758 27.4264 27.8758 26.1065C27.8759 25.8739 27.6875 25.6855 27.455 25.6855Z" fill="#FD8469"/>
<path d="M27.877 26.1064C27.877 25.8739 27.6887 25.6855 27.4561 25.6855C27.2236 25.6855 27.0353 25.8739 27.0353 26.1064C27.0353 26.9618 26.3785 27.6664 25.543 27.7438V28.5856C26.8431 28.5058 27.877 27.4261 27.877 26.1064Z" fill="#FC6F58"/>
<path d="M33.7642 19.7905H17.0977V13.6333C17.0977 12.1054 18.0693 10.7466 19.5153 10.2526L24.4209 8.57705C25.184 8.3164 26.013 8.32148 26.7727 8.59189L31.389 10.2338C32.8131 10.74 33.7643 12.088 33.7643 13.5994V19.7905H33.7642Z" fill="#4CCBFC"/>
<path d="M33.764 13.5991C33.764 12.0877 32.8129 10.7397 31.3887 10.2333L26.7725 8.59145C26.3752 8.45024 25.9588 8.38324 25.543 8.38686V19.7901H33.7639L33.764 13.5991Z" fill="#31BAFD"/>
<path d="M16.7617 20.5266C16.7617 18.8531 20.7187 17.4963 25.6001 17.4963C30.4814 17.4963 34.4384 18.8531 34.4384 20.5266H16.7617Z" fill="#31BAFD"/>
<path d="M25.599 17.4966C25.5802 17.4966 25.5618 17.4971 25.543 17.4971V20.5268H34.4374C34.4374 18.8533 30.4804 17.4966 25.599 17.4966Z" fill="#2B9ED8"/>
<path d="M32.1407 32.0273H29.5337C29.5337 34.3173 27.6773 36.1734 25.3876 36.1734C23.098 36.1734 21.2416 34.317 21.2416 32.0273H18.6345C15.4946 32.0273 12.9492 34.5727 12.9492 37.7127V46.9973C16.6593 49.178 20.9811 50.4298 25.5961 50.4298C30.0391 50.4298 34.2105 49.2694 37.8261 47.2372V37.7127C37.8261 34.5728 35.2806 32.0273 32.1407 32.0273Z" fill="#FFD300"/>
<path d="M32.1434 32.0273H29.5364C29.5364 34.266 27.7618 36.0891 25.543 36.1697V50.4289C25.5616 50.4289 25.5802 50.4299 25.599 50.4299C30.042 50.4299 34.2132 49.2695 37.829 47.2373V37.7127C37.8288 34.5728 35.2833 32.0273 32.1434 32.0273Z" fill="#F4A200"/>
<path d="M20.0434 32.0274H18.6368C18.164 32.0274 17.7048 32.0862 17.2656 32.1949V49.0044C19.8722 49.9265 22.6764 50.4299 25.599 50.4299C28.5217 50.4299 31.3255 49.9248 33.9323 49.0027V32.3162C33.3697 32.1299 32.7686 32.0273 32.1436 32.0273H31.1545V42.0966H20.0434V32.0274Z" fill="#C1321F"/>
<path d="M32.1436 32.0273H31.1546V42.0965H25.543V50.4291C25.5616 50.4291 25.5802 50.4298 25.599 50.4298C28.5218 50.4298 31.3256 49.9247 33.9323 49.0026V32.3161C33.3697 32.1297 32.7688 32.0273 32.1436 32.0273Z" fill="#A82116"/>
<path d="M41.9257 28.0407C39.4685 28.0407 37.4766 26.0489 37.4766 23.5916V22.1086H46.3749V23.5916C46.3747 26.0489 44.3828 28.0407 41.9257 28.0407Z" fill="#FC6F58"/>
<path d="M41.9844 22.1087V28.0395C44.4155 28.0092 46.3773 26.03 46.3773 23.5916V22.1086L41.9844 22.1087Z" fill="#F1543F"/>
<path d="M46.1524 23.457H37.7036C37.108 23.457 36.625 22.9742 36.625 22.3784C36.625 21.7828 37.1078 21.2998 37.7036 21.2998H46.1524C46.748 21.2998 47.231 21.7826 47.231 22.3784C47.231 22.974 46.7481 23.457 46.1524 23.457Z" fill="#C1321F"/>
<path d="M46.1527 21.2998H41.9844V23.457H46.1527C46.7483 23.457 47.2313 22.9742 47.2313 22.3784C47.2313 21.7826 46.7484 21.2998 46.1527 21.2998Z" fill="#A82116"/>
</g>
<defs>
<clipPath id="clip0_1252_32085">
<rect width="50" height="50" fill="white" transform="translate(0.597656 0.430176)"/>
</clipPath>
</defs>
</svg>
