<svg width="64" height="64" viewBox="0 0 64 64" fill="none" xmlns="http://www.w3.org/2000/svg">
<path d="M41.0763 28.58V35.42C41.0763 36.54 40.4763 37.58 39.5063 38.15L33.5662 41.58C32.5962 42.14 31.3963 42.14 30.4163 41.58L24.4762 38.15C23.5062 37.59 22.9062 36.55 22.9062 35.42V28.58C22.9062 27.46 23.5062 26.42 24.4762 25.85L30.4163 22.42C31.3863 21.86 32.5862 21.86 33.5662 22.42L39.5063 25.85C40.4763 26.42 41.0763 27.45 41.0763 28.58Z" stroke="#F9FAFB" stroke-width="1.5" stroke-linecap="round" stroke-linejoin="round"/>
<path d="M32.0019 31.0001C33.2887 31.0001 34.3319 29.9569 34.3319 28.67C34.3319 27.3832 33.2887 26.3401 32.0019 26.3401C30.7151 26.3401 29.6719 27.3832 29.6719 28.67C29.6719 29.9569 30.7151 31.0001 32.0019 31.0001Z" stroke="#F9FAFB" stroke-width="1.5" stroke-linecap="round" stroke-linejoin="round"/>
<path d="M36 36.6601C36 34.8601 34.21 33.4001 32 33.4001C29.79 33.4001 28 34.8601 28 36.6601" stroke="#F9FAFB" stroke-width="1.5" stroke-linecap="round" stroke-linejoin="round"/>
</svg>
