<svg width="21" height="20" viewBox="0 0 21 20" fill="none" xmlns="http://www.w3.org/2000/svg">
<path d="M10.9818 9.05964C10.8984 9.0513 10.7984 9.0513 10.7068 9.05964C8.72344 8.99297 7.14844 7.36797 7.14844 5.36797C7.14844 3.3263 8.79844 1.66797 10.8484 1.66797C12.8901 1.66797 14.5484 3.3263 14.5484 5.36797C14.5401 7.36797 12.9651 8.99297 10.9818 9.05964Z" stroke="#6A318A" stroke-width="1.5" stroke-linecap="round" stroke-linejoin="round"/>
<path d="M6.81328 12.132C4.79661 13.482 4.79661 15.682 6.81328 17.0237C9.10495 18.557 12.8633 18.557 15.1549 17.0237C17.1716 15.6737 17.1716 13.4737 15.1549 12.132C12.8716 10.607 9.11328 10.607 6.81328 12.132Z" stroke="#6A318A" stroke-width="1.5" stroke-linecap="round" stroke-linejoin="round"/>
</svg>
