<svg width="64" height="64" viewBox="0 0 64 64" fill="none" xmlns="http://www.w3.org/2000/svg">
<rect width="64" height="64" rx="24" fill="#F9FAFB"/>
<path d="M41.0763 28.58V35.42C41.0763 36.54 40.4762 37.58 39.5063 38.15L33.5662 41.58C32.5962 42.14 31.3962 42.14 30.4163 41.58L24.4762 38.15C23.5062 37.59 22.9062 36.55 22.9062 35.42V28.58C22.9062 27.46 23.5062 26.42 24.4762 25.85L30.4163 22.42C31.3863 21.86 32.5863 21.86 33.5662 22.42L39.5063 25.85C40.4762 26.42 41.0763 27.45 41.0763 28.58Z" fill="#1F1D2B" stroke="#1F1D2B" stroke-width="1.5" stroke-linecap="round" stroke-linejoin="round"/>
<path d="M32.0019 31.0001C33.2887 31.0001 34.3319 29.9569 34.3319 28.67C34.3319 27.3832 33.2887 26.3401 32.0019 26.3401C30.7151 26.3401 29.6719 27.3832 29.6719 28.67C29.6719 29.9569 30.7151 31.0001 32.0019 31.0001Z" stroke="#F9FAFB" stroke-width="1.5" stroke-linecap="round" stroke-linejoin="round"/>
<path d="M36 36.6601C36 34.8601 34.21 33.4001 32 33.4001C29.79 33.4001 28 34.8601 28 36.6601" stroke="#F9FAFB" stroke-width="1.5" stroke-linecap="round" stroke-linejoin="round"/>
<path d="M20.932 62.136C21.1627 61.6747 21.278 61.444 21.4178 61.2494C21.8839 60.6008 22.5893 60.1648 23.3778 60.038C23.6144 60 23.8723 60 24.3881 60H39.6119C40.1277 60 40.3856 60 40.6222 60.038C41.4107 60.1648 42.1161 60.6008 42.5822 61.2494C42.722 61.444 42.8373 61.6747 43.068 62.136C43.2509 62.5018 43.3424 62.6848 43.3674 62.8301C43.4532 63.3279 43.1544 63.8115 42.6708 63.9574C42.5295 64 42.325 64 41.916 64H22.084C21.675 64 21.4705 64 21.3292 63.9574C20.8457 63.8115 20.5468 63.3279 20.6326 62.8301C20.6576 62.6848 20.7491 62.5018 20.932 62.136Z" fill="#1F1D2B"/>
</svg>
