<svg width="283" height="56" viewBox="0 0 283 56" fill="none" xmlns="http://www.w3.org/2000/svg">
<path d="M5.04721 24.2607V31.7347C5.04721 32.8983 4.1063 33.8431 2.94743 33.8431C1.78857 33.8431 0.847656 32.8983 0.847656 31.7347V24.2607C0.847656 23.0971 1.78857 22.1523 2.94743 22.1523C4.1063 22.1523 5.04721 23.0971 5.04721 24.2607Z" fill="#FDCCBF"/>
<path d="M12.9847 20.8955V35.103C12.9847 36.2666 12.0438 37.2114 10.8849 37.2114C9.72607 37.2114 8.78516 36.2666 8.78516 35.103V20.8955C8.78516 19.7319 9.72607 18.7871 10.8849 18.7871C12.0438 18.7871 12.9847 19.7319 12.9847 20.8955Z" fill="#FFC9BE"/>
<path d="M20.9222 10.2568V45.7381C20.9222 46.9017 19.9813 47.8464 18.8224 47.8464C17.6636 47.8464 16.7227 46.9017 16.7227 45.7381V10.2568C16.7227 9.09319 17.6636 8.14844 18.8224 8.14844C19.9813 8.14844 20.9222 9.09319 20.9222 10.2568Z" fill="#F7BCB4"/>
<path d="M28.8597 20.8232V35.1723C28.8597 36.3359 27.9188 37.2807 26.7599 37.2807C25.6011 37.2807 24.6602 36.3359 24.6602 35.1723V20.8232C24.6602 19.6596 25.6011 18.7148 26.7599 18.7148C27.9188 18.7148 28.8597 19.6596 28.8597 20.8232Z" fill="#FABCB7"/>
<path d="M36.7933 10.3056V45.6911C36.7933 46.8547 35.8524 47.7994 34.6935 47.7994C33.5347 47.7994 32.5938 46.8547 32.5938 45.6911V10.3056C32.5938 9.14201 33.5347 8.19727 34.6935 8.19727C35.8524 8.19727 36.7933 9.14201 36.7933 10.3056Z" fill="#FBC0BF"/>
<path d="M44.7347 16.3447V39.6511C44.7347 40.8147 43.7938 41.7594 42.6349 41.7594C41.4761 41.7594 40.5352 40.8147 40.5352 39.6511V16.3447C40.5352 15.1811 41.4761 14.2363 42.6349 14.2363C43.7938 14.2363 44.7347 15.1811 44.7347 16.3447Z" fill="#FFC7C9"/>
<path d="M52.6722 3.59662V52.3996C52.6722 53.5632 51.7313 54.5079 50.5724 54.5079C49.4136 54.5079 48.4727 53.5632 48.4727 52.3996V3.59662C48.4727 2.43303 49.4136 1.48828 50.5724 1.48828C51.7313 1.48828 52.6722 2.43303 52.6722 3.59662Z" fill="#F8AFBC"/>
<path d="M60.6058 15.1044V40.8953C60.6058 42.0589 59.6649 43.0037 58.506 43.0037C57.3472 43.0037 56.4062 42.0589 56.4062 40.8953V15.1044C56.4062 13.9408 57.3472 12.9961 58.506 12.9961C59.6649 12.9961 60.6058 13.9408 60.6058 15.1044Z" fill="#FFB8C9"/>
<path d="M68.5472 17.2568V38.7414C68.5472 39.905 67.6063 40.8497 66.4474 40.8497C65.2886 40.8497 64.3477 39.905 64.3477 38.7414V17.2568C64.3477 16.0932 65.2886 15.1484 66.4474 15.1484C67.6063 15.1484 68.5472 16.0932 68.5472 17.2568Z" fill="#F6ACC2"/>
<path d="M76.4808 7.09662V48.9031C76.4808 50.0667 75.5399 51.0115 74.381 51.0115C73.2222 51.0115 72.2812 50.0667 72.2812 48.9031V7.09662C72.2812 5.93303 73.2222 4.98828 74.381 4.98828C75.5399 4.98828 76.4808 5.93303 76.4808 7.09662Z" fill="#FEBAD3"/>
<path d="M84.4183 17.2568V38.7421C84.4183 39.9056 83.4774 40.8504 82.3185 40.8504C81.1597 40.8504 80.2188 39.9056 80.2188 38.7421V17.2568C80.2188 16.0932 81.1597 15.1484 82.3185 15.1484C83.4774 15.1484 84.4183 16.0932 84.4183 17.2568Z" fill="#F8A6CB"/>
<path d="M92.3558 10.0361V45.9589C92.3558 47.1225 91.4149 48.0672 90.256 48.0672C89.0972 48.0672 88.1562 47.1225 88.1562 45.9589V10.0361C88.1562 8.87248 89.0972 7.92773 90.256 7.92773C91.4149 7.92773 92.3558 8.87248 92.3558 10.0361Z" fill="#F5A7D5"/>
<path d="M100.293 16.9072V39.0893C100.293 40.2529 99.3524 41.1977 98.1935 41.1977C97.0347 41.1977 96.0938 40.2529 96.0938 39.0893V16.9072C96.0938 15.7436 97.0347 14.7988 98.1935 14.7988C99.3524 14.7988 100.293 15.7436 100.293 16.9072Z" fill="#FFBEE9"/>
<path d="M108.231 16.3642V39.6354C108.231 40.799 107.29 41.7437 106.131 41.7437C104.972 41.7437 104.031 40.799 104.031 39.6354V16.3642C104.031 15.2006 104.972 14.2559 106.131 14.2559C107.29 14.2559 108.231 15.2006 108.231 16.3642Z" fill="#F8AEE4"/>
<path d="M116.168 2.10834V53.8917C116.168 55.0553 115.227 56 114.069 56C112.91 56 111.969 55.0553 111.969 53.8917V2.10834C111.969 0.944748 112.91 0 114.069 0C115.227 0 116.168 0.944748 116.168 2.10834Z" fill="#F1A7E3"/>
<path d="M124.106 9.65717V46.3386C124.106 47.5022 123.165 48.447 122.006 48.447C120.847 48.447 119.906 47.5022 119.906 46.3386V9.65717C119.906 8.49358 120.847 7.54883 122.006 7.54883C123.165 7.54883 124.106 8.49358 124.106 9.65717Z" fill="#F7ABF3"/>
<path d="M132.043 18.9326V37.065C132.043 38.2286 131.102 39.1734 129.944 39.1734C128.785 39.1734 127.844 38.2286 127.844 37.065V18.9326C127.844 17.769 128.785 16.8242 129.944 16.8242C131.102 16.8242 132.043 17.769 132.043 18.9326Z" fill="#F5AFFA"/>
<path d="M139.981 18.0576V37.9427C139.981 39.1063 139.04 40.051 137.881 40.051C136.722 40.051 135.781 39.1063 135.781 37.9427V18.0576C135.781 16.894 136.722 15.9492 137.881 15.9492C139.04 15.9492 139.981 16.894 139.981 18.0576Z" fill="#F5AFFA"/>
<path d="M147.918 7.51264V48.482C147.918 49.6456 146.977 50.5903 145.819 50.5903C144.66 50.5903 143.719 49.6456 143.719 48.482V7.51264C143.719 6.34904 144.66 5.4043 145.819 5.4043C146.977 5.4043 147.918 6.34904 147.918 7.51264Z" fill="#EAADF3"/>
<path d="M155.856 19.9755V36.0245C155.856 37.1881 154.915 38.1328 153.756 38.1328C152.597 38.1328 151.656 37.1881 151.656 36.0245V19.9755C151.656 18.8119 152.597 17.8672 153.756 17.8672C154.915 17.8672 155.856 18.8119 155.856 19.9755Z" fill="#DA97F0"/>
<path d="M163.789 17.5556V38.4427C163.789 39.6063 162.848 40.551 161.69 40.551C160.531 40.551 159.59 39.6063 159.59 38.4427V17.5556C159.59 16.392 160.531 15.4473 161.69 15.4473C162.848 15.4473 163.789 16.392 163.789 17.5556Z" fill="#E0A4FC"/>
<path d="M171.727 6.77631V49.2189C171.727 50.3825 170.786 51.3272 169.627 51.3272C168.468 51.3272 167.527 50.3825 167.527 49.2189V6.77631C167.527 5.61272 168.468 4.66797 169.627 4.66797C170.786 4.66797 171.727 5.61272 171.727 6.77631Z" fill="#C797E5"/>
<path d="M179.668 17.0126V38.988C179.668 40.1515 178.727 41.0963 177.569 41.0963C176.41 41.0963 175.469 40.1515 175.469 38.988V17.0126C175.469 15.849 176.41 14.9043 177.569 14.9043C178.727 14.9043 179.668 15.849 179.668 17.0126Z" fill="#CEAAEF"/>
<path d="M187.602 5.0849V50.9155C187.602 52.0791 186.661 53.0238 185.502 53.0238C184.343 53.0238 183.402 52.0791 183.402 50.9155V5.0849C183.402 3.92131 184.343 2.97656 185.502 2.97656C186.661 2.97656 187.602 3.92131 187.602 5.0849Z" fill="#D4B3FF"/>
<path d="M195.539 16.7997V39.1942C195.539 40.3578 194.598 41.3026 193.44 41.3026C192.281 41.3026 191.34 40.3578 191.34 39.1942V16.7997C191.34 15.6362 192.281 14.6914 193.44 14.6914C194.598 14.6914 195.539 15.6362 195.539 16.7997Z" fill="#D2BFFF"/>
<path d="M203.477 17.3994V38.6002C203.477 39.7638 202.536 40.7086 201.377 40.7086C200.218 40.7086 199.277 39.7638 199.277 38.6002V17.3994C199.277 16.2358 200.218 15.291 201.377 15.291C202.536 15.291 203.477 16.2358 203.477 17.3994Z" fill="#B9B2F2"/>
<path d="M211.414 16.0146V39.9856C211.414 41.1492 210.473 42.094 209.315 42.094C208.156 42.094 207.215 41.1492 207.215 39.9856V16.0146C207.215 14.851 208.156 13.9062 209.315 13.9062C210.473 13.9062 211.414 14.851 211.414 16.0146Z" fill="#D1D4FF"/>
<path d="M219.352 5.66498V50.333C219.352 51.4966 218.411 52.4414 217.252 52.4414C216.093 52.4414 215.152 51.4966 215.152 50.333V5.66498C215.152 4.50139 216.093 3.55664 217.252 3.55664C218.411 3.55664 219.352 4.50139 219.352 5.66498Z" fill="#A3B9FF"/>
<path d="M227.289 21.4072V34.5929C227.289 35.7565 226.348 36.7012 225.19 36.7012C224.031 36.7012 223.09 35.7565 223.09 34.5929V21.4072C223.09 20.2436 224.031 19.2988 225.19 19.2988C226.348 19.2988 227.289 20.2436 227.289 21.4072Z" fill="#8CB2EE"/>
<path d="M235.227 14.1259V41.8686C235.227 43.0322 234.286 43.9769 233.127 43.9769C231.968 43.9769 231.027 43.0322 231.027 41.8686V14.1259C231.027 12.9623 231.968 12.0176 233.127 12.0176C234.286 12.0176 235.227 12.9623 235.227 14.1259Z" fill="#8CB2EE"/>
<path d="M243.16 2.83295V53.1667C243.16 54.3303 242.22 55.275 241.061 55.275C239.902 55.275 238.961 54.3303 238.961 53.1667V2.83295C238.961 1.66936 239.902 0.724609 241.061 0.724609C242.22 0.724609 243.16 1.66936 243.16 2.83295Z" fill="#80CBFF"/>
<path d="M251.098 8.22162V47.7783C251.098 48.9419 250.157 49.8867 248.998 49.8867C247.839 49.8867 246.898 48.9419 246.898 47.7783V8.22162C246.898 7.05803 247.839 6.11328 248.998 6.11328C250.157 6.11328 251.098 7.05803 251.098 8.22162Z" fill="#80CBFF"/>
<path d="M259.035 18.124V37.871C259.035 39.0346 258.095 39.9794 256.936 39.9794C255.777 39.9794 254.836 39.0346 254.836 37.871V18.124C254.836 16.9604 255.777 16.0156 256.936 16.0156C258.095 16.0156 259.035 16.9604 259.035 18.124Z" fill="#A9ECFF"/>
<path d="M266.973 22.9658V33.0319C266.973 34.1955 266.032 35.1403 264.873 35.1403C263.714 35.1403 262.773 34.1955 262.773 33.0319V22.9658C262.773 21.8022 263.714 20.8574 264.873 20.8574C266.032 20.8574 266.973 21.8022 266.973 22.9658Z" fill="#A5F8FF"/>
<path d="M274.914 21.4521V34.5423C274.914 35.7059 273.973 36.6507 272.815 36.6507C271.656 36.6507 270.715 35.7059 270.715 34.5423V21.4521C270.715 20.2885 271.656 19.3438 272.815 19.3438C273.973 19.3438 274.914 20.2885 274.914 21.4521Z" fill="#A5F8FF"/>
<path d="M282.848 24.8095V31.1905C282.848 32.3541 281.907 33.2988 280.748 33.2988C279.589 33.2988 278.648 32.3541 278.648 31.1905V24.8095C278.648 23.6459 279.589 22.7012 280.748 22.7012C281.907 22.7012 282.848 23.6459 282.848 24.8095Z" fill="#A5F8FF"/>
</svg>
