<svg width="33" height="33" viewBox="0 0 33 33" fill="none" xmlns="http://www.w3.org/2000/svg">
<path d="M28.849 15.7643C28.849 22.7643 23.1823 28.431 16.1823 28.431C9.18229 28.431 3.51562 22.7643 3.51562 15.7643C3.51562 8.76432 9.18229 3.09766 16.1823 3.09766" stroke="#F9FAFB" stroke-width="2" stroke-linecap="round" stroke-linejoin="round"/>
<path d="M30.1823 29.7643L27.5156 27.0977" stroke="#F9FAFB" stroke-width="2" stroke-linecap="round" stroke-linejoin="round"/>
<path d="M20.1848 8.60443C19.7181 7.13776 20.2648 5.3111 21.8115 4.81776C22.6248 4.5511 23.6248 4.77776 24.1981 5.56443C24.7315 4.7511 25.7715 4.56443 26.5715 4.81776C28.1181 5.3111 28.6648 7.13776 28.1981 8.60443C27.4648 10.9378 24.9048 12.1511 24.1981 12.1511C23.4781 12.1511 20.9448 10.9644 20.1848 8.60443Z" stroke="#F9FAFB" stroke-width="2" stroke-linecap="round" stroke-linejoin="round"/>
</svg>
