<svg width="235" height="226" viewBox="0 0 235 226" fill="none" xmlns="http://www.w3.org/2000/svg">
<g filter="url(#filter0_d_365_17553)">
<circle cx="105.848" cy="117.125" r="90" fill="#F6F8FB"/>
</g>
<mask id="mask0_365_17553" style="mask-type:alpha" maskUnits="userSpaceOnUse" x="15" y="27" width="181" height="181">
<circle cx="105.848" cy="117.125" r="90" fill="#F6F8FB"/>
</mask>
<g mask="url(#mask0_365_17553)">
<mask id="mask1_365_17553" style="mask-type:alpha" maskUnits="userSpaceOnUse" x="15" y="27" width="181" height="181">
<circle cx="105.848" cy="117.125" r="90" fill="#F6F8FB"/>
</mask>
<g mask="url(#mask1_365_17553)">
<g filter="url(#filter1_d_365_17553)">
<rect x="42.0977" y="60.875" width="127.5" height="146.25" rx="15" fill="white"/>
</g>
<rect x="51.0977" y="75.875" width="109.5" height="26.25" rx="6" fill="#F4F6FA"/>
<circle cx="147.098" cy="89.375" r="4.5" fill="#DFE2E8"/>
<circle cx="64.2227" cy="89" r="8.625" fill="#FE725F"/>
<rect x="77.3477" y="83.375" width="21" height="3.75" rx="1.875" fill="#E0E2E8"/>
<rect x="77.3477" y="90.125" width="45" height="4.5" rx="2.25" fill="#E0E2E8"/>
<rect x="51.0977" y="157.625" width="109.5" height="26.25" rx="6" fill="#F4F6FA"/>
<circle cx="147.098" cy="171.125" r="4.5" fill="#DFE2E8"/>
<circle cx="64.2227" cy="170.75" r="8.625" fill="#FE725F"/>
<rect x="77.3477" y="165.125" width="21" height="3.75" rx="1.875" fill="#E0E2E8"/>
<rect x="77.3477" y="171.875" width="45" height="4.5" rx="2.25" fill="#E0E2E8"/>
<rect x="51.0977" y="192.875" width="109.5" height="26.25" rx="6" fill="#F4F6FA"/>
<circle cx="147.098" cy="206.375" r="4.5" fill="#DFE2E8"/>
<circle cx="64.2227" cy="206" r="8.625" fill="#FE725F"/>
<rect x="77.3477" y="200.375" width="21" height="3.75" rx="1.875" fill="#E0E2E8"/>
<g filter="url(#filter2_d_365_17553)">
<rect x="30.8477" y="111.125" width="150" height="37.5" rx="9" fill="#636B81"/>
</g>
<rect x="158.348" y="122.375" width="15" height="15" rx="6" fill="#FE725F"/>
<rect x="70.5977" y="132.125" width="15" height="9" rx="4.5" fill="#E0E2E8"/>
<rect x="87.0977" y="132.125" width="15" height="9" rx="4.5" fill="#E0E2E8"/>
<rect x="103.598" y="132.125" width="15" height="9" rx="4.5" fill="#E0E2E8"/>
<rect x="120.098" y="132.125" width="15" height="9" rx="4.5" fill="#E0E2E8"/>
<rect x="38.3477" y="132.125" width="27.75" height="9" rx="4.5" fill="#E0E2E8"/>
<rect x="38.3477" y="118.625" width="43.5" height="9" rx="4.5" fill="#E0E2E8"/>
</g>
</g>
<g filter="url(#filter3_d_365_17553)">
<mask id="path-27-outside-1_365_17553" maskUnits="userSpaceOnUse" x="134.098" y="143.875" width="11" height="13" fill="black">
<rect fill="white" x="134.098" y="143.875" width="11" height="13"/>
<path fill-rule="evenodd" clip-rule="evenodd" d="M137.467 151.051L136.919 150.215C136.545 149.643 135.749 149.435 135.139 149.748L135.281 149.675C135.13 149.753 135.058 149.947 135.12 150.108L135.878 152.069C135.998 152.38 136.305 152.82 136.559 153.04C136.559 153.04 138.084 154.303 138.084 154.776V155.375H140.555L141.173 154.14L141.79 155.375H142.408V154.776C142.408 154.303 143.34 152.812 143.34 152.812C143.511 152.522 143.654 152.012 143.654 151.673V149.181C143.643 148.629 143.174 148.182 142.595 148.182C142.306 148.182 142.071 148.406 142.071 148.682V148.881C142.071 148.33 141.602 147.883 141.024 147.883C140.734 147.883 140.5 148.106 140.5 148.382V148.582C140.5 148.03 140.031 147.583 139.452 147.583C139.162 147.583 138.928 147.806 138.928 148.082V148.282C138.928 148.193 138.919 148.123 138.9 148.067L138.74 145.493C138.719 145.145 138.425 144.875 138.084 144.875C137.741 144.875 137.467 145.151 137.467 145.493V147.963V151.051ZM141.802 150.434H142.419V152.904H141.802V150.434ZM140.566 150.434H141.184V152.904H140.566V150.434ZM139.331 150.434H139.949V152.904H139.331V150.434Z"/>
</mask>
<path fill-rule="evenodd" clip-rule="evenodd" d="M137.467 151.051L136.919 150.215C136.545 149.643 135.749 149.435 135.139 149.748L135.281 149.675C135.13 149.753 135.058 149.947 135.12 150.108L135.878 152.069C135.998 152.38 136.305 152.82 136.559 153.04C136.559 153.04 138.084 154.303 138.084 154.776V155.375H140.555L141.173 154.14L141.79 155.375H142.408V154.776C142.408 154.303 143.34 152.812 143.34 152.812C143.511 152.522 143.654 152.012 143.654 151.673V149.181C143.643 148.629 143.174 148.182 142.595 148.182C142.306 148.182 142.071 148.406 142.071 148.682V148.881C142.071 148.33 141.602 147.883 141.024 147.883C140.734 147.883 140.5 148.106 140.5 148.382V148.582C140.5 148.03 140.031 147.583 139.452 147.583C139.162 147.583 138.928 147.806 138.928 148.082V148.282C138.928 148.193 138.919 148.123 138.9 148.067L138.74 145.493C138.719 145.145 138.425 144.875 138.084 144.875C137.741 144.875 137.467 145.151 137.467 145.493V147.963V151.051ZM141.802 150.434H142.419V152.904H141.802V150.434ZM140.566 150.434H141.184V152.904H140.566V150.434ZM139.331 150.434H139.949V152.904H139.331V150.434Z" fill="white"/>
<path d="M137.467 151.051L136.839 151.462L138.217 153.567V151.051H137.467ZM136.919 150.215L137.547 149.804L136.919 150.215ZM135.12 150.108L134.42 150.378L135.12 150.108ZM135.878 152.069L136.578 151.799L135.878 152.069ZM136.559 153.04L136.068 153.607L136.074 153.613L136.081 153.618L136.559 153.04ZM138.084 155.375H137.334V156.125H138.084V155.375ZM140.555 155.375V156.125H141.018L141.226 155.71L140.555 155.375ZM141.173 154.14L141.843 153.804L141.173 152.463L140.502 153.804L141.173 154.14ZM141.79 155.375L141.119 155.71L141.327 156.125H141.79V155.375ZM142.408 155.375V156.125H143.158V155.375H142.408ZM143.34 152.812L143.976 153.21L143.981 153.202L143.985 153.194L143.34 152.812ZM143.654 149.181H144.404V149.174L144.404 149.166L143.654 149.181ZM138.9 148.067L138.152 148.113L138.158 148.209L138.188 148.301L138.9 148.067ZM138.74 145.493L137.992 145.54L138.74 145.493ZM137.467 145.493H136.717H137.467ZM142.419 150.434H143.169V149.684H142.419V150.434ZM142.419 152.904V153.654H143.169V152.904H142.419ZM141.802 152.904H141.052V153.654H141.802V152.904ZM141.184 150.434H141.934V149.684H141.184V150.434ZM141.184 152.904V153.654H141.934V152.904H141.184ZM140.566 152.904H139.816V153.654H140.566V152.904ZM139.949 150.434H140.699V149.684H139.949V150.434ZM139.949 152.904V153.654H140.699V152.904H139.949ZM139.331 152.904H138.581V153.654H139.331V152.904ZM138.094 150.641L137.547 149.804L136.292 150.625L136.839 151.462L138.094 150.641ZM137.547 149.804C136.961 148.909 135.745 148.594 134.797 149.081L135.482 150.415C135.753 150.276 136.129 150.378 136.292 150.625L137.547 149.804ZM135.482 150.415L135.624 150.342L134.938 149.008L134.797 149.081L135.482 150.415ZM134.938 149.008C134.439 149.265 134.223 149.867 134.42 150.378L135.82 149.837C135.86 149.943 135.852 150.045 135.823 150.123C135.794 150.201 135.732 150.287 135.624 150.342L134.938 149.008ZM134.42 150.378L135.178 152.339L136.578 151.799L135.82 149.837L134.42 150.378ZM135.178 152.339C135.342 152.763 135.72 153.305 136.068 153.607L137.051 152.474C136.89 152.334 136.654 151.997 136.578 151.799L135.178 152.339ZM136.559 153.04C136.081 153.618 136.081 153.618 136.081 153.618C136.081 153.618 136.081 153.618 136.081 153.618C136.081 153.618 136.081 153.618 136.081 153.618C136.081 153.618 136.081 153.618 136.081 153.618C136.082 153.619 136.083 153.62 136.084 153.62C136.086 153.622 136.09 153.625 136.095 153.63C136.105 153.638 136.12 153.651 136.139 153.667C136.178 153.7 136.234 153.749 136.302 153.808C136.439 153.928 136.619 154.091 136.796 154.266C136.977 154.443 137.14 154.618 137.253 154.764C137.309 154.837 137.34 154.887 137.354 154.913C137.376 154.954 137.334 154.897 137.334 154.776H138.834C138.834 154.537 138.745 154.337 138.684 154.218C138.614 154.085 138.526 153.958 138.439 153.846C138.266 153.622 138.048 153.393 137.848 153.196C137.644 152.996 137.442 152.813 137.293 152.682C137.218 152.616 137.155 152.562 137.111 152.524C137.088 152.505 137.071 152.49 137.058 152.48C137.052 152.475 137.047 152.471 137.044 152.468C137.042 152.466 137.041 152.465 137.04 152.464C137.039 152.464 137.039 152.464 137.038 152.463C137.038 152.463 137.038 152.463 137.038 152.463C137.038 152.463 137.038 152.463 137.038 152.463C137.038 152.463 137.038 152.463 136.559 153.04ZM137.334 154.776V155.375H138.834V154.776H137.334ZM138.084 156.125H140.555V154.625H138.084V156.125ZM141.226 155.71L141.843 154.475L140.502 153.804L139.884 155.04L141.226 155.71ZM140.502 154.475L141.119 155.71L142.461 155.04L141.843 153.804L140.502 154.475ZM141.79 156.125H142.408V154.625H141.79V156.125ZM143.158 155.375V154.776H141.658V155.375H143.158ZM143.158 154.776C143.158 154.828 143.154 154.776 143.244 154.562C143.318 154.387 143.422 154.179 143.534 153.973C143.644 153.769 143.755 153.577 143.839 153.435C143.881 153.365 143.916 153.308 143.94 153.268C143.952 153.249 143.961 153.234 143.967 153.224C143.97 153.219 143.972 153.215 143.974 153.213C143.975 153.211 143.975 153.211 143.975 153.21C143.976 153.21 143.976 153.21 143.976 153.21C143.976 153.21 143.976 153.21 143.976 153.21C143.976 153.21 143.976 153.21 143.976 153.21C143.976 153.21 143.976 153.21 143.34 152.812C142.704 152.415 142.704 152.415 142.704 152.415C142.704 152.415 142.704 152.415 142.704 152.415C142.704 152.415 142.704 152.415 142.703 152.415C142.703 152.415 142.703 152.416 142.703 152.416C142.702 152.417 142.701 152.419 142.7 152.42C142.698 152.424 142.695 152.428 142.692 152.434C142.684 152.447 142.673 152.464 142.66 152.486C142.633 152.53 142.595 152.593 142.549 152.67C142.459 152.822 142.337 153.033 142.214 153.26C142.092 153.486 141.963 153.74 141.863 153.977C141.779 154.176 141.658 154.487 141.658 154.776H143.158ZM143.985 153.194C144.115 152.975 144.216 152.708 144.284 152.462C144.352 152.216 144.404 151.933 144.404 151.673H142.904C142.904 151.753 142.885 151.894 142.839 152.061C142.793 152.227 142.736 152.36 142.694 152.43L143.985 153.194ZM144.404 151.673V149.181H142.904V151.673H144.404ZM144.404 149.166C144.384 148.182 143.558 147.432 142.595 147.432V148.932C142.79 148.932 142.902 149.077 142.904 149.196L144.404 149.166ZM142.595 147.432C141.926 147.432 141.321 147.958 141.321 148.682H142.821C142.821 148.853 142.686 148.932 142.595 148.932V147.432ZM141.321 148.682V148.881H142.821V148.682H141.321ZM142.821 148.881C142.821 147.882 141.983 147.133 141.024 147.133V148.633C141.222 148.633 141.321 148.777 141.321 148.881H142.821ZM141.024 147.133C140.354 147.133 139.75 147.659 139.75 148.382H141.25C141.25 148.554 141.114 148.633 141.024 148.633V147.133ZM139.75 148.382V148.582H141.25V148.382H139.75ZM141.25 148.582C141.25 147.582 140.411 146.833 139.452 146.833V148.333C139.651 148.333 139.75 148.477 139.75 148.582H141.25ZM139.452 146.833C138.782 146.833 138.178 147.359 138.178 148.082H139.678C139.678 148.254 139.543 148.333 139.452 148.333V146.833ZM138.178 148.082V148.282H139.678V148.082H138.178ZM139.678 148.282C139.678 148.146 139.664 147.99 139.613 147.833L138.188 148.301C138.18 148.277 138.178 148.262 138.177 148.259C138.177 148.257 138.178 148.264 138.178 148.282H139.678ZM139.649 148.021L139.489 145.447L137.992 145.54L138.152 148.113L139.649 148.021ZM139.489 145.447C139.443 144.701 138.819 144.125 138.084 144.125V145.625C138.054 145.625 138.032 145.613 138.02 145.601C138.006 145.589 137.994 145.567 137.992 145.54L139.489 145.447ZM138.084 144.125C137.325 144.125 136.717 144.739 136.717 145.493H138.217C138.217 145.564 138.157 145.625 138.084 145.625V144.125ZM136.717 145.493V147.963H138.217V145.493H136.717ZM136.717 147.963V151.051H138.217V147.963H136.717ZM141.802 151.184H142.419L142.419 149.684H141.802V151.184ZM141.669 150.434V152.904H143.169V150.434H141.669ZM142.419 152.154H141.802V153.654H142.419V152.154ZM142.552 152.904V150.434H141.052V152.904H142.552ZM140.566 151.184H141.184V149.684H140.566V151.184ZM140.434 150.434V152.904H141.934V150.434H140.434ZM141.184 152.154H140.566V153.654H141.184V152.154ZM141.316 152.904V150.434H139.816V152.904H141.316ZM139.331 151.184H139.949L139.949 149.684H139.331V151.184ZM139.199 150.434V152.904H140.699V150.434H139.199ZM139.949 152.154H139.331V153.654H139.949V152.154ZM140.081 152.904V150.434H138.581V152.904H140.081Z" fill="black" fill-opacity="0.8" mask="url(#path-27-outside-1_365_17553)"/>
</g>
<g filter="url(#filter4_d_365_17553)">
<circle cx="177.098" cy="55.625" r="12.75" fill="white"/>
</g>
<path d="M178.159 58.607C178.076 58.607 177.993 58.5764 177.927 58.5108C177.8 58.3839 177.8 58.1739 177.927 58.047L180.351 55.6233L177.927 53.1995C177.8 53.0727 177.8 52.8627 177.927 52.7358C178.054 52.6089 178.264 52.6089 178.391 52.7358L181.047 55.3914C181.173 55.5183 181.173 55.7283 181.047 55.8552L178.391 58.5108C178.325 58.5764 178.242 58.607 178.159 58.607Z" fill="#636B81"/>
<path d="M180.742 55.9531H173.379C173.2 55.9531 173.051 55.8044 173.051 55.625C173.051 55.4456 173.2 55.2969 173.379 55.2969H180.742C180.921 55.2969 181.07 55.4456 181.07 55.625C181.07 55.8044 180.921 55.9531 180.742 55.9531Z" fill="#636B81"/>
<circle cx="19.9676" cy="197.745" r="1.86837" transform="rotate(180 19.9676 197.745)" fill="#F1F3F7"/>
<path d="M27.2999 187.385L25.9155 188.769L24.9145 187.768L26.2989 186.384L24.7343 184.819L25.7889 183.765L27.3536 185.329L28.7418 183.941L29.7427 184.942L28.3545 186.33L29.8539 187.83L28.7993 188.884L27.2999 187.385Z" fill="#FE725F"/>
<circle cx="1.86837" cy="1.86837" r="1.86837" transform="matrix(1 0 0 -1 49.2539 33.8633)" fill="#C1CBD4"/>
<circle cx="1.86837" cy="1.86837" r="1.86837" transform="matrix(1 0 0 -1 29.0039 37.6133)" fill="#F1F3F7"/>
<path d="M27.29 57.6348L28.6744 59.0192L29.6753 58.0183L28.2909 56.6339L29.8556 55.0692L28.8009 54.0146L27.2363 55.5793L25.848 54.191L24.8471 55.1919L26.2354 56.5802L24.7359 58.0797L25.7905 59.1343L27.29 57.6348Z" fill="#FE725F"/>
<circle cx="193.979" cy="205.257" r="1.86837" transform="rotate(180 193.979 205.257)" fill="#C1CBD4"/>
<circle cx="165.468" cy="201.495" r="1.86837" transform="rotate(180 165.468 201.495)" fill="#F1F3F7"/>
<defs>
<filter id="filter0_d_365_17553" x="0.847656" y="15.125" width="210" height="210" filterUnits="userSpaceOnUse" color-interpolation-filters="sRGB">
<feFlood flood-opacity="0" result="BackgroundImageFix"/>
<feColorMatrix in="SourceAlpha" type="matrix" values="0 0 0 0 0 0 0 0 0 0 0 0 0 0 0 0 0 0 127 0" result="hardAlpha"/>
<feOffset dy="3"/>
<feGaussianBlur stdDeviation="7.5"/>
<feComposite in2="hardAlpha" operator="out"/>
<feColorMatrix type="matrix" values="0 0 0 0 0.905882 0 0 0 0 0.933333 0 0 0 0 0.984314 0 0 0 0.15 0"/>
<feBlend mode="normal" in2="BackgroundImageFix" result="effect1_dropShadow_365_17553"/>
<feBlend mode="normal" in="SourceGraphic" in2="effect1_dropShadow_365_17553" result="shape"/>
</filter>
<filter id="filter1_d_365_17553" x="-32.9023" y="-11.125" width="277.5" height="296.25" filterUnits="userSpaceOnUse" color-interpolation-filters="sRGB">
<feFlood flood-opacity="0" result="BackgroundImageFix"/>
<feColorMatrix in="SourceAlpha" type="matrix" values="0 0 0 0 0 0 0 0 0 0 0 0 0 0 0 0 0 0 127 0" result="hardAlpha"/>
<feOffset dy="3"/>
<feGaussianBlur stdDeviation="37.5"/>
<feComposite in2="hardAlpha" operator="out"/>
<feColorMatrix type="matrix" values="0 0 0 0 0.388235 0 0 0 0 0.419608 0 0 0 0 0.505882 0 0 0 0.15 0"/>
<feBlend mode="normal" in2="BackgroundImageFix" result="effect1_dropShadow_365_17553"/>
<feBlend mode="normal" in="SourceGraphic" in2="effect1_dropShadow_365_17553" result="shape"/>
</filter>
<filter id="filter2_d_365_17553" x="-44.1523" y="39.125" width="300" height="187.5" filterUnits="userSpaceOnUse" color-interpolation-filters="sRGB">
<feFlood flood-opacity="0" result="BackgroundImageFix"/>
<feColorMatrix in="SourceAlpha" type="matrix" values="0 0 0 0 0 0 0 0 0 0 0 0 0 0 0 0 0 0 127 0" result="hardAlpha"/>
<feOffset dy="3"/>
<feGaussianBlur stdDeviation="37.5"/>
<feComposite in2="hardAlpha" operator="out"/>
<feColorMatrix type="matrix" values="0 0 0 0 0.388235 0 0 0 0 0.419608 0 0 0 0 0.505882 0 0 0 0.15 0"/>
<feBlend mode="normal" in2="BackgroundImageFix" result="effect1_dropShadow_365_17553"/>
<feBlend mode="normal" in="SourceGraphic" in2="effect1_dropShadow_365_17553" result="shape"/>
</filter>
<filter id="filter3_d_365_17553" x="132.098" y="142.625" width="14.5586" height="16.5" filterUnits="userSpaceOnUse" color-interpolation-filters="sRGB">
<feFlood flood-opacity="0" result="BackgroundImageFix"/>
<feColorMatrix in="SourceAlpha" type="matrix" values="0 0 0 0 0 0 0 0 0 0 0 0 0 0 0 0 0 0 127 0" result="hardAlpha"/>
<feOffset dy="0.75"/>
<feGaussianBlur stdDeviation="1.125"/>
<feColorMatrix type="matrix" values="0 0 0 0 0 0 0 0 0 0 0 0 0 0 0 0 0 0 0.2 0"/>
<feBlend mode="normal" in2="BackgroundImageFix" result="effect1_dropShadow_365_17553"/>
<feBlend mode="normal" in="SourceGraphic" in2="effect1_dropShadow_365_17553" result="shape"/>
</filter>
<filter id="filter4_d_365_17553" x="119.348" y="0.875" width="115.5" height="115.5" filterUnits="userSpaceOnUse" color-interpolation-filters="sRGB">
<feFlood flood-opacity="0" result="BackgroundImageFix"/>
<feColorMatrix in="SourceAlpha" type="matrix" values="0 0 0 0 0 0 0 0 0 0 0 0 0 0 0 0 0 0 127 0" result="hardAlpha"/>
<feOffset dy="3"/>
<feGaussianBlur stdDeviation="22.5"/>
<feComposite in2="hardAlpha" operator="out"/>
<feColorMatrix type="matrix" values="0 0 0 0 0.388235 0 0 0 0 0.419608 0 0 0 0 0.505882 0 0 0 0.25 0"/>
<feBlend mode="normal" in2="BackgroundImageFix" result="effect1_dropShadow_365_17553"/>
<feBlend mode="normal" in="SourceGraphic" in2="effect1_dropShadow_365_17553" result="shape"/>
</filter>
</defs>
</svg>
