<svg width="431" height="173" viewBox="0 0 431 173" fill="none" xmlns="http://www.w3.org/2000/svg">
<g filter="url(#filter0_d_215_1646)">
<rect x="16.8477" y="56.4302" width="398" height="52" rx="26" fill="#F3F4F6" fill-opacity="0.25" shape-rendering="crispEdges"/>
</g>
<path d="M44.5156 76.5969H49.5156" stroke="#F9FAFB" stroke-width="1.25" stroke-linecap="round" stroke-linejoin="round"/>
<path d="M44.5156 79.0969H47.0156" stroke="#F9FAFB" stroke-width="1.25" stroke-linecap="round" stroke-linejoin="round"/>
<path d="M50.349 82.0136C50.349 86.3886 46.8073 89.9303 42.4323 89.9303C38.0573 89.9303 34.5156 86.3886 34.5156 82.0136C34.5156 77.6386 38.0573 74.0969 42.4323 74.0969" stroke="#F9FAFB" stroke-width="1.25" stroke-linecap="round" stroke-linejoin="round"/>
<path d="M51.1823 90.7636L49.5156 89.0969" stroke="#F9FAFB" stroke-width="1.25" stroke-linecap="round" stroke-linejoin="round"/>
<path opacity="0.9" d="M67.1387 87.6122C66.6113 87.6122 66.1027 87.5305 65.6127 87.3672C65.1227 87.1992 64.6933 86.9612 64.3247 86.6532C63.9607 86.3452 63.7017 85.9788 63.5477 85.5542L64.6467 85.1412C64.74 85.4025 64.9127 85.6312 65.1647 85.8272C65.4213 86.0185 65.7223 86.1678 66.0677 86.2752C66.413 86.3825 66.77 86.4362 67.1387 86.4362C67.5587 86.4362 67.9483 86.3685 68.3077 86.2332C68.6717 86.0932 68.9657 85.8995 69.1897 85.6522C69.4137 85.4048 69.5257 85.1155 69.5257 84.7842C69.5257 84.4435 69.409 84.1658 69.1757 83.9512C68.9423 83.7318 68.6437 83.5592 68.2797 83.4332C67.9157 83.3025 67.5353 83.2022 67.1387 83.1322C66.462 83.0202 65.8553 82.8615 65.3187 82.6562C64.7867 82.4462 64.3643 82.1545 64.0517 81.7812C63.7437 81.4078 63.5897 80.9155 63.5897 80.3042C63.5897 79.7348 63.753 79.2378 64.0797 78.8132C64.411 78.3885 64.8473 78.0595 65.3887 77.8262C65.93 77.5928 66.5133 77.4762 67.1387 77.4762C67.6567 77.4762 68.1583 77.5578 68.6437 77.7212C69.1337 77.8798 69.5653 78.1132 69.9387 78.4212C70.312 78.7292 70.5803 79.1048 70.7437 79.5482L69.6307 79.9542C69.5373 79.6882 69.3623 79.4595 69.1057 79.2682C68.8537 79.0722 68.555 78.9228 68.2097 78.8202C67.869 78.7128 67.512 78.6592 67.1387 78.6592C66.7233 78.6545 66.336 78.7222 65.9767 78.8622C65.6173 79.0022 65.3257 79.1958 65.1017 79.4432C64.8777 79.6905 64.7657 79.9775 64.7657 80.3042C64.7657 80.6962 64.8683 80.9972 65.0737 81.2072C65.2837 81.4125 65.5683 81.5665 65.9277 81.6692C66.287 81.7718 66.6907 81.8628 67.1387 81.9422C67.7733 82.0495 68.3613 82.2198 68.9027 82.4532C69.444 82.6818 69.878 82.9875 70.2047 83.3702C70.536 83.7528 70.7017 84.2242 70.7017 84.7842C70.7017 85.3535 70.536 85.8505 70.2047 86.2752C69.878 86.6998 69.444 87.0288 68.9027 87.2622C68.3613 87.4955 67.7733 87.6122 67.1387 87.6122ZM75.2442 87.6122C74.6002 87.6122 74.0122 87.4465 73.4802 87.1152C72.9529 86.7838 72.5306 86.3405 72.2132 85.7852C71.9006 85.2252 71.7442 84.6068 71.7442 83.9302C71.7442 83.4168 71.8352 82.9385 72.0172 82.4952C72.1992 82.0472 72.4489 81.6552 72.7662 81.3192C73.0882 80.9785 73.4616 80.7125 73.8862 80.5212C74.3109 80.3298 74.7636 80.2342 75.2442 80.2342C75.7716 80.2342 76.2546 80.3415 76.6932 80.5562C77.1366 80.7662 77.5146 81.0602 77.8272 81.4382C78.1446 81.8162 78.3802 82.2548 78.5342 82.7542C78.6929 83.2535 78.7512 83.7878 78.7092 84.3572H72.9972C73.0532 84.7538 73.1839 85.1085 73.3892 85.4212C73.5946 85.7292 73.8559 85.9742 74.1732 86.1562C74.4952 86.3382 74.8522 86.4315 75.2442 86.4362C75.6642 86.4362 76.0446 86.3288 76.3852 86.1142C76.7259 85.8948 77.0012 85.5962 77.2112 85.2182L78.4082 85.4982C78.1282 86.1188 77.7059 86.6275 77.1412 87.0242C76.5766 87.4162 75.9442 87.6122 75.2442 87.6122ZM72.9622 83.4332H77.5262C77.4889 83.0412 77.3629 82.6842 77.1482 82.3622C76.9336 82.0355 76.6606 81.7742 76.3292 81.5782C75.9979 81.3822 75.6362 81.2842 75.2442 81.2842C74.8522 81.2842 74.4929 81.3798 74.1662 81.5712C73.8396 81.7625 73.5689 82.0215 73.3542 82.3482C73.1442 82.6702 73.0136 83.0318 72.9622 83.4332ZM85.4758 80.4302H86.6518V87.4302H85.4758L85.4268 86.2472C85.2075 86.6532 84.9041 86.9822 84.5168 87.2342C84.1341 87.4862 83.6768 87.6122 83.1448 87.6122C82.6315 87.6122 82.1508 87.5165 81.7028 87.3252C81.2548 87.1292 80.8581 86.8608 80.5128 86.5202C80.1721 86.1748 79.9061 85.7782 79.7148 85.3302C79.5235 84.8822 79.4278 84.3992 79.4278 83.8812C79.4278 83.3818 79.5211 82.9105 79.7078 82.4672C79.8945 82.0238 80.1535 81.6365 80.4848 81.3052C80.8208 80.9692 81.2081 80.7078 81.6468 80.5212C82.0855 80.3298 82.5568 80.2342 83.0608 80.2342C83.6115 80.2342 84.0945 80.3648 84.5098 80.6262C84.9251 80.8828 85.2611 81.2165 85.5178 81.6272L85.4758 80.4302ZM83.1238 86.4712C83.5858 86.4712 83.9848 86.3592 84.3208 86.1352C84.6615 85.9065 84.9228 85.5985 85.1048 85.2112C85.2915 84.8238 85.3848 84.3968 85.3848 83.9302C85.3848 83.4542 85.2915 83.0248 85.1048 82.6422C84.9181 82.2548 84.6545 81.9492 84.3138 81.7252C83.9778 81.4965 83.5811 81.3822 83.1238 81.3822C82.6618 81.3822 82.2418 81.4965 81.8638 81.7252C81.4858 81.9538 81.1848 82.2618 80.9608 82.6492C80.7415 83.0318 80.6318 83.4588 80.6318 83.9302C80.6318 84.4015 80.7461 84.8308 80.9748 85.2182C81.2035 85.6008 81.5068 85.9065 81.8848 86.1352C82.2628 86.3592 82.6758 86.4712 83.1238 86.4712ZM88.0509 87.4302V80.4302H89.2269V81.3052C89.4743 80.9785 89.7869 80.7195 90.1649 80.5282C90.5429 80.3322 90.9536 80.2342 91.3969 80.2342C91.6676 80.2342 91.9289 80.2692 92.1809 80.3392L91.7049 81.5152C91.5136 81.4545 91.3269 81.4242 91.1449 81.4242C90.7949 81.4242 90.4729 81.5105 90.1789 81.6832C89.8896 81.8512 89.6586 82.0798 89.4859 82.3692C89.3133 82.6585 89.2269 82.9805 89.2269 83.3352V87.4302H88.0509ZM97.5087 85.5822L98.5587 86.1492C98.2414 86.5925 97.8377 86.9472 97.3477 87.2132C96.8624 87.4792 96.335 87.6122 95.7657 87.6122C95.1217 87.6122 94.5337 87.4465 94.0017 87.1152C93.4744 86.7838 93.052 86.3405 92.7347 85.7852C92.422 85.2252 92.2657 84.6068 92.2657 83.9302C92.2657 83.4168 92.3567 82.9385 92.5387 82.4952C92.7207 82.0472 92.9704 81.6552 93.2877 81.3192C93.6097 80.9785 93.983 80.7125 94.4077 80.5212C94.8324 80.3298 95.285 80.2342 95.7657 80.2342C96.335 80.2342 96.8624 80.3672 97.3477 80.6332C97.8377 80.8992 98.2414 81.2562 98.5587 81.7042L97.5087 82.2712C97.2847 81.9958 97.0187 81.7835 96.7107 81.6342C96.4027 81.4848 96.0877 81.4102 95.7657 81.4102C95.3317 81.4102 94.9374 81.5268 94.5827 81.7602C94.2327 81.9888 93.955 82.2945 93.7497 82.6772C93.5444 83.0598 93.4417 83.4775 93.4417 83.9302C93.4417 84.3828 93.5444 84.8005 93.7497 85.1832C93.9597 85.5612 94.2397 85.8645 94.5897 86.0932C94.9444 86.3218 95.3364 86.4362 95.7657 86.4362C96.111 86.4362 96.4354 86.3568 96.7387 86.1982C97.042 86.0395 97.2987 85.8342 97.5087 85.5822ZM105.887 83.0762V87.4302H104.711V83.3352C104.711 82.9805 104.625 82.6585 104.452 82.3692C104.28 82.0798 104.049 81.8512 103.759 81.6832C103.47 81.5105 103.148 81.4242 102.793 81.4242C102.443 81.4242 102.121 81.5105 101.827 81.6832C101.538 81.8512 101.307 82.0798 101.134 82.3692C100.962 82.6585 100.875 82.9805 100.875 83.3352V87.4302H99.6994V76.9302H100.875V81.3052C101.123 80.9785 101.435 80.7195 101.813 80.5282C102.191 80.3322 102.602 80.2342 103.045 80.2342C103.568 80.2342 104.044 80.3625 104.473 80.6192C104.907 80.8712 105.25 81.2118 105.502 81.6412C105.759 82.0705 105.887 82.5488 105.887 83.0762ZM116.839 83.0762V87.4302H115.663V83.3352C115.663 82.9805 115.576 82.6585 115.404 82.3692C115.231 82.0798 115 81.8512 114.711 81.6832C114.421 81.5105 114.099 81.4242 113.745 81.4242C113.395 81.4242 113.073 81.5105 112.779 81.6832C112.489 81.8512 112.258 82.0798 112.086 82.3692C111.913 82.6585 111.827 82.9805 111.827 83.3352V87.4302H110.651V76.9302H111.827V81.3052C112.074 80.9785 112.387 80.7195 112.765 80.5282C113.143 80.3322 113.553 80.2342 113.997 80.2342C114.519 80.2342 114.995 80.3625 115.425 80.6192C115.859 80.8712 116.202 81.2118 116.454 81.6412C116.71 82.0705 116.839 82.5488 116.839 83.0762ZM121.182 87.6122C120.538 87.6122 119.95 87.4465 119.418 87.1152C118.89 86.7838 118.468 86.3405 118.151 85.7852C117.838 85.2252 117.682 84.6068 117.682 83.9302C117.682 83.4168 117.773 82.9385 117.955 82.4952C118.137 82.0472 118.386 81.6552 118.704 81.3192C119.026 80.9785 119.399 80.7125 119.824 80.5212C120.248 80.3298 120.701 80.2342 121.182 80.2342C121.709 80.2342 122.192 80.3415 122.631 80.5562C123.074 80.7662 123.452 81.0602 123.765 81.4382C124.082 81.8162 124.318 82.2548 124.472 82.7542C124.63 83.2535 124.689 83.7878 124.647 84.3572H118.935C118.991 84.7538 119.121 85.1085 119.327 85.4212C119.532 85.7292 119.793 85.9742 120.111 86.1562C120.433 86.3382 120.79 86.4315 121.182 86.4362C121.602 86.4362 121.982 86.3288 122.323 86.1142C122.663 85.8948 122.939 85.5962 123.149 85.2182L124.346 85.4982C124.066 86.1188 123.643 86.6275 123.079 87.0242C122.514 87.4162 121.882 87.6122 121.182 87.6122ZM118.9 83.4332H123.464C123.426 83.0412 123.3 82.6842 123.086 82.3622C122.871 82.0355 122.598 81.7742 122.267 81.5782C121.935 81.3822 121.574 81.2842 121.182 81.2842C120.79 81.2842 120.43 81.3798 120.104 81.5712C119.777 81.7625 119.506 82.0215 119.292 82.3482C119.082 82.6702 118.951 83.0318 118.9 83.4332ZM125.826 87.4302V80.4302H127.002V81.3052C127.25 80.9785 127.562 80.7195 127.94 80.5282C128.318 80.3322 128.729 80.2342 129.172 80.2342C129.443 80.2342 129.704 80.2692 129.956 80.3392L129.48 81.5152C129.289 81.4545 129.102 81.4242 128.92 81.4242C128.57 81.4242 128.248 81.5105 127.954 81.6832C127.665 81.8512 127.434 82.0798 127.261 82.3692C127.089 82.6585 127.002 82.9805 127.002 83.3352V87.4302H125.826ZM133.541 87.6122C132.897 87.6122 132.309 87.4465 131.777 87.1152C131.25 86.7838 130.827 86.3405 130.51 85.7852C130.197 85.2252 130.041 84.6068 130.041 83.9302C130.041 83.4168 130.132 82.9385 130.314 82.4952C130.496 82.0472 130.746 81.6552 131.063 81.3192C131.385 80.9785 131.758 80.7125 132.183 80.5212C132.608 80.3298 133.06 80.2342 133.541 80.2342C134.068 80.2342 134.551 80.3415 134.99 80.5562C135.433 80.7662 135.811 81.0602 136.124 81.4382C136.441 81.8162 136.677 82.2548 136.831 82.7542C136.99 83.2535 137.048 83.7878 137.006 84.3572H131.294C131.35 84.7538 131.481 85.1085 131.686 85.4212C131.891 85.7292 132.153 85.9742 132.47 86.1562C132.792 86.3382 133.149 86.4315 133.541 86.4362C133.961 86.4362 134.341 86.3288 134.682 86.1142C135.023 85.8948 135.298 85.5962 135.508 85.2182L136.705 85.4982C136.425 86.1188 136.003 86.6275 135.438 87.0242C134.873 87.4162 134.241 87.6122 133.541 87.6122ZM131.259 83.4332H135.823C135.786 83.0412 135.66 82.6842 135.445 82.3622C135.23 82.0355 134.957 81.7742 134.626 81.5782C134.295 81.3822 133.933 81.2842 133.541 81.2842C133.149 81.2842 132.79 81.3798 132.463 81.5712C132.136 81.7625 131.866 82.0215 131.651 82.3482C131.441 82.6702 131.31 83.0318 131.259 83.4332Z" fill="#F9FAFB"/>
<rect x="366.848" y="60.4302" width="44" height="44" rx="22" fill="url(#paint0_linear_215_1646)"/>
<path d="M387.18 87.0232H380.879" stroke="white" stroke-width="1.5" stroke-linecap="round" stroke-linejoin="round"/>
<path d="M389.988 77.3318H396.289" stroke="white" stroke-width="1.5" stroke-linecap="round" stroke-linejoin="round"/>
<path fill-rule="evenodd" clip-rule="evenodd" d="M385.574 77.2764C385.574 75.9808 384.516 74.9302 383.211 74.9302C381.906 74.9302 380.848 75.9808 380.848 77.2764C380.848 78.5721 381.906 79.6227 383.211 79.6227C384.516 79.6227 385.574 78.5721 385.574 77.2764Z" stroke="white" stroke-width="1.5" stroke-linecap="round" stroke-linejoin="round"/>
<path fill-rule="evenodd" clip-rule="evenodd" d="M396.847 86.9835C396.847 85.6878 395.79 84.6372 394.485 84.6372C393.179 84.6372 392.121 85.6878 392.121 86.9835C392.121 88.2791 393.179 89.3297 394.485 89.3297C395.79 89.3297 396.847 88.2791 396.847 86.9835Z" stroke="white" stroke-width="1.5" stroke-linecap="round" stroke-linejoin="round"/>
<defs>
<filter id="filter0_d_215_1646" x="-43.1523" y="0.430176" width="518" height="172" filterUnits="userSpaceOnUse" color-interpolation-filters="sRGB">
<feFlood flood-opacity="0" result="BackgroundImageFix"/>
<feColorMatrix in="SourceAlpha" type="matrix" values="0 0 0 0 0 0 0 0 0 0 0 0 0 0 0 0 0 0 127 0" result="hardAlpha"/>
<feOffset dy="4"/>
<feGaussianBlur stdDeviation="30"/>
<feComposite in2="hardAlpha" operator="out"/>
<feColorMatrix type="matrix" values="0 0 0 0 0.498039 0 0 0 0 0.529412 0 0 0 0 0.619608 0 0 0 0.2 0"/>
<feBlend mode="normal" in2="BackgroundImageFix" result="effect1_dropShadow_215_1646"/>
<feBlend mode="normal" in="SourceGraphic" in2="effect1_dropShadow_215_1646" result="shape"/>
</filter>
<linearGradient id="paint0_linear_215_1646" x1="388.848" y1="60.4302" x2="388.848" y2="104.43" gradientUnits="userSpaceOnUse">
<stop stop-color="#FE725F"/>
<stop offset="1" stop-color="#FFA497"/>
</linearGradient>
</defs>
</svg>
