<svg width="84" height="81" viewBox="0 0 84 81" fill="none" xmlns="http://www.w3.org/2000/svg">
<circle cx="43.3477" cy="40.9302" r="31.5" fill="url(#paint0_linear_216_2801)"/>
<circle cx="80.3477" cy="12.9302" r="3.5" fill="url(#paint1_linear_216_2801)"/>
<circle cx="9.34766" cy="4.93018" r="4.5" fill="url(#paint2_linear_216_2801)"/>
<circle cx="4.84766" cy="59.4302" r="2" fill="url(#paint3_linear_216_2801)"/>
<circle cx="73.8477" cy="71.4302" r="1" fill="url(#paint4_linear_216_2801)"/>
<path d="M53.6771 36.3897V32.013C53.6771 30.2905 52.9837 29.5972 51.2612 29.5972H46.8846C45.1621 29.5972 44.4688 30.2905 44.4688 32.013V36.3897C44.4688 38.1122 45.1621 38.8055 46.8846 38.8055H51.2612C52.9837 38.8055 53.6771 38.1122 53.6771 36.3897Z" stroke="#E8E8EA" stroke-width="1.5" stroke-linecap="round" stroke-linejoin="round"/>
<path d="M41.2201 36.6605V31.7422C41.2201 30.2147 40.5267 29.5972 38.8042 29.5972H34.4276C32.7051 29.5972 32.0117 30.2147 32.0117 31.7422V36.6497C32.0117 38.188 32.7051 38.7947 34.4276 38.7947H38.8042C40.5267 38.8055 41.2201 38.188 41.2201 36.6605Z" stroke="#E8E8EA" stroke-width="1.5" stroke-linecap="round" stroke-linejoin="round"/>
<path d="M41.2201 48.8479V44.4713C41.2201 42.7488 40.5267 42.0554 38.8042 42.0554H34.4276C32.7051 42.0554 32.0117 42.7488 32.0117 44.4713V48.8479C32.0117 50.5704 32.7051 51.2638 34.4276 51.2638H38.8042C40.5267 51.2638 41.2201 50.5704 41.2201 48.8479Z" stroke="#E8E8EA" stroke-width="1.5" stroke-linecap="round" stroke-linejoin="round"/>
<path d="M45.5586 46.3887H52.0586" stroke="#E8E8EA" stroke-width="1.5" stroke-linecap="round"/>
<path d="M48.8086 49.6387V43.1387" stroke="#E8E8EA" stroke-width="1.5" stroke-linecap="round"/>
<circle cx="47.8477" cy="2.43018" r="1" fill="url(#paint5_linear_216_2801)"/>
<circle cx="28.3477" cy="78.9302" r="1.5" fill="url(#paint6_linear_216_2801)"/>
<circle cx="55.3477" cy="76.9302" r="0.5" fill="url(#paint7_linear_216_2801)"/>
<circle cx="76.8477" cy="49.4302" r="1" fill="url(#paint8_linear_216_2801)"/>
<circle cx="1.34766" cy="33.9302" r="0.5" fill="url(#paint9_linear_216_2801)"/>
<defs>
<linearGradient id="paint0_linear_216_2801" x1="74.8477" y1="72.4302" x2="-0.116687" y2="50.695" gradientUnits="userSpaceOnUse">
<stop stop-color="#FF4D67"/>
<stop offset="1" stop-color="#FF8A9B"/>
</linearGradient>
<linearGradient id="paint1_linear_216_2801" x1="83.8477" y1="16.4302" x2="75.5183" y2="14.0152" gradientUnits="userSpaceOnUse">
<stop stop-color="#FF4D67"/>
<stop offset="1" stop-color="#FF8A9B"/>
</linearGradient>
<linearGradient id="paint2_linear_216_2801" x1="13.8477" y1="9.43018" x2="3.13846" y2="6.32514" gradientUnits="userSpaceOnUse">
<stop stop-color="#FF4D67"/>
<stop offset="1" stop-color="#FF8A9B"/>
</linearGradient>
<linearGradient id="paint3_linear_216_2801" x1="6.84766" y1="61.4302" x2="2.08802" y2="60.0502" gradientUnits="userSpaceOnUse">
<stop stop-color="#FF4D67"/>
<stop offset="1" stop-color="#FF8A9B"/>
</linearGradient>
<linearGradient id="paint4_linear_216_2801" x1="74.8477" y1="72.4302" x2="72.4678" y2="71.7402" gradientUnits="userSpaceOnUse">
<stop stop-color="#FF4D67"/>
<stop offset="1" stop-color="#FF8A9B"/>
</linearGradient>
<linearGradient id="paint5_linear_216_2801" x1="48.8477" y1="3.43018" x2="46.4678" y2="2.74017" gradientUnits="userSpaceOnUse">
<stop stop-color="#FF4D67"/>
<stop offset="1" stop-color="#FF8A9B"/>
</linearGradient>
<linearGradient id="paint6_linear_216_2801" x1="29.8477" y1="80.4302" x2="26.2779" y2="79.3952" gradientUnits="userSpaceOnUse">
<stop stop-color="#FF4D67"/>
<stop offset="1" stop-color="#FF8A9B"/>
</linearGradient>
<linearGradient id="paint7_linear_216_2801" x1="55.8477" y1="77.4302" x2="54.6577" y2="77.0852" gradientUnits="userSpaceOnUse">
<stop stop-color="#FF4D67"/>
<stop offset="1" stop-color="#FF8A9B"/>
</linearGradient>
<linearGradient id="paint8_linear_216_2801" x1="77.8477" y1="50.4302" x2="75.4678" y2="49.7402" gradientUnits="userSpaceOnUse">
<stop stop-color="#FF4D67"/>
<stop offset="1" stop-color="#FF8A9B"/>
</linearGradient>
<linearGradient id="paint9_linear_216_2801" x1="1.84766" y1="34.4302" x2="0.657746" y2="34.0852" gradientUnits="userSpaceOnUse">
<stop stop-color="#FF4D67"/>
<stop offset="1" stop-color="#FF8A9B"/>
</linearGradient>
</defs>
</svg>
