<svg width="51" height="51" viewBox="0 0 51 51" fill="none" xmlns="http://www.w3.org/2000/svg">
<g clip-path="url(#clip0_1252_32048)">
<path d="M25.0977 50.4302C38.9048 50.4302 50.0977 39.2373 50.0977 25.4302C50.0977 11.6231 38.9048 0.430176 25.0977 0.430176C11.2905 0.430176 0.0976562 11.6231 0.0976562 25.4302C0.0976562 39.2373 11.2905 50.4302 25.0977 50.4302Z" fill="#B5F1F4"/>
<path d="M49.7815 29.4026L31.3262 10.947L18.6789 22.4068L15.375 24.3822L19.7871 28.7943L19.5417 29.302L23.8696 33.6299L37.5236 47.1276C43.9424 43.4435 48.5696 36.9928 49.7815 29.4026Z" fill="#84DBFF"/>
<path d="M27.548 31.6352V28.9182H22.648V31.6352C22.648 31.852 22.4723 32.0278 22.2555 32.0278H18.8789V41.4039H31.3175V32.0278H27.9409C27.7238 32.0278 27.548 31.852 27.548 31.6352Z" fill="#FED8B2"/>
<path d="M31.3168 32.0278H27.9402C27.7234 32.0278 27.5477 31.852 27.5477 31.6352V28.9182H25.0977V41.4039H31.3169V32.0278H31.3168Z" fill="#EABE96"/>
<path d="M16.9543 25.183C18.0358 25.183 18.9125 24.3063 18.9125 23.2248C18.9125 22.1433 18.0358 21.2666 16.9543 21.2666C15.8728 21.2666 14.9961 22.1433 14.9961 23.2248C14.9961 24.3063 15.8728 25.183 16.9543 25.183Z" fill="#FED8B2"/>
<path d="M32.8254 25.183C33.9069 25.183 34.7836 24.3063 34.7836 23.2248C34.7836 22.1433 33.9069 21.2666 32.8254 21.2666C31.7439 21.2666 30.8672 22.1433 30.8672 23.2248C30.8672 24.3063 31.7439 25.183 32.8254 25.183Z" fill="#EABE96"/>
<path d="M25.109 31.3801H24.6678C20.5861 31.3801 17.2773 28.0713 17.2773 23.9896V17.242C17.2773 13.1604 20.5861 9.85156 24.6678 9.85156H25.109C29.1906 9.85156 32.4994 13.1604 32.4994 17.242V23.9896C32.4994 28.0714 29.1906 31.3801 25.109 31.3801Z" fill="#F4E3C3"/>
<path d="M25.1095 9.85156H25.0977V31.38H25.1095C29.1911 31.38 32.4999 28.0712 32.4999 23.9896V17.2419C32.4999 13.1604 29.1911 9.85156 25.1095 9.85156Z" fill="#FED8B2"/>
<path d="M31.698 12.3492C30.2467 10.2817 27.846 8.92896 25.128 8.92896H24.6489C20.2175 8.92896 16.625 12.5213 16.625 16.9529V17.5734V23.2254H17.8029V19.9108C17.8027 19.9108 17.8024 19.9108 17.8022 19.9108C21.377 19.5477 24.8918 18.8464 27.9727 17.3062C29.0813 18.5792 30.3615 19.7162 31.7748 20.6383V23.2253H33.152V19V16.9528C33.1519 15.2392 32.6132 13.6525 31.698 12.3492Z" fill="#9A4F03"/>
<path d="M21.3002 23.1172C21.7206 23.1172 22.0613 22.7765 22.0613 22.3561C22.0613 21.9357 21.7206 21.595 21.3002 21.595C20.8798 21.595 20.5391 21.9357 20.5391 22.3561C20.5391 22.7765 20.8798 23.1172 21.3002 23.1172Z" fill="#59595B"/>
<path d="M28.476 23.1172C28.8963 23.1172 29.2371 22.7765 29.2371 22.3561C29.2371 21.9357 28.8963 21.595 28.476 21.595C28.0556 21.595 27.7148 21.9357 27.7148 22.3561C27.7148 22.7765 28.0556 23.1172 28.476 23.1172Z" fill="#272525"/>
<path d="M25.0986 34.8578C22.8087 34.8578 20.9525 34.3175 20.9525 32.0276H18.3455C15.2056 32.0276 12.6602 34.573 12.6602 37.7129V47.1208C16.3231 49.2261 20.5701 50.4301 25.0984 50.4301H25.0986V34.8578Z" fill="#F9B54C"/>
<path d="M37.5361 37.7129C37.5361 34.573 34.9907 32.0276 31.8508 32.0276H29.2438C29.2438 34.3175 27.3875 34.8578 25.0977 34.8578V50.4301C29.626 50.4301 33.8729 49.2261 37.5362 47.1208L37.5361 37.7129Z" fill="#F4A200"/>
<path d="M24.8891 28.5932C23.5177 28.5932 22.4023 27.4776 22.4023 26.1064C22.4023 25.8739 22.5907 25.6855 22.8232 25.6855C23.0558 25.6855 23.2441 25.8739 23.2441 26.1064C23.2441 27.0135 23.9822 27.7514 24.8891 27.7514C25.796 27.7514 26.534 27.0133 26.534 26.1064C26.534 25.8739 26.7224 25.6855 26.9549 25.6855C27.1874 25.6855 27.3758 25.8739 27.3758 26.1064C27.376 27.4777 26.2604 28.5932 24.8891 28.5932Z" fill="#FD8469"/>
<path d="M27.3757 26.1067C27.3757 25.8742 27.1873 25.6858 26.9548 25.6858C26.7223 25.6858 26.5339 25.8742 26.5339 26.1067C26.5339 26.9429 25.9063 27.6338 25.0977 27.737V28.583C26.3715 28.4762 27.3757 27.4074 27.3757 26.1067Z" fill="#FC6F58"/>
<path d="M24.5078 34.8442V50.4203C24.7039 50.4249 24.8997 50.4301 25.0971 50.4301C25.2943 50.4301 25.4901 50.4249 25.6863 50.4203V34.8442C25.4938 34.8533 25.2973 34.8577 25.0971 34.8577C24.8969 34.8577 24.7002 34.8533 24.5078 34.8442Z" fill="#F4A200"/>
<path d="M25.6869 34.8442C25.4943 34.8533 25.2979 34.8577 25.0977 34.8577V50.4301C25.2948 50.4301 25.4907 50.4249 25.6869 50.4203V34.8442Z" fill="#D68A03"/>
<path d="M22.3207 32.0276L25.0983 34.8578L22.3207 37.6355L19.543 32.0276H22.3207Z" fill="#F4A200"/>
<path d="M27.8752 32.0276L25.0977 34.8578L27.8752 37.6355L30.653 32.0276H27.8752Z" fill="#CC8006"/>
<path d="M25.098 8.34253C20.2631 8.34253 16.3438 12.2619 16.3438 17.0967V19.8745H25.098V8.34253Z" fill="#F4A200"/>
<path d="M33.8519 17.0967C33.8519 12.2619 29.9325 8.34253 25.0977 8.34253V19.8746H33.8519V17.0967Z" fill="#DD8D00"/>
<path d="M25.098 8.34253C24.1267 8.34253 23.1934 8.50317 22.3203 8.79526V19.8746H27.8759V8.79517C27.0025 8.50308 26.0692 8.34253 25.098 8.34253Z" fill="#CC8006"/>
<path d="M27.8754 8.79526C27.0023 8.50317 26.069 8.34253 25.0977 8.34253V19.8746H27.8754V8.79526Z" fill="#B76F08"/>
<path d="M34.8194 16.9705H15.375V20.0007H34.8194V16.9705Z" fill="#DD8D00"/>
<path d="M34.8199 16.9697H25.0977V20H34.8199V16.9697Z" fill="#CC8006"/>
<path d="M31.3283 44.8203C31.2436 44.8203 31.1576 44.8041 31.0744 44.7703C30.73 44.63 30.5644 44.2371 30.7049 43.8926L31.5054 41.9275H30.15C29.9258 41.9275 29.7163 41.8159 29.5912 41.6298C29.4661 41.4438 29.4417 41.2076 29.5264 41L30.7048 38.1075C30.845 37.7628 31.2381 37.5977 31.5824 37.7379C31.9268 37.8782 32.0924 38.2711 31.9519 38.6156L31.1515 40.5807H32.5068C32.731 40.5807 32.9405 40.6923 33.0656 40.8784C33.1907 41.0644 33.2151 41.3006 33.1305 41.5081L31.952 44.4007C31.8456 44.6618 31.5939 44.8203 31.3283 44.8203Z" fill="#CC8006"/>
<path d="M43.4459 27.0716C43.4459 24.5134 41.2926 22.4579 38.6997 22.6192C36.4534 22.7588 34.636 24.6051 34.5287 26.8531C34.4628 28.2324 35.0241 29.4814 35.9514 30.3415C36.4558 30.8092 36.7541 31.4573 36.7541 32.1452V33.7636C36.7541 34.9956 37.7528 35.9942 38.9848 35.9942C40.2168 35.9942 41.2155 34.9956 41.2155 33.7636V32.1454C41.2155 31.4757 41.4833 30.8266 41.9796 30.3769C42.88 29.5608 43.4459 28.3825 43.4459 27.0716Z" fill="white"/>
<path d="M38.9883 22.6113V35.9941C40.2203 35.9941 41.2189 34.9955 41.2189 33.7635V32.1453C41.2189 31.4756 41.4868 30.8265 41.9831 30.3768C42.8836 29.5607 43.4496 28.3825 43.4496 27.0716C43.4495 24.6078 41.4521 22.6113 38.9883 22.6113Z" fill="#E6F3FF"/>
<path d="M40.3762 27.6187H37.5984C37.4126 27.6187 37.2617 27.7695 37.2617 27.9554C37.2617 28.1412 37.4126 28.2921 37.5984 28.2921H37.6855L38.6431 32.7973L38.5013 33.4643C38.4627 33.6463 38.5787 33.825 38.7605 33.8636C38.7843 33.8687 38.8077 33.871 38.831 33.871C38.8865 33.871 38.9398 33.8566 38.9874 33.8316C39.0349 33.8567 39.0883 33.871 39.1438 33.871C39.1671 33.871 39.1905 33.8687 39.2143 33.8636C39.3961 33.825 39.5122 33.6462 39.4735 33.4643L39.3317 32.7973L40.2894 28.2921H40.3764C40.5622 28.2921 40.7131 28.1412 40.7131 27.9554C40.7131 27.7695 40.562 27.6187 40.3762 27.6187ZM38.9873 31.178L38.3738 28.292H39.6008L38.9873 31.178Z" fill="#FFD15D"/>
<path d="M40.3771 27.6187H38.9883V28.2921H39.6018L38.9883 31.1779V33.8318C39.0357 33.8567 39.0892 33.8712 39.1445 33.8712C39.1678 33.8712 39.1912 33.8688 39.2149 33.8638C39.3968 33.8252 39.5129 33.6464 39.4742 33.4645L39.3324 32.7975L40.29 28.2923H40.3771C40.5629 28.2923 40.7138 28.1414 40.7138 27.9556C40.7138 27.7697 40.563 27.6187 40.3771 27.6187Z" fill="#F9B54C"/>
<path d="M36.7578 32.1453V33.7634C36.7578 34.9955 37.7564 35.9941 38.9885 35.9941C40.2205 35.9941 41.2191 34.9955 41.2191 33.7634V32.1453H36.7578Z" fill="#CFDBE6"/>
<path d="M38.9883 32.1453V35.9941C40.2203 35.9941 41.2189 34.9955 41.2189 33.7634V32.1453H38.9883Z" fill="#B8C9D9"/>
</g>
<defs>
<clipPath id="clip0_1252_32048">
<rect width="50" height="50" fill="white" transform="translate(0.0976562 0.430176)"/>
</clipPath>
</defs>
</svg>
