<svg width="187" height="181" viewBox="0 0 187 181" fill="none" xmlns="http://www.w3.org/2000/svg">
<circle cx="95.8047" cy="90.8516" r="70.5" fill="#FE725F"/>
<circle cx="178.773" cy="27.8516" r="7.5" fill="#FFC7BF"/>
<circle cx="20.3398" cy="10.3516" r="10" fill="#FFC7BF"/>
<circle cx="10.3398" cy="133.352" r="5" fill="#FFC7BF"/>
<circle cx="165.84" cy="160.852" r="2.5" fill="#FFC7BF"/>
<path fill-rule="evenodd" clip-rule="evenodd" d="M85.1653 66.2676H106.479C114.813 66.2676 120.393 72.1184 120.393 80.8209V100.908C120.393 109.583 114.813 115.434 106.479 115.434H85.1653C76.8316 115.434 71.2266 109.583 71.2266 100.908V80.8209C71.2266 72.1184 76.8316 66.2676 85.1653 66.2676ZM94.4057 98.2028L106.083 86.5257C106.919 85.6898 106.919 84.3378 106.083 83.4773C105.247 82.6415 103.87 82.6415 103.034 83.4773L92.8815 93.6303L88.5794 89.3282C87.7436 88.4923 86.3669 88.4923 85.5311 89.3282C84.6953 90.164 84.6953 91.5161 85.5311 92.3765L91.3819 98.2028C91.7998 98.6207 92.3407 98.8173 92.8815 98.8173C93.4469 98.8173 93.9878 98.6207 94.4057 98.2028Z" fill="white"/>
<circle cx="106.84" cy="4.85156" r="2.5" fill="#FFC7BF"/>
<circle cx="62.8398" cy="176.852" r="3.5" fill="#FFC7BF"/>
<circle cx="122.34" cy="171.352" r="1" fill="#FFC7BF"/>
<circle cx="170.84" cy="110.852" r="2.5" fill="#FFC7BF"/>
<circle cx="1.33984" cy="75.3516" r="1" fill="#FFC7BF"/>
</svg>
