<svg width="51" height="51" viewBox="0 0 51 51" fill="none" xmlns="http://www.w3.org/2000/svg">
<path d="M20.9141 6.14697H47.9859V26.8985H20.9141V6.14697Z" fill="#E6246B"/>
<path d="M43.7984 39.6317C46.1121 39.6317 47.9871 37.7571 47.9871 35.443V26.6665H20.9539V11.904L9.525 11.8665L2.15234 24.1551V35.4426C2.15234 37.7567 4.02695 39.6313 6.33945 39.6313H43.7984V39.6317Z" fill="#F6B246"/>
<path d="M43.7984 39.6311C46.1121 39.6311 47.9871 37.7565 47.9871 35.4424V29.6057H2.15234V35.442C2.15234 37.7561 4.02695 39.6307 6.33945 39.6307H43.7984V39.6311Z" fill="#ECD4BE"/>
<path d="M41.8391 40.3835C41.8391 43.1253 39.6172 45.3441 36.8781 45.3441C34.1363 45.3441 31.9176 43.1249 31.9176 40.3835C31.9176 37.6445 34.1367 35.4226 36.8781 35.4226C39.6168 35.4226 41.8391 37.6449 41.8391 40.3835ZM18.6875 40.3835C18.6875 43.1253 16.4668 45.3441 13.7266 45.3441C10.9863 45.3441 8.76562 43.1249 8.76562 40.3835C8.76562 37.6445 10.9863 35.4226 13.7266 35.4226C16.4668 35.4226 18.6875 37.6449 18.6875 40.3835Z" fill="#0093D3"/>
<path d="M13.0539 22.3174H3.22266L8.55117 13.5901H13.0539V22.3174Z" fill="#E09431"/>
</svg>
