<svg width="51" height="51" viewBox="0 0 51 51" fill="none" xmlns="http://www.w3.org/2000/svg">
<path d="M22.8047 21.1091C22.8047 21.1091 22.5977 20.5115 22.1484 20.3044C21.7031 20.0974 20.957 20.0662 20.957 20.0662L19.707 34.8513L20.7227 42.1482C20.7227 42.1482 21.0195 43.0115 21.7969 43.0427C22.5703 43.074 29.0117 43.0427 29.5781 43.0427C30.1445 43.0427 30.3242 42.2966 30.3516 41.9685C30.3828 41.6404 30.3711 41.0896 30.3711 41.0896L33.1211 41.0779C33.1211 41.0779 33.2812 42.2498 33.0156 42.988C32.7852 43.6287 32.5781 44.1404 32.582 44.3591C32.5859 44.6716 33 44.9841 33.4766 44.9568C33.9531 44.9255 34.668 44.3005 35.1445 43.9138C35.6211 43.5271 43.2617 43.6169 43.2617 43.6169C43.2617 43.6169 43.6289 44.2966 44.0391 44.7068C44.2852 44.9529 44.6836 45.074 45.043 45.074C45.4023 45.074 45.8477 44.5974 45.7578 44.2693C45.668 43.9412 45.2617 43.1873 45.1914 42.4529C45.1602 42.1208 45.1992 41.1951 45.3633 41.0427C45.4023 41.0076 45.9961 41.0271 46.5508 40.9685C47.4961 40.8708 48.4414 39.6482 48.5586 38.6951C48.6797 37.7419 48.5898 34.7302 48.5898 34.7302L22.8047 21.1091Z" fill="#B3AFAF"/>
<path d="M20.4727 37.6638H48.6094C48.6094 37.6638 48.6758 38.4529 48.5391 38.9607C48.4666 39.2303 48.3433 39.4835 48.1758 39.7068L20.6328 39.7029L20.4727 37.6638Z" fill="#9A9A9A"/>
<path d="M10.6016 36.3865L4.64453 38.2302L1.66797 37.2029C1.66797 37.2029 1.77344 31.6013 1.80859 31.0349C1.84375 30.4685 1.98437 29.9724 2.51953 29.617C3.05078 29.2615 4.53906 28.3748 4.53906 28.3748C4.53906 28.3748 9.11328 21.0349 9.50391 20.5037C9.89453 19.9724 10.375 19.324 11.5117 19.2185C12.6484 19.113 19.6641 19.199 20.3008 19.2341C20.9375 19.2693 21.4141 19.5584 21.4141 20.9412C21.4141 22.324 21.3789 32.8787 21.3438 33.4099C21.3086 33.9412 18.6484 35.8904 18.6484 35.8904L10.6016 36.3865Z" fill="#E0E0E0"/>
<path d="M19.2749 43.1023C19.2749 43.1023 19.8452 43.1179 20.2397 43.0632C20.6343 43.0085 21.228 42.614 21.2554 41.6804C21.271 41.1257 21.3452 33.4109 21.3452 33.4109L10.7202 33.4343L7.28271 37.196L1.66943 37.2039C1.66943 37.2039 1.646 39.4109 1.66162 40.0007C1.67725 40.5945 4.73193 41.8875 4.73193 41.8875L19.2749 43.1023Z" fill="#DC0D28"/>
<path d="M1.66333 40.0004H8.06176C8.06176 40.0004 9.43286 37.266 13.3743 37.3129C19.1633 37.3832 19.2805 43.098 19.2805 43.098H4.20239C3.35473 43.098 2.14379 42.8168 1.8352 41.7464C1.57348 40.848 1.66333 40.0004 1.66333 40.0004Z" fill="#B10A1B"/>
<path d="M5.58045 29.9109C5.58045 29.9109 5.58045 29.2742 5.16248 29.2507C4.74451 29.2273 4.28358 29.489 3.86561 29.8445C3.4242 30.2195 3.20545 30.5593 3.11951 30.8562C2.9867 31.2976 3.09608 31.6921 3.77967 31.7117C4.61561 31.739 17.889 31.6531 18.5023 31.6023C19.2719 31.5359 19.7328 31.2078 19.7094 30.6335C19.6898 30.0828 19.2914 29.907 17.643 29.8874C15.9945 29.8679 5.58045 29.9109 5.58045 29.9109Z" fill="white"/>
<path d="M1.79297 31.7731C1.79297 31.7731 5.78125 31.6481 5.86719 31.7458C5.98828 31.8903 6.01172 33.7731 5.96875 34.0583C5.92578 34.3434 5.55078 34.5427 5.08984 34.5622C4.62891 34.5817 1.72656 34.6286 1.72656 34.6286L1.79297 31.7731Z" fill="#FDEDC5"/>
<path d="M18.2159 29.2276C18.8331 29.2276 19.0519 28.5244 19.0519 28.0401V21.9112C19.0519 21.4268 18.7433 21.1651 17.7784 21.1182C16.8097 21.0752 12.3956 21.126 11.9112 21.1416C11.1651 21.1651 10.6573 21.4932 9.97764 22.4385C9.53623 23.0518 6.81358 27.5596 6.59483 27.9307C6.37608 28.3057 6.11045 29.294 7.25498 29.3135C8.43858 29.3369 18.2159 29.2276 18.2159 29.2276Z" fill="#5F6369"/>
<path d="M7.82031 28.1951H17.6641C17.8633 28.1951 18.0391 27.9763 18.0391 27.7107C18.0391 27.4451 18.0547 23.2966 18.0625 23.0505C18.0859 22.3709 17.5781 22.2146 17.1406 22.238C16.6992 22.2615 12.2539 22.2459 11.9922 22.2576C11.4883 22.281 10.9883 22.9568 10.5508 23.6248C10.0234 24.4334 7.82031 28.1951 7.82031 28.1951Z" fill="#AFE3FB"/>
<path d="M7.97319 28.9224C8.01616 29.9106 9.59819 30.7231 9.99663 30.7466C10.3912 30.77 10.6333 30.0005 10.6763 28.9653C10.7193 27.9302 10.3052 27.0747 9.97319 27.0747C9.64507 27.0747 7.93804 28.0864 7.97319 28.9224Z" fill="#5F6369"/>
<path d="M8.31709 43.723C8.34834 45.6761 9.90303 48.4847 13.2858 48.5043C16.6686 48.5238 18.4265 45.93 18.3171 43.2699C18.2077 40.5668 16.1101 38.6566 13.0905 38.7425C10.2663 38.8285 8.27412 41.0238 8.31709 43.723Z" fill="#4E433D"/>
<path d="M10.7346 43.6105C10.7503 44.6378 11.5667 46.1222 13.3479 46.1339C15.1292 46.1456 15.9886 44.8566 15.9339 43.4542C15.8753 42.0285 14.7385 40.966 13.2464 40.9894C11.762 41.0089 10.7151 42.1847 10.7346 43.6105Z" fill="#C8C8C8"/>
<path d="M34.0983 43.723C34.1296 45.6761 35.6843 48.4847 39.0671 48.5043C42.4499 48.5238 44.2077 45.93 44.0983 43.2699C43.989 40.5668 41.8913 38.6566 38.8718 38.7425C36.0476 38.8285 34.0554 41.0238 34.0983 43.723Z" fill="#4E433D"/>
<path d="M36.5159 43.6105C36.5315 44.6378 37.3479 46.1222 39.1292 46.1339C40.9065 46.1456 41.7698 44.8566 41.7151 43.4542C41.6565 42.0285 40.5198 40.966 39.0276 40.9894C37.5432 41.0089 36.4964 42.1847 36.5159 43.6105Z" fill="#C8C8C8"/>
<path d="M22.3672 11.3013C22.3672 10.2778 22.8164 9.86768 23.6367 9.91064C24.457 9.94971 46.9375 9.82861 47.6719 9.82861C48.4063 9.82861 48.6953 10.606 48.6953 11.0552C48.6953 11.5044 48.5547 34.2935 48.5859 34.7349C48.6133 35.1763 48.4922 35.7896 47.7148 35.8716C46.9375 35.9536 23.8828 35.9106 23.3906 35.8716C22.8984 35.8325 22.2852 35.4224 22.2852 34.8481C22.2852 34.27 22.3672 11.8325 22.3672 11.3013Z" fill="#D16E1D"/>
<path d="M24.4141 12.2C24.4141 12.7312 24.25 32.6335 24.25 33.1257C24.25 33.6179 24.4961 34.1921 25.1523 34.1921C25.8086 34.1921 45.9531 34.2312 46.3633 34.1921C46.7734 34.1531 47.0195 33.907 47.0586 33.2507C47.0977 32.5945 47.0977 12.614 47.0977 11.9578C47.0977 11.3015 46.4414 11.2625 45.7461 11.2625C45.0508 11.2625 25.3555 11.3015 25.0664 11.3445C24.7813 11.3796 24.4141 11.6687 24.4141 12.2Z" fill="#F5B03A"/>
<path d="M29.2364 34.8872C29.2129 27.6802 29.1621 10.8716 29.2442 10.4146L29.8223 10.52L30.4043 10.5903C30.3496 11.2349 30.377 25.4692 30.4082 34.8833L29.2364 34.8872Z" fill="#D16E1D"/>
<path d="M35.2109 10.4812H36.3828V34.9265H35.2109V10.4812Z" fill="#D16E1D"/>
<path d="M41.125 10.5007H42.2969V34.8249H41.125V10.5007Z" fill="#D16E1D"/>
</svg>
