<svg width="50" height="50" viewBox="0 0 50 50" fill="none" xmlns="http://www.w3.org/2000/svg">
<path d="M20.7617 6.02539H47.8336V26.777H20.7617V6.02539Z" fill="#E6246B"/>
<path d="M43.6461 39.5094C45.9598 39.5094 47.8348 37.6348 47.8348 35.3207V26.5441H20.8016V11.7816L9.37266 11.7441L2 24.0328V35.3203C2 37.6344 3.87461 39.509 6.18711 39.509H43.6461V39.5094Z" fill="#F6B246"/>
<path d="M43.6461 39.5098C45.9598 39.5098 47.8348 37.6352 47.8348 35.3211V29.4844H2V35.3207C2 37.6348 3.87461 39.5094 6.18711 39.5094H43.6461V39.5098Z" fill="#ECD4BE"/>
<path d="M41.6867 40.2617C41.6867 43.0035 39.4648 45.2223 36.7258 45.2223C33.984 45.2223 31.7652 43.0031 31.7652 40.2617C31.7652 37.5227 33.9844 35.3008 36.7258 35.3008C39.4645 35.3008 41.6867 37.523 41.6867 40.2617ZM18.5352 40.2617C18.5352 43.0035 16.3145 45.2223 13.5742 45.2223C10.834 45.2223 8.61328 43.0031 8.61328 40.2617C8.61328 37.5227 10.834 35.3008 13.5742 35.3008C16.3145 35.3008 18.5352 37.523 18.5352 40.2617Z" fill="#0093D3"/>
<path d="M12.9016 22.1961H3.07031L8.39883 13.4688H12.9016V22.1961Z" fill="#E09431"/>
</svg>
