<svg width="51" height="51" viewBox="0 0 51 51" fill="none" xmlns="http://www.w3.org/2000/svg">
<path d="M25.4453 5.77539C14.6586 5.77539 5.91406 14.5199 5.91406 25.3066H44.9766C44.9766 14.5199 36.232 5.77539 25.4453 5.77539Z" fill="#FF786E"/>
<path d="M25.4453 44.8379C36.232 44.8379 44.9766 36.0934 44.9766 25.3066H5.91406C5.91406 36.0934 14.6586 44.8379 25.4453 44.8379Z" fill="#BE5652"/>
<path d="M45.4982 33.5607C44.2692 33.2325 42.0099 32.0247 40.3325 27.638C37.913 21.3099 35.6325 20.0872 28.8435 19.0458C28.8435 19.0458 27.0489 15.2997 26.7771 12.6646C27.1911 12.0943 27.1911 10.6482 26.9536 10.0372C25.9138 7.35911 23.8294 6.8763 21.7739 4.68645C20.981 3.5927 20.0755 2.68645 18.4942 2.65364C17.8435 2.64036 16.8692 2.72005 16.4497 3.31536C16.1036 3.80598 16.1286 4.4677 16.1786 5.03724C16.2403 5.73802 16.4122 8.4138 16.1692 10.445C16.0419 11.5138 16.1286 12.3544 16.4669 13.4044C16.6849 14.0833 17.1278 14.5857 17.7419 14.8841C18.7271 16.1615 20.1927 18.606 19.3239 21.0021C19.3239 21.0021 14.9419 27.1044 13.2763 36.7841C12.1583 43.2802 11.2388 45.2974 9.62472 45.7075C8.87784 45.8974 8.83097 46.9669 9.5669 47.1982C11.906 47.9333 15.9653 46.8482 21.6599 36.8497C31.1614 20.1661 31.27 28.3779 32.4232 31.6724C33.5763 34.9669 34.7208 40.6021 40.7325 38.0286C43.8614 36.6888 45.2646 35.5654 45.8903 34.7966C46.2403 34.3638 46.0357 33.7036 45.4982 33.5607ZM17.7825 3.47942C18.5544 3.25286 19.5271 3.52005 20.1388 3.97239C22.1122 5.43255 21.8232 8.26927 22.2513 10.4146C22.2513 10.4146 22.5638 11.9849 22.5474 11.9974C22.5474 11.9974 21.5364 10.345 21.4192 10.1896C20.9958 9.62864 20.5278 9.10442 20.0505 8.58958C19.4458 7.93802 18.8114 7.31145 18.245 6.63177C17.8544 6.16224 17.4958 5.6677 17.2013 5.12161C16.8653 4.49739 17.0357 3.69817 17.7825 3.47942Z" fill="#EFEAE0"/>
<path d="M36.3945 38.3659C34.0086 37.3269 33.2172 33.9433 32.4219 31.6714C31.2687 28.3769 31.1602 20.1651 21.6586 36.8487C18.5609 42.2878 15.9484 45.0854 13.832 46.3909C16.6437 46.0104 21.3953 45.6042 23.175 46.8761C23.9648 47.4401 24.2781 46.0589 24.2172 44.0151C25.3664 43.4386 28.2289 42.1948 32.2789 41.755C37.6203 41.1745 36.3945 38.3823 36.3945 38.3823C36.3945 38.3823 36.3953 38.3753 36.3945 38.3659Z" fill="#CCCCCC"/>
</svg>
