<svg width="25" height="24" viewBox="0 0 25 24" fill="none" xmlns="http://www.w3.org/2000/svg">
<path d="M20.4807 7.99753C20.4937 8.17253 20.4937 8.34653 20.4937 8.52053C20.4937 13.8455 16.4407 19.9815 9.03366 19.9815C6.75166 19.9815 4.63166 19.3205 2.84766 18.1725C3.17166 18.2095 3.48366 18.2225 3.82066 18.2225C5.63365 18.2269 7.3953 17.6207 8.82166 16.5015C7.98108 16.4863 7.16623 16.209 6.49089 15.7083C5.81556 15.2075 5.31344 14.5084 5.05466 13.7085C5.30366 13.7455 5.55366 13.7705 5.81566 13.7705C6.17666 13.7705 6.53966 13.7205 6.87666 13.6335C5.96442 13.4493 5.14413 12.9549 4.55527 12.2342C3.96642 11.5136 3.64535 10.6112 3.64666 9.68053V9.63053C4.18366 9.92953 4.80666 10.1165 5.46666 10.1415C4.91374 9.77412 4.46038 9.27555 4.147 8.69032C3.83362 8.10509 3.66997 7.45139 3.67066 6.78753C3.67066 6.03953 3.86966 5.35353 4.21866 4.75553C5.23079 6.00055 6.49316 7.01909 7.92399 7.74519C9.35483 8.47129 10.9222 8.88875 12.5247 8.97053C12.4627 8.67053 12.4247 8.35953 12.4247 8.04753C12.4244 7.51849 12.5284 6.99459 12.7307 6.50577C12.9331 6.01695 13.2298 5.57281 13.6038 5.19872C13.9779 4.82463 14.4221 4.52794 14.9109 4.32561C15.3997 4.12328 15.9236 4.01927 16.4527 4.01953C17.6127 4.01953 18.6597 4.50553 19.3957 5.29153C20.2974 5.11715 21.1622 4.78795 21.9517 4.31853C21.6511 5.24935 21.0214 6.03864 20.1807 6.53853C20.9804 6.44731 21.7621 6.23698 22.4997 5.91453C21.9488 6.71763 21.2662 7.42188 20.4807 7.99753Z" fill="#FE725F"/>
</svg>
