<svg width="51" height="51" viewBox="0 0 51 51" fill="none" xmlns="http://www.w3.org/2000/svg">
<g clip-path="url(#clip0_1252_31402)">
<path d="M43.8549 15.8782L34.625 6.64847L40.0091 1.2644C41.2835 -0.0100091 43.3497 -0.0100091 44.6239 1.2644L49.2387 5.87924C50.5132 7.15365 50.5132 9.21986 49.2387 10.4941L43.8549 15.8782Z" fill="#E6EEFF"/>
<path d="M49.2412 5.87968L46.9338 3.57227L39.2422 11.2639L43.857 15.8787L49.241 10.4947C50.5156 9.2202 50.5156 7.15409 49.2412 5.87968Z" fill="#DAE2F2"/>
<path d="M15.0122 19.3403L31.1641 35.4922L38.8554 27.8008L22.7035 11.6489L15.0122 19.3403Z" fill="#9ACAFF"/>
<path d="M38.8572 27.8005L30.7812 19.7246L23.0899 27.416L31.1658 35.4919L38.8572 27.8005Z" fill="#90BCEC"/>
<path d="M25.397 43.5682L6.9375 25.1085L13.0908 18.9552C15.0024 17.0436 18.1016 17.0436 20.0133 18.9552L31.5504 30.4926C33.4621 32.4042 33.4621 35.5034 31.5504 37.415L25.397 43.5682Z" fill="#9ACAFF"/>
<path d="M31.5509 30.4932L25.7823 24.7246L16.168 34.3389L25.3978 43.5688L31.551 37.4156C33.4625 35.504 33.4626 32.4048 31.5509 30.4932Z" fill="#90BCEC"/>
<path d="M35.0115 29.3383L21.1667 15.4936C19.8923 14.2192 19.8923 12.153 21.1667 10.8788L26.9354 5.11015C30.1213 1.92422 35.2867 1.92422 38.4727 5.11015L45.3951 12.0326C48.5811 15.2185 48.5811 20.384 45.3951 23.5699L39.6265 29.3385C38.352 30.6126 36.2859 30.6126 35.0115 29.3383Z" fill="#4DA6FF"/>
<path d="M45.3958 12.0335L41.9345 8.57227L28.0898 22.417L35.0123 29.3394C36.2867 30.6138 38.3528 30.6138 39.6271 29.3394L45.3958 23.5708C48.5817 20.3847 48.5817 15.2194 45.3958 12.0335Z" fill="#4596E6"/>
<path d="M13.1663 48.8755L1.62903 37.3384C-0.282592 35.4267 -0.282592 32.3275 1.62903 30.4159L8.08985 23.9551L26.5496 42.4147L20.0888 48.8755C18.1771 50.7871 15.0779 50.7871 13.1663 48.8755Z" fill="#4DA6FF"/>
<path d="M7.39844 43.1076L13.1671 48.8762C15.0787 50.7879 18.1779 50.7879 20.0895 48.8762L26.5504 42.4154L17.3205 33.1855L7.39844 43.1076Z" fill="#4596E6"/>
</g>
<defs>
<clipPath id="clip0_1252_31402">
<rect width="50" height="50" fill="white" transform="translate(0.195312 0.308594)"/>
</clipPath>
</defs>
</svg>
