<svg width="25" height="24" viewBox="0 0 25 24" fill="none" xmlns="http://www.w3.org/2000/svg">
<path fill-rule="evenodd" clip-rule="evenodd" d="M19.2507 5.63303C18.419 4.79591 17.4295 4.13214 16.3395 3.68018C15.2495 3.22821 14.0806 2.99703 12.9007 3.00003C7.95266 3.00003 3.92466 7.02703 3.92266 11.977C3.92266 13.559 4.33566 15.103 5.12066 16.465L3.84766 21.116L8.60666 19.867C9.92305 20.5836 11.3979 20.9594 12.8967 20.96H12.9007C17.8477 20.96 21.8757 16.933 21.8777 11.983C21.8811 10.8035 21.6506 9.63502 21.1997 8.54509C20.7488 7.45516 20.0864 6.4654 19.2507 5.63303ZM12.9007 19.445H12.8977C11.5612 19.4452 10.2493 19.0856 9.09966 18.404L8.82766 18.242L6.00366 18.983L6.75666 16.23L6.57966 15.948C5.83244 14.7585 5.43689 13.3818 5.43866 11.977C5.44066 7.86303 8.78766 4.51603 12.9037 4.51603C13.8839 4.51385 14.8549 4.70611 15.7603 5.08168C16.6658 5.45725 17.4877 6.00867 18.1787 6.70403C18.8733 7.39607 19.4238 8.21892 19.7985 9.12503C20.1732 10.0311 20.3646 11.0025 20.3617 11.983C20.3597 16.097 17.0127 19.445 12.9007 19.445ZM16.9937 13.856C16.7687 13.743 15.6667 13.201 15.4607 13.126C15.2557 13.051 15.1067 13.014 14.9567 13.238C14.8067 13.462 14.3767 13.967 14.2457 14.117C14.1147 14.267 13.9837 14.285 13.7597 14.173C13.5357 14.061 12.8127 13.824 11.9557 13.06C11.2887 12.465 10.8387 11.731 10.7077 11.506C10.5767 11.281 10.6937 11.16 10.8067 11.048C10.9077 10.948 11.0307 10.786 11.1427 10.655C11.2547 10.524 11.2917 10.431 11.3667 10.281C11.4417 10.131 11.4047 10 11.3477 9.88803C11.2917 9.77503 10.8427 8.67103 10.6557 8.22203C10.4747 7.78703 10.2897 7.84503 10.1517 7.83903C10.0087 7.83318 9.8657 7.83052 9.72266 7.83103C9.60891 7.83393 9.49699 7.86029 9.39392 7.90848C9.29084 7.95666 9.19883 8.02562 9.12366 8.11103C8.91766 8.33603 8.33866 8.87803 8.33866 9.98203C8.33866 11.086 9.14266 12.153 9.25466 12.303C9.36666 12.453 10.8367 14.718 13.0867 15.69C13.6227 15.921 14.0407 16.059 14.3657 16.163C14.9027 16.334 15.3917 16.309 15.7787 16.252C16.2097 16.188 17.1057 15.71 17.2927 15.186C17.4797 14.662 17.4797 14.213 17.4237 14.119C17.3677 14.025 17.2167 13.968 16.9937 13.856Z" fill="#FE725F"/>
</svg>
