<svg width="51" height="51" viewBox="0 0 51 51" fill="none" xmlns="http://www.w3.org/2000/svg">
<g clip-path="url(#clip0_1252_30520)">
<path d="M25.9453 0.308594C12.1404 0.308594 0.945312 11.5037 0.945312 25.3086C0.945312 39.1135 12.1404 50.3086 25.9453 50.3086C39.7502 50.3086 50.9453 39.1135 50.9453 25.3086C50.9453 11.5037 39.7502 0.308594 25.9453 0.308594Z" fill="#48A1AF"/>
<path d="M30.2551 33.0469H21.6094V36.221H30.2551V33.0469Z" fill="#1D2D33"/>
<path d="M29.863 28.7363H22.0234C23.2427 32.4244 22.1242 34.1071 22.1242 34.1071L24.8348 34.7218H27.0517L29.7623 34.1071C29.7623 34.1071 28.6438 32.4244 29.863 28.7363Z" fill="#E2A379"/>
<path d="M25.9239 32.2539L22.125 34.108C22.125 34.108 23.8179 36.9395 25.9138 36.9395C28.0097 36.9395 29.763 34.108 29.763 34.108L25.9239 32.2539Z" fill="#E2A379"/>
<path d="M29.7515 34.1074C29.7515 34.1074 28.8547 35.8507 25.9123 35.8507C22.97 35.8507 22.1336 34.1074 22.1336 34.1074C22.1336 34.1074 21.4282 39.6193 25.9526 39.6193C30.477 39.6193 29.7515 34.1074 29.7515 34.1074Z" fill="#E2A379"/>
<path d="M40.7253 38.8838C39.9897 36.1329 33.6818 33.916 25.9027 33.916C18.1235 33.916 11.8861 36.1429 11.1505 38.8838C10.818 40.1131 10.4452 42.4307 10.1328 44.6778C14.4355 48.1945 19.9474 50.3106 25.943 50.3106C31.9385 50.3106 37.4403 48.1945 41.7531 44.6778C41.4307 42.4206 41.0578 40.103 40.7253 38.8838Z" fill="#E2A379"/>
<path d="M40.7253 38.8818C39.9897 36.1309 33.6818 33.9141 25.9027 33.9141C18.1235 33.9141 11.8861 36.141 11.1505 38.8818C10.818 40.1112 10.4452 42.4288 10.1328 44.6759C14.4355 48.1926 19.9474 50.3087 25.943 50.3087C31.9385 50.3087 37.4403 48.1926 41.7531 44.6759C41.4307 42.4187 41.0578 40.1011 40.7253 38.8818Z" fill="#334D5C"/>
<path d="M32.9814 44.748C33.243 44.748 33.455 44.5359 33.455 44.2744C33.455 44.0128 33.243 43.8008 32.9814 43.8008C32.7198 43.8008 32.5078 44.0128 32.5078 44.2744C32.5078 44.5359 32.7198 44.748 32.9814 44.748Z" fill="#263A44"/>
<path d="M29.9688 43.2266V49.9779C30.0695 49.9577 30.1703 49.9476 30.271 49.9275V45.0706L33.0119 45.5845L35.6822 45.0807V48.3455C35.7829 48.3052 35.8837 48.2649 35.9845 48.2145V43.2366H29.9688V43.2266ZM35.6822 44.7683L33.0119 45.2721L30.271 44.7582V43.5188H35.6822V44.7683Z" fill="#263A44"/>
<path d="M15.9102 43.2266V48.2044C16.0109 48.2447 16.1117 48.2951 16.2125 48.3354V45.0706L18.9533 45.5845L21.6236 45.0807V49.9376C21.7243 49.9577 21.8251 49.9678 21.9259 49.9879V43.2366H15.9102V43.2266ZM21.6236 44.7683L18.9533 45.2721L16.2125 44.7582V43.5188H21.6236V44.7683Z" fill="#263A44"/>
<path d="M18.915 44.748C19.1766 44.748 19.3886 44.5359 19.3886 44.2744C19.3886 44.0128 19.1766 43.8008 18.915 43.8008C18.6534 43.8008 18.4414 44.0128 18.4414 44.2744C18.4414 44.5359 18.6534 44.748 18.915 44.748Z" fill="#263A44"/>
<path d="M25.9169 33.9062C24.3147 33.9062 22.773 33.9969 21.332 34.1783L25.9471 43.348L30.5622 34.1884C29.1011 34.007 27.5392 33.9062 25.9169 33.9062Z" fill="#263A44"/>
<path d="M26.0154 41.3318C26.0456 41.362 21.6119 33.0488 21.6119 33.0488L17.9844 34.4797L18.6897 36.7973H21.9142L20.8058 37.9057L26.0154 41.3318Z" fill="#263A44"/>
<path d="M33.8984 34.4797L30.2708 33.0488C30.2708 33.0488 25.8371 41.362 25.8673 41.3318L31.0769 37.9057L29.9685 36.7973H33.193L33.8984 34.4797Z" fill="#263A44"/>
<path d="M30.9623 17.9533L20.1199 17.3789C10.9805 26.5587 16.573 32.4837 18.3666 35.3757C21.974 41.1899 18.0039 43.2052 18.0039 43.2052L18.1953 43.1044C18.1953 43.1044 25.2288 41.7441 22.5988 35.4261C21.2888 32.2922 20.4726 25.551 30.9623 17.9533Z" fill="#3A1D12"/>
<path d="M25.9435 6.51758C21.5098 6.51758 17.9023 8.65381 17.9023 17.9646C17.9023 21.1185 18.4666 23.5873 19.3131 25.4918C21.1672 29.6836 24.3816 31.1447 25.9435 31.1447C27.5053 31.1447 30.7097 29.6836 32.5738 25.4918C33.4203 23.5873 33.9846 21.1185 33.9846 17.9646C33.9846 8.65381 30.3772 6.51758 25.9435 6.51758Z" fill="#F4B382"/>
<path d="M18.053 18.2461C17.2871 18.3771 16.7027 18.7096 17.136 21.2388C17.5693 23.7781 18.1033 23.889 18.8792 23.758L18.053 18.2461Z" fill="#F4B382"/>
<path d="M33.8435 18.2461L33.0273 23.7681C33.7932 23.8991 34.3373 23.7781 34.7706 21.2489C35.1938 18.7096 34.6094 18.3771 33.8435 18.2461Z" fill="#F4B382"/>
<path d="M25.9427 6.51562C20.1688 6.51562 17.6094 9.04485 17.6094 18.3556L18.5667 17.5596C23.1817 17.5596 27.1217 14.849 29.9733 12.2895C31.1825 15.6249 34.276 18.3455 34.276 18.3455C34.276 9.04485 31.7166 6.51562 25.9427 6.51562Z" fill="#3A1D12"/>
<path d="M33.0969 8.15899C31.8272 6.28475 28.3407 4.65234 25.9626 4.65234C23.5846 4.65234 20.0779 6.28475 18.8083 8.15899C17.6192 9.90224 17.3169 14.8801 17.7502 14.8801H34.1448C34.437 14.8801 34.2859 9.91232 33.0969 8.15899Z" fill="#E5AA17"/>
<path d="M17.582 14.2754L17.6626 16.2605C17.6626 16.2605 21.2298 16.6232 25.9456 16.6232C30.6614 16.6232 34.2185 16.2605 34.2185 16.2605L34.2386 14.2754H17.582Z" fill="#EFC76C"/>
<path d="M25.9428 4.33008C24.3507 4.33008 23.0508 4.65253 23.0508 5.31758V7.45382C23.0508 8.11887 24.3406 15.636 25.9428 15.636C27.5349 15.636 28.8347 8.12895 28.8347 7.45382V5.32766C28.8347 4.65253 27.5349 4.33008 25.9428 4.33008Z" fill="#E5AA17"/>
<path d="M23.0625 5.32787C23.0625 5.31779 23.0625 5.31779 23.0625 5.32787C23.0525 5.31779 23.0424 5.31779 23.0424 5.32787C22.9719 5.50925 22.9316 5.68055 22.9114 5.86193C22.8912 5.95262 22.8912 6.04331 22.8812 6.12392C22.8711 6.21461 22.8711 6.3053 22.8711 6.38591C22.8711 6.4766 22.8711 6.56729 22.8812 6.6479C22.8912 6.73859 22.8912 6.82928 22.9114 6.90989C22.9316 7.09127 22.9719 7.26257 23.0424 7.44395C23.0424 7.44395 23.0424 7.45403 23.0525 7.45403C23.0625 7.45403 23.0625 7.45403 23.0625 7.44395L23.0726 6.37583L23.0625 5.32787Z" fill="#C18D17"/>
<path d="M29.0079 6.12449C28.9978 6.0338 28.9978 5.94311 28.9776 5.86249C28.9575 5.68112 28.9172 5.50981 28.8466 5.32844C28.8466 5.32844 28.8466 5.31836 28.8366 5.31836C28.8265 5.31836 28.8265 5.31836 28.8265 5.32844L28.8164 6.39655L28.8265 7.46467C28.8265 7.46467 28.8265 7.47475 28.8366 7.47475C28.8366 7.47475 28.8466 7.47475 28.8466 7.46467C28.9172 7.28329 28.9575 7.11199 28.9776 6.93061C28.9978 6.83992 28.9978 6.74923 29.0079 6.66862C29.0179 6.57793 29.0179 6.48724 29.0179 6.40663C29.0079 6.30586 29.0079 6.21518 29.0079 6.12449Z" fill="#C18D17"/>
<path d="M27.6584 4.98458C27.6584 4.31953 26.8926 3.77539 25.9454 3.77539C24.9982 3.77539 24.2324 4.31953 24.2324 4.98458L23.0938 14.0837C23.0938 14.7488 24.9982 15.2929 25.9454 15.2929C26.8926 15.2929 28.7971 14.7488 28.7971 14.0837L27.6584 4.98458Z" fill="#F4B21E"/>
<path d="M33.8849 13.1157C32.706 13.0653 29.3102 13.8211 25.9446 13.8211C22.6193 13.8211 19.3243 13.0653 18.1755 13.1157C17.0369 13.1157 16.6641 15.3325 16.6641 15.3325C16.6641 15.3325 20.6645 15.7457 25.9547 15.7457C31.2449 15.7457 35.2352 15.3325 35.2352 15.3325C35.2352 15.3325 34.8724 13.1157 33.8849 13.1157Z" fill="#E5AA17"/>
<path d="M32.1326 13.5203C31.4373 13.5606 30.7521 13.6009 30.0568 13.6311C28.6663 13.6916 27.2858 13.7319 25.8952 13.7218C24.5046 13.7319 23.1242 13.6815 21.7336 13.6211C21.0383 13.5908 20.343 13.5505 19.6578 13.5102C18.9625 13.4699 18.2773 13.4195 17.582 13.3691C18.2672 13.4699 18.9625 13.5404 19.6477 13.611C20.343 13.6714 21.0282 13.7319 21.7235 13.7823C23.1141 13.873 24.5046 13.9133 25.8851 13.9234C27.2757 13.9133 28.6663 13.873 30.0568 13.7823C30.7521 13.7319 31.4474 13.6815 32.1326 13.611C32.8279 13.5404 33.5131 13.4699 34.1983 13.3691C33.5131 13.4195 32.8279 13.48 32.1326 13.5203Z" fill="#C18D17"/>
<path d="M26.9923 26.287C26.69 26.2467 25.9444 26.5389 25.9444 26.5389C25.9444 26.5389 25.1785 26.2467 24.8762 26.287C24.3926 26.3576 23.2539 26.7505 23.2539 26.8916C23.2539 26.8916 24.6848 27.859 25.9444 27.859C27.2039 27.859 28.6348 26.8916 28.6348 26.8916C28.6348 26.8916 27.4861 26.3576 26.9923 26.287Z" fill="#CC785E"/>
<path d="M26.5568 26.9511C26.3552 26.941 26.1033 27.1224 25.9421 27.1224C25.7506 27.1224 25.4584 26.941 25.2367 26.9612C23.9167 27.0418 23.2617 26.8906 23.2617 26.8906C23.2617 26.8906 24.6926 28.251 25.9522 28.251C27.2117 28.251 28.6426 26.8906 28.6426 26.8906C28.6426 26.8906 27.9373 27.0317 26.5568 26.9511Z" fill="#C16952"/>
<path d="M18.5582 18.7574C18.5179 18.4853 18.5078 18.2334 18.5179 18.042C18.528 17.7497 18.5683 17.5684 18.5683 17.5684L17.6211 17.921C17.6211 18.0621 17.6211 18.2133 17.6211 18.3543C17.6211 18.3543 17.7219 18.3241 17.9032 18.2636C17.8932 18.2636 17.8831 18.2737 17.873 18.2737C18.004 18.4954 18.1652 18.838 18.3265 19.3318C18.3164 19.3318 18.6892 19.6038 18.5582 18.7574Z" fill="#3A1D12"/>
<path d="M34.2681 17.9216L33.3309 17.2969C33.3309 17.2969 33.3712 17.7503 33.3813 18.0425C33.3914 18.2441 33.3813 18.4859 33.341 18.758C33.21 19.6044 33.5728 19.3323 33.5728 19.3323C33.7239 18.8285 33.8952 18.496 34.0162 18.2743C34.1774 18.3348 34.2681 18.3549 34.2681 18.3549C34.2781 18.2038 34.2781 18.0627 34.2681 17.9216Z" fill="#3A1D12"/>
<path d="M25.9132 32.8457C23.0716 32.8457 22.1445 34.0952 22.1445 34.0952L25.9535 40.2721L29.7624 34.0952C29.7524 34.0952 28.7447 32.8457 25.9132 32.8457Z" fill="#E2A379"/>
<path d="M26.649 50.2982V41.3301H25.2383V50.2982C25.47 50.3083 25.7119 50.3083 25.9436 50.3083C26.1754 50.3083 26.4172 50.2982 26.649 50.2982Z" fill="#263A44"/>
</g>
<defs>
<clipPath id="clip0_1252_30520">
<rect width="50" height="50" fill="white" transform="translate(0.945312 0.308594)"/>
</clipPath>
</defs>
</svg>
